{
.appVersion = "3324";
.formatVersion = 3;
axes = (
{
name = Weight;
tag = wght;
}
);
classes = (
{
code = "zero one two three four five six seven eight nine";
name = fig;
},
{
code = "zerosuperior onesuperior twosuperior threesuperior foursuperior fivesuperior sixsuperior sevensuperior eightsuperior ninesuperior
";
name = sups;
},
{
code = "zeroinferior oneinferior twoinferior threeinferior fourinferior fiveinferior sixinferior seveninferior eightinferior nineinferior
";
name = dnom;
}
);
customParameters = (
{
disabled = 1;
name = glyphOrder;
value = (
.notdef,
NULL,
CR,
space,
uni00A0,
A,
B,
C,
D,
E,
F,
G,
H,
I,
J,
K,
L,
M,
N,
O,
P,
Q,
R,
S,
T,
U,
V,
W,
X,
Y,
Z,
Aacute,
Abreve,
Acircumflex,
Adieresis,
AE,
Agrave,
Amacron,
Aogonek,
Aring,
Atilde,
Cacute,
Ccaron,
Ccedilla,
Ccircumflex,
Cdotaccent,
Dcaron,
Dcroat,
Eacute,
Ebreve,
Ecaron,
Ecircumflex,
Edieresis,
Edotaccent,
Egrave,
Emacron,
Eng,
Eogonek,
Eth,
Gbreve,
Gcircumflex,
Gcommaaccent,
Gdotaccent,
Hbar,
Hcircumflex,
Iacute,
Ibreve,
Icircumflex,
Idieresis,
Idotaccent,
Igrave,
IJ,
Imacron,
Iogonek,
Itilde,
Jcircumflex,
Kcommaaccent,
Lacute,
Lcaron,
Lcommaaccent,
Ldot,
Lslash,
Nacute,
Ncaron,
Ncommaaccent,
Ntilde,
Oacute,
Obreve,
Ocircumflex,
Odieresis,
OE,
Ograve,
Ohungarumlaut,
Omacron,
Oslash,
Otilde,
Racute,
Rcaron,
Rcommaaccent,
Sacute,
Scaron,
Scedilla,
Scircumflex,
Scommaaccent,
Tbar,
Tcaron,
Tcedilla,
uni021A,
Thorn,
Uacute,
Ubreve,
Ucircumflex,
Udieresis,
Ugrave,
Uhungarumlaut,
Umacron,
Uogonek,
Uring,
Utilde,
Wacute,
Wdieresis,
Wgrave,
Wcircumflex,
Yacute,
Ycircumflex,
Ydieresis,
Ygrave,
Zacute,
Zcaron,
Zdotaccent,
a,
b,
c,
d,
e,
f,
g,
h,
i,
j,
k,
l,
m,
n,
o,
p,
q,
r,
s,
t,
u,
v,
w,
x,
y,
z,
aacute,
abreve,
acircumflex,
adieresis,
ae,
agrave,
amacron,
aogonek,
aring,
atilde,
cacute,
ccaron,
ccedilla,
ccircumflex,
cdotaccent,
dcaron,
dcroat,
dotlessi,
dotlessj,
eacute,
ebreve,
ecaron,
ecircumflex,
edieresis,
edotaccent,
egrave,
emacron,
eng,
eogonek,
eth,
gbreve,
gcircumflex,
gcommaaccent,
gdotaccent,

glyphs = (
{
glyphname = A;
kernLeft = A;
kernRight = A;
lastChange = "2024-11-12 17:33:39 +0000";
layers = (
{
anchors = (
{
name = bottom;
pos = (669,0);
},
{
name = top;
pos = (447,700);
}
);
layerId = m001;
shapes = (
{
closed = 1;
nodes = (
(130,0,l),
(221,167,l),
(472,167,l),
(495,0,l),
(669,0,l),
(551,700,l),
(359,700,l),
(-54,0,l)
);
},
{
closed = 1;
nodes = (
(421,532,l),
(453,300,l),
(294,300,l)
);
}
);
width = 727;
},
{
anchors = (
{
name = bottom;
pos = (585,0);
},
{
name = top;
pos = (414,700);
}
);
layerId = "92FFDF9D-0EFB-4B63-BEE2-6F342003A4EE";
shapes = (
{
closed = 1;
nodes = (
(41,0,l),
(168,220,l),
(472,220,l),
(508,0,l),
(585,0,l),
(463,700,l),
(372,700,l),
(-44,0,l)
);
},
{
closed = 1;
nodes = (
(404,631,l),
(462,281,l),
(203,281,l)
);
}
);
width = 647;
},
{
anchors = (
{
name = bottom;
pos = (564,0);
},
{
name = top;
pos = (404,700);
}
);
guides = (
{
pos = (557,700);
userData = {
UFO.identifier = pd8AAOh555;
};
}
);
layerId = "97A2421D-FE16-4A26-AFBB-B9A317B3A2E5";
shapes = (
{
closed = 1;
nodes = (
(18,0,l),
(156,234,l),
(473,234,l),
(513,0,l),
(564,0,l),
(441,700,l),
(377,700,l),
(-40,0,l)
);
},
{
closed = 1;
nodes = (
(402,653,l),
(466,276,l),
(180,276,l)
);
}
);
width = 626;
}
);
unicode = 65;
},
{
glyphname = Aogonek;
kernLeft = A;
kernRight = A;
lastChange = "2024-11-12 17:33:39 +0000";
layers = (
{
layerId = m001;
shapes = (
{
closed = 1;
nodes = (
(595,-231,o),
(631,-222,o),
(656,-208,c),
(651,-138,l),
(640,-145,o),
(622,-149,o),
(604,-149,cs),
(579,-149,o),
(564,-136,o),
(564,-113,cs),
(564,-76,o),
(599,-38,o),
(669,0,c),
(551,700,l),
(359,700,l),
(-54,0,l),
(130,0,l),
(221,167,l),
(472,167,l),
(495,0,l),
(588,0,l),
(510,-47,o),
(472,-97,o),
(472,-153,cs),
(472,-201,o),
(506,-231,o),
(560,-231,cs)
);
},
{
closed = 1;
nodes = (
(421,532,l),
(453,300,l),
(294,300,l)
);
}
);
width = 727;
},
{
layerId = "92FFDF9D-0EFB-4B63-BEE2-6F342003A4EE";
shapes = (
{
closed = 1;
nodes = (
(523,-232,o),
(547,-227,o),
(565,-218,c),
(561,-178,l),
(548,-183,o),
(529,-187,o),
(515,-187,cs),
(480,-187,o),
(455,-168,o),
(455,-139,cs),
(455,-92,o),
(496,-48,o),
(585,0,c),
(463,700,l),
(372,700,l),
(-44,0,l),
(41,0,l),
(168,220,l),
(472,220,l),
(508,0,l),
(526,0,l),
(444,-48,o),
(404,-99,o),
(404,-154,cs),
(404,-201,o),
(442,-232,o),
(499,-232,cs)
);
},
{
closed = 1;
nodes = (
(404,631,l),
(462,281,l),
(203,281,l)
);
}
);
width = 647;
},
{
layerId = "97A2421D-FE16-4A26-AFBB-B9A317B3A2E5";
shapes = (
{
closed = 1;
nodes = (
(505,-232,o),
(526,-227,o),
(541,-220,c),
(538,-188,l),
(525,-193,o),
(506,-197,o),
(492,-197,cs),
(454,-197,o),
(427,-176,o),
(427,-146,cs),
(427,-102,o),
(458,-56,o),
(564,0,c),
(441,700,l),
(377,700,l),
(-40,0,l),
(18,0,l),
(156,234,l),
(473,234,l),
(513,0,l),
(514,0,l),
(429,-47,o),
(387,-98,o),
(387,-154,cs),
(387,-195,o),
(419,-232,o),
(484,-232,cs)
);
},
{
closed = 1;
nodes = (
(402,653,l),
(466,276,l),
(180,276,l)
);
}
);
width = 626;
}
);
unicode = 260;
},
{
glyphname = AE;
kernLeft = A;
kernRight = E;
lastChange = "2024-11-12 17:33:39 +0000";
layers = (
{
layerId = m001;
shapes = (
{
closed = 1;
nodes = (
(119,0,l),
(216,167,l),
(466,167,l),
(484,0,l),
(854,0,l),
(885,149,l),
(636,149,l),
(622,281,l),
(798,281,l),
(829,425,l),
(606,425,l),
(592,551,l),
(971,551,l),
(1002,700,l),
(361,700,l),
(-54,0,l)
);
},
{
closed = 1;
nodes = (
(428,532,l),
(452,300,l),
(293,300,l)
);
}
);
width = 967;
},
{
layerId = "92FFDF9D-0EFB-4B63-BEE2-6F342003A4EE";
shapes = (
{
closed = 1;
nodes = (
(37,0,l),
(166,220,l),
(471,220,l),
(505,0,l),
(799,0,l),
(813,68,l),
(569,68,l),
(530,320,l),
(736,320,l),
(751,387,l),
(519,387,l),
(481,632,l),
(933,632,l),
(947,700,l),
(373,700,l),
(-44,0,l)
);
},
{
closed = 1;
nodes = (
(406,631,l),
(461,281,l),
(201,281,l)
);
}
);
width = 900;
},
{
layerId = "97A2421D-FE16-4A26-AFBB-B9A317B3A2E5";
shapes = (
{
closed = 1;
nodes = (
(17,0,l),
(155,234,l),
(472,234,l),
(510,0,l),
(786,0,l),
(796,47,l),
(552,47,l),
(505,330,l),
(728,330,l),
(738,377,l),
(498,377,l),
(452,653,l),
(921,653,l),
(931,700,l),
(377,700,l),
(-40,0,l)
);
},
{
closed = 1;
nodes = (
(404,658,l),
(466,276,l),
(179,276,l)
);
}
);
width = 881;
}
);
unicode = 198;
},
{
glyphname = B;
kernLeft = H;
lastChange = "2024-11-12 17:33:39 +0000";
layers = (
{
layerId = m001;
shapes = (
{
closed = 1;
nodes = (
(398,0,ls),
(542,0,o),
(657,96,o),
(657,215,cs),
(657,276,o),
(621,326,o),
(563,354,c),
(639,389,o),
(691,456,o),
(691,534,cs),
(691,633,o),
(609,700,o),
(487,700,cs),
(170,700,l),
(21,0,l)
);
},
{
closed = 1;
nodes = (
(309,563,l),
(449,563,ls),
(492,563,o),
(518,540,o),
(518,501,cs),
(518,454,o),
(480,419,o),
(429,419,cs),
(278,419,l)
);
},
{
closed = 1;
nodes = (
(251,291,l),
(413,291,ls),
(460,291,o),
(488,266,o),
(488,225,cs),
(488,174,o),
(448,137,o),
(393,137,cs),
(218,137,l)
);
}
);
width = 715;
},
{
layerId = "92FFDF9D-0EFB-4B63-BEE2-6F342003A4EE";
shapes = (
{
closed = 1;
nodes = (
(341,0,ls),
(484,0,o),
(589,92,o),
(589,217,cs),
(589,287,o),
(546,338,o),
(474,359,c),
(566,383,o),
(627,454,o),
(627,545,cs),
(627,641,o),
(556,700,o),
(442,700,cs),
(183,700,l),
(34,0,l)
);
},
{
closed = 1;
nodes = (
(244,634,l),
(429,634,ls),
(505,634,o),
(550,595,o),
(550,532,cs),
(550,451,o),
(487,394,o),
(395,394,cs),
(193,394,l)
);
},
{
closed = 1;
nodes = (
(179,331,l),
(377,331,ls),
(462,331,o),
(513,288,o),
(513,218,cs),
(513,128,o),
(442,66,o),
(340,66,cs),
(123,66,l)
);
}
);
width = 656;
},
{
layerId = "97A2421D-FE16-4A26-AFBB-B9A317B3A2E5";
shapes = (
{
closed = 1;
nodes = (
(328,0,ls),
(474,0,o),
(573,93,o),
(573,218,cs),
(573,291,o),
(527,343,o),
(447,361,c),
(549,379,o),
(611,451,o),
(611,544,cs),
(611,637,o),
(546,700,o),
(432,700,cs),
(189,700,l),
(40,0,l)
);
},
{
closed = 1;
nodes = (
(230,653,l),
(426,653,ls),
(512,653,o),
(561,608,o),
(561,540,cs),
(561,453,o),
(494,388,o),
(388,388,cs),
(174,388,l)
);
},
{
closed = 1;
nodes = (
(164,342,l),
(370,342,ls),
(467,342,o),
(522,292,o),
(522,216,cs),
(522,120,o),
(448,47,o),
(328,47,cs),
(101,47,l)
);
}
);
width = 640;
}
);
unicode = 66;
},
{
glyphname = C;
kernLeft = O;
kernRight = C;
lastChange = "2024-11-12 17:33:39 +0000";
layers = (
{
anchors = (
{
name = bottom;
pos = (369,0);
},
{
name = top;
pos = (446,700);
}
);
layerId = m001;
shapes = (
{
closed = 1;
nodes = (
(495,-10,o),
(601,37,o),
(672,113,c),
(579,224,l),
(529,170,o),
(474,143,o),
(416,143,cs),
(313,143,o),
(236,223,o),
(236,332,cs),
(236,456,o),
(325,557,o),
(436,557,cs),
(505,557,o),
(560,523,o),
(594,457,c),
(725,563,l),
(669,658,o),
(571,709,o),
(445,709,cs),
(234,709,o),
(62,536,o),
(62,323,cs),
(62,136,o),
(208,-10,o),
(395,-10,cs)
);
}
);
userData = {
com.typemytype.robofont.guideline.magnetic.jQ0NX76RbG = 5;
com.typemytype.robofont.guideline.magnetic.jZKo2ahIuC = 5;
com.typemytype.robofont.guideline.magnetic.yz63AWOcUr = 5;
};
width = 711;
},
{
anchors = (
{
name = bottom;
pos = (388,0);
},
{
name = top;
pos = (448,700);
}
);
layerId = "92FFDF9D-0EFB-4B63-BEE2-6F342003A4EE";
shapes = (
{
closed = 1;
nodes = (
(493,-11,o),
(585,27,o),
(659,95,c),
(619,147,l),
(561,91,o),
(484,58,o),
(406,58,cs),
(260,58,o),
(153,170,o),
(153,323,cs),
(153,500,o),
(283,640,o),
(447,640,cs),
(534,640,o),
(610,601,o),
(653,534,c),
(710,584,l),
(652,667,o),
(562,710,o),
(451,710,cs),
(246,710,o),
(76,534,o),
(76,320,cs),
(76,131,o),
(216,-11,o),
(401,-11,cs)
);
}
);
userData = {
com.typemytype.robofont.guideline.magnetic.jQ0NX76RbG = 5;
com.typemytype.robofont.guideline.magnetic.jZKo2ahIuC = 5;
com.typemytype.robofont.guideline.magnetic.yz63AWOcUr = 5;
};
width = 713;
},
{
anchors = (
{
name = bottom;
pos = (388,0);
},
{
name = top;
pos = (451,700);
}
);
layerId = "97A2421D-FE16-4A26-AFBB-B9A317B3A2E5";
shapes = (
{
closed = 1;
nodes = (
(484,-11,o),
(577,21,o),
(647,83,c),
(615,121,l),
(552,64,o),
(474,37,o),
(387,37,cs),
(230,37,o),
(130,161,o),
(130,309,cs),
(130,498,o),
(277,663,o),
(453,663,cs),
(548,663,o),
(626,625,o),
(676,555,c),
(716,583,l),
(658,665,o),
(565,711,o),
(458,711,cs),
(257,711,o),
(79,531,o),
(79,310,cs),
(79,129,o),
(208,-11,o),
(382,-11,cs)
);
}
);
userData = {
com.typemytype.robofont.guideline.magnetic.jQ0NX76RbG = 5;
com.typemytype.robofont.guideline.magnetic.jZKo2ahIuC = 5;
com.typemytype.robofont.guideline.magnetic.yz63AWOcUr = 5;
};
width = 714;
}
);
unicode = 67;
},
{
glyphname = Ccedilla;
kernLeft = O;
kernRight = C;
lastChange = "2024-11-12 17:33:39 +0000";
layers = (
{
layerId = m001;
shapes = (
{
closed = 1;
nodes = (
(402,-253,o),
(463,-201,o),
(463,-136,cs),
(463,-94,o),
(432,-66,o),
(378,-59,c),
(400,-10,l),
(495,-10,o),
(601,37,o),
(672,113,c),
(579,224,l),
(529,170,o),
(474,143,o),
(416,143,cs),
(313,143,o),
(236,223,o),
(236,332,cs),
(236,456,o),
(325,557,o),
(436,557,cs),
(505,557,o),
(560,523,o),
(594,457,c),
(725,563,l),
(669,658,o),
(571,709,o),
(445,709,cs),
(234,709,o),
(62,536,o),
(62,323,cs),
(62,159,o),
(175,26,o),
(329,-4,c),
(284,-109,l),
(325,-109,ls),
(356,-109,o),
(376,-123,o),
(376,-144,cs),
(376,-167,o),
(355,-182,o),
(323,-182,cs),
(293,-182,o),
(265,-170,o),
(246,-150,c),
(191,-205,l),
(221,-238,o),
(265,-253,o),
(325,-253,cs)
);
}
);
width = 711;
},
{
layerId = "92FFDF9D-0EFB-4B63-BEE2-6F342003A4EE";
shapes = (
{
closed = 1;
nodes = (
(411,-239,o),
(461,-195,o),
(461,-138,cs),
(461,-99,o),
(431,-70,o),
(380,-66,c),
(404,-11,l),
(493,-11,o),
(585,27,o),
(659,95,c),
(619,147,l),
(561,91,o),
(484,58,o),
(406,58,cs),
(260,58,o),
(153,170,o),
(153,323,cs),
(153,500,o),
(283,640,o),
(447,640,cs),
(534,640,o),
(610,601,o),
(653,534,c),
(710,584,l),
(652,667,o),
(562,710,o),
(451,710,cs),
(246,710,o),
(76,534,o),
(76,320,cs),
(76,144,o),
(197,9,o),
(363,-9,c),
(323,-99,l),
(351,-99,ls),
(391,-99,o),
(415,-116,o),
(415,-144,cs),
(415,-177,o),
(387,-199,o),
(343,-199,cs),
(314,-199,o),
(290,-189,o),
(270,-167,c),
(239,-197,l),
(261,-224,o),
(300,-239,o),
(345,-239,cs)
);
}
);
width = 713;
},
{
layerId = "97A2421D-FE16-4A26-AFBB-B9A317B3A2E5";
shapes = (
{
closed = 1;
nodes = (
(406,-235,o),
(454,-195,o),
(454,-138,cs),
(454,-99,o),
(426,-72,o),
(373,-68,c),
(398,-11,l),
(494,-7,o),
(581,24,o),
(647,83,c),
(615,121,l),
(552,64,o),
(474,37,o),
(387,37,cs),
(230,37,o),
(130,161,o),
(130,309,cs),
(130,498,o),
(277,663,o),
(453,663,cs),
(548,663,o),
(626,625,o),
(676,555,c),
(716,583,l),
(658,665,o),
(565,711,o),
(458,711,cs),
(257,711,o),
(79,531,o),
(79,310,cs),
(79,135,o),
(200,-2,o),
(365,-11,c),
(327,-96,l),
(351,-96,ls),
(392,-96,o),
(419,-113,o),
(419,-144,cs),
(419,-178,o),
(392,-204,o),
(342,-204,cs),
(313,-204,o),
(290,-194,o),
(269,-171,c),
(245,-195,l),
(263,-217,o),
(298,-235,o),
(344,-235,cs)
);
}
);
width = 714;
}
);
unicode = 199;
},
{
glyphname = D;
kernLeft = H;
kernRight = O;
lastChange = "2024-11-12 17:33:39 +0000";
layers = (
{
anchors = (
{
name = top;
pos = (467,700);
}
);
layerId = m001;
shapes = (
{
closed = 1;
nodes = (
(337,0,ls),
(545,0,o),
(721,178,o),
(721,387,cs),
(721,566,o),
(588,700,o),
(412,700,cs),
(170,700,l),
(21,0,l)
);
},
{
closed = 1;
nodes = (
(480,553,o),
(544,476,o),
(544,373,cs),
(544,248,o),
(458,147,o),
(353,147,cs),
(220,147,l),
(307,553,l),
(395,553,ls)
);
}
);
width = 745;
},
{
anchors = (
{
name = top;
pos = (440,700);
}
);
layerId = "92FFDF9D-0EFB-4B63-BEE2-6F342003A4EE";
shapes = (
{
closed = 1;
nodes = (
(291,0,ls),
(506,0,o),
(681,176,o),
(681,391,cs),
(681,576,o),
(561,700,o),
(382,700,cs),
(183,700,l),
(34,0,l)
);
},
{
closed = 1;
nodes = (
(513,631,o),
(603,534,o),
(603,389,cs),
(603,211,o),
(469,69,o),
(302,69,cs),
(124,69,l),
(243,631,l),
(379,631,ls)
);
}
);
width = 717;
},
{
anchors = (
{
name = top;
pos = (435,700);
}
);
layerId = "97A2421D-FE16-4A26-AFBB-B9A317B3A2E5";
shapes = (
{
closed = 1;
nodes = (
(292,0,ls),
(514,0,o),
(674,172,o),
(674,392,cs),
(674,580,o),
(554,700,o),
(377,700,cs),
(189,700,l),
(40,0,l)
);
},
{
closed = 1;
nodes = (
(524,653,o),
(623,552,o),
(623,393,cs),
(623,211,o),
(490,47,o),
(301,47,cs),
(101,47,l),
(230,653,l),
(378,653,ls)
);
}
);
width = 707;
}
);
unicode = 68;
},
{
glyphname = Dcroat;
kernLeft = H;
kernRight = O;
lastChange = "2024-11-12 17:33:39 +0000";
layers = (
{
layerId = m001;
shapes = (
{
closed = 1;
nodes = (
(352,0,ls),
(560,0,o),
(736,178,o),
(736,387,cs),
(736,566,o),
(603,700,o),
(427,700,cs),
(185,700,l),
(124,413,l),
(45,413,l),
(20,293,l),
(98,293,l),
(36,0,l)
);
},
{
closed = 1;
nodes = (
(266,293,l),
(413,293,l),
(438,413,l),
(292,413,l),
(322,553,l),
(410,553,ls),
(495,553,o),
(559,476,o),
(559,373,cs),
(559,248,o),
(473,147,o),
(368,147,cs),
(235,147,l)
);
}
);
width = 760;
},
{
layerId = "92FFDF9D-0EFB-4B63-BEE2-6F342003A4EE";
shapes = (
{
closed = 1;
nodes = (
(321,0,ls),
(536,0,o),
(711,176,o),
(711,391,cs),
(711,576,o),
(591,700,o),
(412,700,cs),
(213,700,l),
(146,383,l),
(51,383,l),
(38,322,l),
(133,322,l),
(64,0,l)
);
},
{
closed = 1;
nodes = (
(208,322,l),
(371,322,l),
(384,383,l),
(220,383,l),
(273,631,l),
(409,631,ls),
(543,631,o),
(633,534,o),
(633,389,cs),
(633,211,o),
(499,69,o),
(332,69,cs),
(154,69,l)
);
}
);
width = 747;
},
{
layerId = "97A2421D-FE16-4A26-AFBB-B9A317B3A2E5";
shapes = (
{
closed = 1;
nodes = (
(292,0,ls),
(514,0,o),
(674,172,o),
(674,392,cs),
(674,580,o),
(554,700,o),
(377,700,cs),
(189,700,l),
(119,373,l),
(55,373,l),
(46,329,l),
(110,329,l),
(40,0,l)
);
},
{
closed = 1;
nodes = (
(161,329,l),
(369,329,l),
(379,373,l),
(170,373,l),
(230,653,l),
(378,653,ls),
(524,653,o),
(623,552,o),
(623,393,cs),
(623,211,o),
(490,47,o),
(301,47,cs),
(101,47,l)
);
}
);
width = 707;
}
);
unicode = 272;
},
{
glyphname = E;
kernLeft = H;
kernRight = E;
lastChange = "2024-11-12 17:33:39 +0000";
layers = (
{
anchors = (
{
name = bottom;
pos = (543,0);
},
{
name = top;
pos = (425,700);
}
);
layerId = m001;
shapes = (
{
closed = 1;
nodes = (
(543,0,l),
(575,144,l),
(220,144,l),
(249,283,l),
(496,283,l),
(526,423,l),
(279,423,l),
(307,556,l),
(656,556,l),
(688,700,l),
(170,700,l),
(21,0,l)
);
}
);
userData = {
com.typemytype.robofont.guideline.magnetic.KXcVhIIV3R = 5;
com.typemytype.robofont.guideline.magnetic.he3jOqoy5f = 5;
};
width = 657;
},
{
anchors = (
{
name = bottom;
pos = (506,0);
},
{
name = top;
pos = (410,700);
}
);
layerId = "92FFDF9D-0EFB-4B63-BEE2-6F342003A4EE";
shapes = (
{
closed = 1;
nodes = (
(506,0,l),
(520,67,l),
(123,67,l),
(177,320,l),
(450,320,l),
(464,387,l),
(191,387,l),
(244,633,l),
(636,633,l),
(651,700,l),
(183,700,l),
(34,0,l)
);
}
);
userData = {
com.typemytype.robofont.guideline.magnetic.KXcVhIIV3R = 5;
com.typemytype.robofont.guideline.magnetic.he3jOqoy5f = 5;
};
width = 607;
},
{
anchors = (
{
name = bottom;
pos = (499,0);
},
{
name = top;
pos = (408,700);
}
);
layerId = "97A2421D-FE16-4A26-AFBB-B9A317B3A2E5";
shapes = (
{
closed = 1;
nodes = (
(499,0,l),
(509,47,l),
(101,47,l),
(161,330,l),
(441,330,l),
(451,377,l),
(171,377,l),
(230,653,l),
(634,653,l),
(644,700,l),
(189,700,l),
(40,0,l)
);
}
);
userData = {
com.typemytype.robofont.guideline.magnetic.KXcVhIIV3R = 5;
com.typemytype.robofont.guideline.magnetic.he3jOqoy5f = 5;
};
width = 594;
}
);
unicode = 69;
},
{
glyphname = Eogonek;
kernLeft = H;
kernRight = E;
lastChange = "2024-11-12 17:33:39 +0000";
layers = (
{
layerId = m001;
shapes = (
{
closed = 1;
nodes = (
(469,-231,o),
(505,-222,o),
(530,-208,c),
(525,-138,l),
(514,-145,o),
(496,-149,o),
(478,-149,cs),
(453,-149,o),
(438,-136,o),
(438,-113,cs),
(438,-76,o),
(473,-38,o),
(543,0,c),
(575,144,l),
(220,144,l),
(249,283,l),
(496,283,l),
(526,423,l),
(279,423,l),
(307,556,l),
(656,556,l),
(688,700,l),
(170,700,l),
(21,0,l),
(462,0,l),
(384,-47,o),
(346,-97,o),
(346,-153,cs),
(346,-201,o),
(380,-231,o),
(434,-231,cs)
);
}
);
width = 657;
},
{
layerId = "92FFDF9D-0EFB-4B63-BEE2-6F342003A4EE";
shapes = (
{
closed = 1;
nodes = (
(443,-232,o),
(467,-227,o),
(485,-218,c),
(481,-178,l),
(468,-183,o),
(449,-187,o),
(435,-187,cs),
(400,-187,o),
(375,-168,o),
(375,-139,cs),
(375,-92,o),
(417,-48,o),
(506,0,c),
(520,67,l),
(123,67,l),
(177,320,l),
(450,320,l),
(464,387,l),
(191,387,l),
(244,633,l),
(636,633,l),
(651,700,l),
(183,700,l),
(34,0,l),
(446,0,l),
(364,-48,o),
(324,-99,o),
(324,-154,cs),
(324,-201,o),
(362,-232,o),
(419,-232,cs)
);
}
);
width = 607;
},
{
layerId = "97A2421D-FE16-4A26-AFBB-B9A317B3A2E5";
shapes = (
{
closed = 1;
nodes = (
(440,-232,o),
(461,-227,o),
(476,-220,c),
(473,-188,l),
(460,-193,o),
(441,-197,o),
(427,-197,cs),
(389,-197,o),
(362,-176,o),
(362,-146,cs),
(362,-102,o),
(393,-56,o),
(499,0,c),
(509,47,l),
(101,47,l),
(161,330,l),
(441,330,l),
(451,377,l),
(171,377,l),
(230,653,l),
(634,653,l),
(644,700,l),
(189,700,l),
(40,0,l),
(444,0,l),
(351,-55,o),
(322,-107,o),
(322,-154,cs),
(322,-195,o),
(354,-232,o),
(419,-232,cs)
);
}
);
width = 594;
}
);
unicode = 280;
},
{
glyphname = F;
kernLeft = H;
lastChange = "2024-11-12 17:33:39 +0000";
layers = (
{
layerId = m001;
shapes = (
{
closed = 1;
nodes = (
(189,0,l),
(248,278,l),
(495,278,l),
(525,418,l),
(278,418,l),
(307,556,l),
(660,556,l),
(692,700,l),
(170,700,l),
(21,0,l)
);
}
);
width = 652;
},
{
layerId = "92FFDF9D-0EFB-4B63-BEE2-6F342003A4EE";
shapes = (
{
closed = 1;
nodes = (
(109,0,l),
(176,315,l),
(445,315,l),
(459,382,l),
(190,382,l),
(244,633,l),
(636,633,l),
(651,700,l),
(183,700,l),
(34,0,l)
);
}
);
width = 598;
},
{
layerId = "97A2421D-FE16-4A26-AFBB-B9A317B3A2E5";
shapes = (
{
closed = 1;
nodes = (
(91,0,l),
(160,325,l),
(435,325,l),
(445,372,l),
(170,372,l),
(230,653,l),
(633,653,l),
(643,700,l),
(189,700,l),
(40,0,l)
);
}
);
width = 584;
}
);
unicode = 70;
},
{
glyphname = G;
kernLeft = O;
kernRight = G;
lastChange = "2024-11-12 17:33:39 +0000";
layers = (
{
anchors = (
{
name = bottom;
pos = (397,0);
},
{
name = top;
pos = (450,701);
}
);
layerId = m001;
shapes = (
{
closed = 1;
nodes = (
(566,-11,o),
(717,127,o),
(759,329,cs),
(774,402,l),
(425,402,l),
(393,258,l),
(565,258,l),
(541,187,o),
(476,140,o),
(403,140,cs),
(304,140,o),
(234,215,o),
(234,322,cs),
(234,453,o),
(325,558,o),
(439,558,cs),
(513,558,o),
(574,521,o),
(606,458,c),
(738,564,l),
(685,655,o),
(576,711,o),
(453,711,cs),
(240,711,o),
(59,528,o),
(59,311,cs),
(59,126,o),
(198,-11,o),
(386,-11,cs)
);
}
);
userData = {
SBAlt = left;
com.typemytype.robofont.guideline.magnetic.GZSeIUowNo = 5;
com.typemytype.robofont.guideline.magnetic.Hfkj6T7YAY = 5;
com.typemytype.robofont.guideline.magnetic.rbaIqQY7hA = 5;
};
width = 790;
},
{
anchors = (
{
name = bottom;
pos = (388,0);
},
{
name = top;
pos = (446,700);
}
);
layerId = "92FFDF9D-0EFB-4B63-BEE2-6F342003A4EE";
shapes = (
{
closed = 1;
nodes = (
(567,-10,o),
(711,125,o),
(743,314,cs),
(752,366,l),
(444,366,l),
(433,298,l),
(664,298,l),
(637,157,o),
(529,59,o),
(399,59,cs),
(256,59,o),
(149,171,o),
(149,323,cs),
(149,499,o),
(281,641,o),
(443,641,cs),
(535,641,o),
(619,599,o),
(664,529,c),
(723,579,l),
(660,665,o),
(564,711,o),
(448,711,cs),
(245,711,o),
(73,533,o),
(73,321,cs),
(73,133,o),
(212,-10,o),
(394,-10,cs)
);
}
);
userData = {
SBAlt = left;
com.typemytype.robofont.guideline.magnetic.GZSeIUowNo = 5;
com.typemytype.robofont.guideline.magnetic.Hfkj6T7YAY = 5;
com.typemytype.robofont.guideline.magnetic.rbaIqQY7hA = 5;
};
width = 785;
},
{
anchors = (
{
name = bottom;
pos = (388,0);
},
{
name = top;
pos = (447,700);
}
);
layerId = "97A2421D-FE16-4A26-AFBB-B9A317B3A2E5";
shapes = (
{
closed = 1;
nodes = (
(571,-11,o),
(704,130,o),
(739,310,cs),
(748,356,l),
(455,356,l),
(445,309,l),
(689,309,l),
(664,153,o),
(548,37,o),
(387,37,cs),
(230,37,o),
(130,161,o),
(130,309,cs),
(130,498,o),
(277,663,o),
(453,663,cs),
(547,663,o),
(629,624,o),
(683,551,c),
(723,579,l),
(661,663,o),
(562,711,o),
(458,711,cs),
(257,711,o),
(79,531,o),
(79,310,cs),
(79,129,o),
(208,-11,o),
(382,-11,cs)
);
}
);
userData = {
SBAlt = left;
com.typemytype.robofont.guideline.magnetic.GZSeIUowNo = 5;
com.typemytype.robofont.guideline.magnetic.Hfkj6T7YAY = 5;
com.typemytype.robofont.guideline.magnetic.rbaIqQY7hA = 5;
};
width = 779;
}
);
unicode = 71;
},
{
glyphname = H;
kernLeft = H;
kernRight = H;
lastChange = "2024-11-12 17:33:39 +0000";
layers = (
{
anchors = (
{
name = top;
pos = (468,700);
}
);
layerId = m001;
shapes = (
{
closed = 1;
nodes = (
(179,0,l),
(238,277,l),
(516,277,l),
(457,0,l),
(625,0,l),
(774,700,l),
(606,700,l),
(548,428,l),
(270,428,l),
(328,700,l),
(160,700,l),
(11,0,l)
);
}
);
width = 748;
},
{
anchors = (
{
name = top;
pos = (455,700);
}
);
layerId = "92FFDF9D-0EFB-4B63-BEE2-6F342003A4EE";
shapes = (
{
closed = 1;
nodes = (
(108,0,l),
(176,318,l),
(570,318,l),
(502,0,l),
(578,0,l),
(727,700,l),
(651,700,l),
(584,387,l),
(190,387,l),
(257,700,l),
(181,700,l),
(32,0,l)
);
}
);
width = 717;
},
{
anchors = (
{
name = top;
pos = (453,700);
}
);
guides = (
{
pos = (600,700);
userData = {
UFO.identifier = JB0zzPyeC1;
};
}
);
layerId = "97A2421D-FE16-4A26-AFBB-B9A317B3A2E5";
shapes = (
{
closed = 1;
nodes = (
(91,0,l),
(161,329,l),
(586,329,l),
(516,0,l),
(567,0,l),
(716,700,l),
(665,700,l),
(596,376,l),
(171,376,l),
(240,700,l),
(189,700,l),
(40,0,l)
);
}
);
width = 709;
}
);
unicode = 72;
},
{
glyphname = Hbar;
kernLeft = H;
kernRight = H;
lastChange = "2024-11-12 17:33:39 +0000";
layers = (
{
layerId = m001;
shapes = (
{
closed = 1;
nodes = (
(211,0,l),
(270,277,l),
(548,277,l),
(489,0,l),
(657,0,l),
(762,493,l),
(846,493,l),
(876,613,l),
(787,613,l),
(806,700,l),
(638,700,l),
(619,613,l),
(341,613,l),
(360,700,l),
(192,700,l),
(173,613,l),
(89,613,l),
(59,493,l),
(148,493,l),
(43,0,l)
);
},
{
closed = 1;
nodes = (
(316,493,l),
(594,493,l),
(578,417,l),
(300,417,l)
);
}
);
width = 813;
},
{
layerId = "92FFDF9D-0EFB-4B63-BEE2-6F342003A4EE";
shapes = (
{
closed = 1;
nodes = (
(114,0,l),
(182,319,l),
(577,319,l),
(509,0,l),
(584,0,l),
(695,521,l),
(778,521,l),
(792,582,l),
(708,582,l),
(733,700,l),
(658,700,l),
(633,582,l),
(238,582,l),
(263,700,l),
(188,700,l),
(163,582,l),
(80,582,l),
(66,521,l),
(150,521,l),
(39,0,l)
);
},
{
closed = 1;
nodes = (
(225,521,l),
(620,521,l),
(591,386,l),
(196,386,l)
);
}
);
width = 735;
},
{
layerId = "97A2421D-FE16-4A26-AFBB-B9A317B3A2E5";
shapes = (
{
closed = 1;
nodes = (
(91,0,l),
(161,329,l),
(586,329,l),
(516,0,l),
(567,0,l),
(679,528,l),
(762,528,l),
(772,572,l),
(689,572,l),
(716,700,l),
(665,700,l),
(638,572,l),
(213,572,l),
(240,700,l),
(189,700,l),
(162,572,l),
(79,572,l),
(69,528,l),
(152,528,l),
(40,0,l)
);
},
{
closed = 1;
nodes = (
(203,528,l),
(628,528,l),
(596,376,l),
(171,376,l)
);
}
);
width = 709;
}
);
unicode = 294;
},
{
glyphname = I;
kernLeft = H;
kernRight = H;
lastChange = "2024-11-12 17:33:39 +0000";
layers = (
{
anchors = (
{
name = bottom;
pos = (179,0);
},
{
name = top;
pos = (244,700);
}
);
layerId = m001;
shapes = (
{
closed = 1;
nodes = (
(179,0,l),
(328,700,l),
(160,700,l),
(11,0,l)
);
}
);
width = 302;
},
{
anchors = (
{
name = bottom;
pos = (107,0);
},
{
name = top;
pos = (219,700);
}
);
layerId = "92FFDF9D-0EFB-4B63-BEE2-6F342003A4EE";
shapes = (
{
closed = 1;
nodes = (
(107,0,l),
(256,700,l),
(181,700,l),
(32,0,l)
);
}
);
width = 247;
},
{
anchors = (
{
name = bottom;
pos = (91,0);
},
{
name = top;
pos = (214,700);
}
);
guides = (
{
pos = (362,700);
userData = {
UFO.identifier = woge9MRX1K;
};
}
);
layerId = "97A2421D-FE16-4A26-AFBB-B9A317B3A2E5";
shapes = (
{
closed = 1;
nodes = (
(91,0,l),
(240,700,l),
(189,700,l),
(40,0,l)
);
}
);
width = 233;
}
);
unicode = 73;
},
{
glyphname = Iogonek;
kernLeft = H;
kernRight = H;
lastChange = "2024-11-12 17:33:39 +0000";
layers = (
{
layerId = m001;
shapes = (
{
closed = 1;
nodes = (
(105,-231,o),
(141,-222,o),
(166,-208,c),
(161,-138,l),
(150,-145,o),
(132,-149,o),
(114,-149,cs),
(89,-149,o),
(74,-136,o),
(74,-113,cs),
(74,-76,o),
(109,-38,o),
(179,0,c),
(328,700,l),
(160,700,l),
(11,0,l),
(98,0,l),
(20,-47,o),
(-18,-97,o),
(-18,-153,cs),
(-18,-201,o),
(16,-231,o),
(70,-231,cs)
);
}
);
width = 302;
},
{
layerId = "92FFDF9D-0EFB-4B63-BEE2-6F342003A4EE";
shapes = (
{
closed = 1;
nodes = (
(44,-232,o),
(68,-227,o),
(86,-218,c),
(82,-178,l),
(69,-183,o),
(50,-187,o),
(36,-187,cs),
(1,-187,o),
(-24,-168,o),
(-24,-139,cs),
(-24,-92,o),
(18,-48,o),
(107,0,c),
(256,700,l),
(181,700,l),
(32,0,l),
(47,0,l),
(-35,-48,o),
(-75,-99,o),
(-75,-154,cs),
(-75,-201,o),
(-37,-232,o),
(20,-232,cs)
);
}
);
width = 247;
},
{
layerId = "97A2421D-FE16-4A26-AFBB-B9A317B3A2E5";
shapes = (
{
closed = 1;
nodes = (
(32,-232,o),
(53,-227,o),
(68,-220,c),
(65,-188,l),
(52,-193,o),
(33,-197,o),
(19,-197,cs),
(-19,-197,o),
(-46,-176,o),
(-46,-146,cs),
(-46,-102,o),
(-15,-56,o),
(91,0,c),
(240,700,l),
(189,700,l),
(40,0,l),
(42,0,l),
(-43,-45,o),
(-86,-97,o),
(-86,-154,cs),
(-86,-195,o),
(-54,-232,o),
(11,-232,cs)
);
}
);
width = 233;
}
);
unicode = 302;
},
{
glyphname = J;
kernLeft = J;
kernRight = U;
lastChange = "2024-11-12 17:33:39 +0000";
layers = (
{
anchors = (
{
name = top;
pos = (603,700);
}
);
guides = (
{
pos = (602,700);
userData = {
UFO.identifier = Bb52Jfv7jg;
};
}
);
layerId = m001;
shapes = (
{
closed = 1;
nodes = (
(440,-9,o),
(557,90,o),
(590,244,cs),
(688,700,l),
(517,700,l),
(428,275,ls),
(411,194,o),
(355,141,o),
(288,141,cs),
(224,141,o),
(189,183,o),
(182,267,c),
(24,215,l),
(41,72,o),
(138,-9,o),
(292,-9,cs)
);
}
);
width = 657;
},
{
anchors = (
{
name = top;
pos = (572,700);
}
);
layerId = "92FFDF9D-0EFB-4B63-BEE2-6F342003A4EE";
shapes = (
{
closed = 1;
nodes = (
(378,-11,o),
(479,85,o),
(516,257,cs),
(610,700,l),
(534,700,l),
(441,264,ls),
(413,135,o),
(337,59,o),
(235,59,cs),
(150,59,o),
(98,105,o),
(79,196,c),
(11,171,l),
(34,57,o),
(117,-11,o),
(235,-11,cs)
);
}
);
width = 588;
},
{
anchors = (
{
name = top;
pos = (566,700);
}
);
guides = (
{
pos = (714,700);
userData = {
UFO.identifier = Bb52Jfv7jg;
};
}
);
layerId = "97A2421D-FE16-4A26-AFBB-B9A317B3A2E5";
shapes = (
{
closed = 1;
nodes = (
(377,-11,o),
(461,86,o),
(496,251,cs),
(592,700,l),
(541,700,l),
(445,251,ls),
(416,115,o),
(344,36,o),
(227,36,cs),
(137,36,o),
(76,84,o),
(54,177,c),
(10,159,l),
(35,50,o),
(114,-11,o),
(226,-11,cs)
);
}
);
width = 570;
}
);
unicode = 74;
},
{
glyphname = K;
kernLeft = H;
kernRight = K;
lastChange = "2024-11-12 17:33:39 +0000";
layers = (
{
anchors = (
{
name = bottom;
pos = (314,0);
}
);
layerId = m001;
shapes = (
{
closed = 1;
nodes = (
(189,0,l),
(258,323,l),
(448,0,l),
(657,0,l),
(423,364,l),
(801,700,l),
(586,700,l),
(276,407,l),
(338,700,l),
(170,700,l),
(21,0,l)
);
}
);
width = 723;
},
{
anchors = (
{
name = bottom;
pos = (288,0);
}
);
layerId = "92FFDF9D-0EFB-4B63-BEE2-6F342003A4EE";
shapes = (
{
closed = 1;
nodes = (
(109,0,l),
(182,344,l),
(449,0,l),
(544,0,l),
(263,357,l),
(689,700,l),
(588,700,l),
(189,378,l),
(258,700,l),
(183,700,l),
(34,0,l)
);
}
);
width = 597;
},
{
anchors = (
{
name = bottom;
pos = (283,0);
}
);
layerId = "97A2421D-FE16-4A26-AFBB-B9A317B3A2E5";
shapes = (
{
closed = 1;
nodes = (
(91,0,l),
(165,348,l),
(449,0,l),
(517,0,l),
(221,355,l),
(662,700,l),
(586,700,l),
(170,372,l),
(240,700,l),
(189,700,l),
(40,0,l)
);
}
);
width = 564;
}
);
unicode = 75;
},
{
glyphname = L;
kernLeft = H;
kernRight = L;
lastChange = "2024-11-15 13:13:51 +0000";
layers = (
{
anchors = (
{
name = bottom;
pos = (297,0);
},
{
name = top;
pos = (253,700);
}
);
guides = (
{
pos = (254,700);
userData = {
UFO.identifier = 5kBixRxNqq;
};
}
);
layerId = m001;
shapes = (
{
closed = 1;
nodes = (
(529,0,l),
(561,147,l),
(220,147,l),
(338,700,l),
(170,700,l),
(21,0,l)
);
}
);
width = 637;
},
{
anchors = (
{
name = bottom;
pos = (282,0);
},
{
name = top;
pos = (221,700);
}
);
layerId = "92FFDF9D-0EFB-4B63-BEE2-6F342003A4EE";
shapes = (
{
closed = 1;
nodes = (
(496,0,l),
(510,68,l),
(123,68,l),
(258,700,l),
(183,700,l),
(34,0,l)
);
}
);
width = 595;
},
{
anchors = (
{
name = bottom;
pos = (280,0);
},
{
name = top;
pos = (214,700);
}
);
guides = (
{
pos = (362,700);
userData = {
UFO.identifier = 5kBixRxNqq;
};
}
);
layerId = "97A2421D-FE16-4A26-AFBB-B9A317B3A2E5";
shapes = (
{
closed = 1;
nodes = (
(490,0,l),
(500,47,l),
(101,47,l),
(240,700,l),
(189,700,l),
(40,0,l)
);
}
);
width = 583;
}
);
unicode = 76;
},
{
glyphname = Lslash;
kernLeft = H;
kernRight = L;
lastChange = "2024-11-12 17:33:39 +0000";
layers = (
{
layerId = m001;
shapes = (
{
closed = 1;
nodes = (
(558,0,l),
(590,147,l),
(249,147,l),
(283,308,l),
(461,401,l),
(491,543,l),
(314,451,l),
(367,700,l),
(199,700,l),
(125,352,l),
(17,296,l),
(-13,154,l),
(95,210,l),
(50,0,l)
);
}
);
width = 679;
},
{
layerId = "92FFDF9D-0EFB-4B63-BEE2-6F342003A4EE";
shapes = (
{
closed = 1;
nodes = (
(514,0,l),
(528,68,l),
(141,68,l),
(191,302,l),
(395,439,l),
(410,515,l),
(207,378,l),
(276,700,l),
(201,700,l),
(120,319,l),
(12,246,l),
(-4,170,l),
(104,243,l),
(52,0,l)
);
}
);
width = 616;
},
{
layerId = "97A2421D-FE16-4A26-AFBB-B9A317B3A2E5";
shapes = (
{
closed = 1;
nodes = (
(490,0,l),
(500,47,l),
(101,47,l),
(150,280,l),
(379,428,l),
(392,489,l),
(164,341,l),
(240,700,l),
(189,700,l),
(106,310,l),
(14,249,l),
(1,188,l),
(93,249,l),
(40,0,l)
);
}
);
width = 584;
}
);
unicode = 321;
},
{
glyphname = M;
kernLeft = H;
kernRight = H;
lastChange = "2024-11-12 17:33:39 +0000";
layers = (
{
layerId = m001;
shapes = (
{
closed = 1;
nodes = (
(180,0,l),
(281,481,l),
(413,50,l),
(719,472,l),
(619,0,l),
(774,0,l),
(923,700,l),
(706,700,l),
(472,364,l),
(376,700,l),
(170,700,l),
(21,0,l)
);
}
);
width = 907;
},
{
layerId = "92FFDF9D-0EFB-4B63-BEE2-6F342003A4EE";
shapes = (
{
closed = 1;
nodes = (
(105,0,l),
(235,612,l),
(380,50,l),
(761,609,l),
(632,0,l),
(702,0,l),
(851,700,l),
(743,700,l),
(409,201,l),
(284,700,l),
(183,700,l),
(34,0,l)
);
}
);
width = 844;
},
{
layerId = "97A2421D-FE16-4A26-AFBB-B9A317B3A2E5";
shapes = (
{
closed = 1;
nodes = (
(88,0,l),
(226,650,l),
(373,50,l),
(774,647,l),
(637,0,l),
(685,0,l),
(834,700,l),
(755,700,l),
(395,157,l),
(263,700,l),
(189,700,l),
(40,0,l)
);
}
);
width = 827;
}
);
unicode = 77;
},
{
glyphname = N;
kernLeft = H;
kernRight = H;
lastChange = "2024-11-12 17:33:39 +0000";
layers = (
{
anchors = (
{
name = bottom;
pos = (323,0);
},
{
name = top;
pos = (472,700);
}
);
layerId = m001;
shapes = (
{
closed = 1;
nodes = (
(180,0,l),
(270,454,l),
(491,0,l),
(640,0,l),
(789,700,l),
(630,700,l),
(544,261,l),
(329,700,l),
(170,700,l),
(21,0,l)
);
}
);
width = 773;
},
{
anchors = (
{
name = bottom;
pos = (302,0);
},
{
name = top;
pos = (450,700);
}
);
layerId = "92FFDF9D-0EFB-4B63-BEE2-6F342003A4EE";
shapes = (
{
closed = 1;
nodes = (
(105,0,l),
(229,599,l),
(516,0,l),
(584,0,l),
(732,700,l),
(661,700,l),
(540,113,l),
(260,700,l),
(182,700,l),
(34,0,l)
);
}
);
width = 725;
},
{
anchors = (
{
name = bottom;
pos = (298,0);
},
{
name = top;
pos = (446,700);
}
);
layerId = "97A2421D-FE16-4A26-AFBB-B9A317B3A2E5";
shapes = (
{
closed = 1;
nodes = (
(88,0,l),
(222,639,l),
(523,0,l),
(570,0,l),
(719,700,l),
(671,700,l),
(540,74,l),
(246,700,l),
(189,700,l),
(40,0,l)
);
}
);
width = 712;
}
);
unicode = 78;
},
{
glyphname = Eng;
kernLeft = H;
kernRight = H;
lastChange = "2024-11-12 17:33:39 +0000";
layers = (
{
layerId = m001;
shapes = (
{
closed = 1;
nodes = (
(537,-219,o),
(605,-164,o),
(627,-62,cs),
(789,700,l),
(630,700,l),
(542,283,l),
(334,700,l),
(170,700,l),
(21,0,l),
(180,0,l),
(272,443,l),
(492,10,l),
(480,-45,ls),
(473,-75,o),
(456,-89,o),
(426,-89,cs),
(403,-89,o),
(388,-86,o),
(375,-83,c),
(349,-204,l),
(367,-211,o),
(400,-219,o),
(438,-219,cs)
);
}
);
width = 773;
},
{
layerId = "92FFDF9D-0EFB-4B63-BEE2-6F342003A4EE";
shapes = (
{
closed = 1;
nodes = (
(498,-207,o),
(549,-163,o),
(565,-87,cs),
(732,700,l),
(661,700,l),
(540,118,l),
(261,700,l),
(182,700,l),
(34,0,l),
(105,0,l),
(229,598,l),
(516,2,l),
(499,-78,ls),
(490,-122,o),
(468,-143,o),
(429,-143,cs),
(412,-143,o),
(399,-141,o),
(389,-137,c),
(376,-199,l),
(388,-204,o),
(408,-207,o),
(427,-207,cs)
);
}
);
width = 725;
},
{
layerId = "97A2421D-FE16-4A26-AFBB-B9A317B3A2E5";
shapes = (
{
closed = 1;
nodes = (
(497,-219,o),
(531,-186,o),
(547,-110,cs),
(719,700,l),
(671,700,l),
(539,73,l),
(246,700,l),
(189,700,l),
(40,0,l),
(88,0,l),
(222,639,l),
(522,0,l),
(500,-105,ls),
(490,-152,o),
(470,-173,o),
(431,-173,cs),
(419,-173,o),
(406,-171,o),
(394,-166,c),
(384,-213,l),
(396,-217,o),
(412,-219,o),
(425,-219,cs)
);
}
);
width = 712;
}
);
unicode = 330;
},
{
glyphname = O;
kernLeft = O;
kernRight = O;
lastChange = "2024-11-12 17:33:39 +0000";
layers = (
{
anchors = (
{
name = top;
pos = (460,700);
}
);
layerId = m001;
shapes = (
{
closed = 1;
nodes = (
(601,-11,o),
(772,165,o),
(772,380,cs),
(772,570,o),
(632,711,o),
(444,711,cs),
(235,711,o),
(63,535,o),
(63,320,cs),
(63,130,o),
(204,-11,o),
(392,-11,cs)
);
},
{
closed = 1;
nodes = (
(307,142,o),
(237,221,o),
(237,331,cs),
(237,457,o),
(324,558,o),
(433,558,cs),
(529,558,o),
(599,479,o),
(599,369,cs),
(599,243,o),
(512,142,o),
(403,142,cs)
);
}
);
userData = {
SBAlt = right;
com.typemytype.robofont.guideline.magnetic.7DPn3YjxIK = 5;
com.typemytype.robofont.guideline.magnetic.8CLFKTqMbM = 5;
com.typemytype.robofont.guideline.magnetic.SxK3ATAnnw = 5;
com.typemytype.robofont.guideline.showMeasurements.408pZxyHU3 = 1;
};
width = 797;
},
{
anchors = (
{
name = top;
pos = (444,700);
}
);
layerId = "92FFDF9D-0EFB-4B63-BEE2-6F342003A4EE";
shapes = (
{
closed = 1;
nodes = (
(592,-11,o),
(759,167,o),
(759,380,cs),
(759,568,o),
(623,711,o),
(442,711,cs),
(242,711,o),
(75,533,o),
(75,320,cs),
(75,132,o),
(212,-11,o),
(392,-11,cs)
);
},
{
closed = 1;
nodes = (
(256,59,o),
(151,173,o),
(151,324,cs),
(151,497,o),
(280,641,o),
(438,641,cs),
(578,641,o),
(683,528,o),
(683,376,cs),
(683,202,o),
(554,59,o),
(397,59,cs)
);
}
);
userData = {
SBAlt = right;
com.typemytype.robofont.guideline.magnetic.7DPn3YjxIK = 5;
com.typemytype.robofont.guideline.magnetic.8CLFKTqMbM = 5;
com.typemytype.robofont.guideline.magnetic.SxK3ATAnnw = 5;
com.typemytype.robofont.guideline.showMeasurements.408pZxyHU3 = 1;
};
width = 795;
},
{
anchors = (
{
name = top;
pos = (449,700);
}
);
guides = (
{
pos = (722,378);
userData = {
UFO.identifier = 408pZxyHU3;
};
}
);
layerId = "97A2421D-FE16-4A26-AFBB-B9A317B3A2E5";
shapes = (
{
closed = 1;
nodes = (
(583,-11,o),
(761,169,o),
(761,390,cs),
(761,571,o),
(632,711,o),
(458,711,cs),
(257,711,o),
(79,531,o),
(79,310,cs),
(79,129,o),
(208,-11,o),
(382,-11,cs)
);
},
{
closed = 1;
nodes = (
(230,37,o),
(130,161,o),
(130,309,cs),
(130,498,o),
(277,663,o),
(453,663,cs),
(610,663,o),
(710,539,o),
(710,391,cs),
(710,202,o),
(563,37,o),
(387,37,cs)
);
}
);
userData = {
SBAlt = right;
com.typemytype.robofont.guideline.magnetic.7DPn3YjxIK = 5;
com.typemytype.robofont.guideline.magnetic.8CLFKTqMbM = 5;
com.typemytype.robofont.guideline.magnetic.SxK3ATAnnw = 5;
com.typemytype.robofont.guideline.showMeasurements.408pZxyHU3 = 1;
};
width = 793;
}
);
unicode = 79;
},
{
glyphname = Oslash;
kernLeft = O;
kernRight = O;
lastChange = "2024-11-12 17:33:39 +0000";
layers = (
{
layerId = m001;
shapes = (
{
closed = 1;
nodes = (
(601,-11,o),
(772,165,o),
(772,380,cs),
(772,450,o),
(753,513,o),
(719,566,c),
(860,700,l),
(714,700,l),
(652,641,l),
(596,685,o),
(525,711,o),
(444,711,cs),
(235,711,o),
(63,535,o),
(63,320,cs),
(63,248,o),
(83,183,o),
(119,130,c),
(-17,0,l),
(128,0,l),
(187,57,l),
(243,14,o),
(313,-11,o),
(392,-11,cs)
);
},
{
closed = 1;
nodes = (
(241,278,o),
(237,304,o),
(237,331,cs),
(237,457,o),
(324,558,o),
(433,558,cs),
(470,558,o),
(504,546,o),
(531,525,c),
(249,255,l)
);
},
{
closed = 1;
nodes = (
(367,142,o),
(335,153,o),
(309,173,c),
(588,440,l),
(595,418,o),
(599,395,o),
(599,369,cs),
(599,243,o),
(512,142,o),
(403,142,cs)
);
}
);
width = 799;
},
{
layerId = "92FFDF9D-0EFB-4B63-BEE2-6F342003A4EE";
shapes = (
{
closed = 1;
nodes = (
(592,-11,o),
(759,167,o),
(759,380,cs),
(759,459,o),
(735,530,o),
(694,586,c),
(814,705,l),
(736,705,l),
(657,627,l),
(602,680,o),
(527,711,o),
(442,711,cs),
(242,711,o),
(75,533,o),
(75,320,cs),
(75,241,o),
(99,169,o),
(141,113,c),
(22,-5,l),
(99,-5,l),
(177,73,l),
(233,20,o),
(308,-11,o),
(392,-11,cs)
);
},
{
closed = 1;
nodes = (
(167,211,o),
(151,265,o),
(151,324,cs),
(151,497,o),
(280,641,o),
(438,641,cs),
(504,641,o),
(561,616,o),
(604,574,c),
(196,168,l)
);
},
{
closed = 1;
nodes = (
(331,59,o),
(273,84,o),
(230,125,c),
(639,532,l),
(667,489,o),
(683,435,o),
(683,376,cs),
(683,202,o),
(554,59,o),
(397,59,cs)
);
}
);
width = 795;
},
{
layerId = "97A2421D-FE16-4A26-AFBB-B9A317B3A2E5";
shapes = (
{
closed = 1;
nodes = (
(583,-11,o),
(761,169,o),
(761,390,cs),
(761,467,o),
(738,536,o),
(698,590,c),
(811,700,l),
(748,700,l),
(670,624,l),
(616,678,o),
(542,711,o),
(458,711,cs),
(257,711,o),
(79,531,o),
(79,310,cs),
(79,233,o),
(102,164,o),
(142,110,c),
(29,0,l),
(92,0,l),
(170,76,l),
(224,22,o),
(298,-11,o),
(382,-11,cs)
);
},
{
closed = 1;
nodes = (
(147,191,o),
(130,248,o),
(130,309,cs),
(130,498,o),
(277,663,o),
(453,663,cs),
(528,663,o),
(590,635,o),
(634,589,c),
(178,145,l)
);
},
{
closed = 1;
nodes = (
(312,37,o),
(250,65,o),
(206,111,c),
(662,555,l),
(693,509,o),
(710,452,o),
(710,391,cs),
(710,202,o),
(563,37,o),
(387,37,cs)
);
}
);
width = 793;
}
);
unicode = 216;
},
{
glyphname = OE;
kernLeft = O;
kernRight = E;
lastChange = "2024-11-12 17:33:39 +0000";
layers = (
{
layerId = m001;
shapes = (
{
closed = 1;
nodes = (
(967,0,l),
(998,149,l),
(674,149,l),
(704,188,o),
(726,233,o),
(738,281,c),
(909,281,l),
(940,425,l),
(748,425,l),
(741,470,o),
(725,513,o),
(702,551,c),
(1084,551,l),
(1115,700,l),
(444,700,ls),
(230,700,o),
(64,536,o),
(64,323,cs),
(64,133,o),
(201,0,o),
(398,0,cs)
);
},
{
closed = 1;
nodes = (
(301,152,o),
(230,228,o),
(230,333,cs),
(230,452,o),
(317,548,o),
(423,548,cs),
(519,548,o),
(589,471,o),
(589,367,cs),
(589,249,o),
(503,152,o),
(399,152,cs)
);
}
);
width = 1080;
},
{
layerId = "92FFDF9D-0EFB-4B63-BEE2-6F342003A4EE";
shapes = (
{
closed = 1;
nodes = (
(942,0,l),
(956,68,l),
(565,68,l),
(646,125,o),
(705,217,o),
(722,320,c),
(890,320,l),
(905,387,l),
(728,387,l),
(728,488,o),
(686,577,o),
(617,632,c),
(1076,632,l),
(1091,700,l),
(448,700,ls),
(242,700,o),
(74,527,o),
(74,314,cs),
(74,131,o),
(201,0,o),
(379,0,cs)
);
},
{
closed = 1;
nodes = (
(244,70,o),
(150,174,o),
(150,318,cs),
(150,487,o),
(279,630,o),
(431,630,cs),
(561,630,o),
(655,526,o),
(655,383,cs),
(655,212,o),
(528,70,o),
(375,70,cs)
);
}
);
width = 1047;
},
{
layerId = "97A2421D-FE16-4A26-AFBB-B9A317B3A2E5";
shapes = (
{
closed = 1;
nodes = (
(939,0,l),
(949,47,l),
(528,47,l),
(629,103,o),
(705,207,o),
(724,330,c),
(889,330,l),
(899,377,l),
(728,377,l),
(728,496,o),
(683,594,o),
(588,653,c),
(1074,653,l),
(1084,700,l),
(437,700,ls),
(242,700,o),
(79,522,o),
(79,312,cs),
(79,135,o),
(202,0,o),
(370,0,cs)
);
},
{
closed = 1;
nodes = (
(229,48,o),
(130,162,o),
(130,314,cs),
(130,497,o),
(271,652,o),
(436,652,cs),
(578,652,o),
(677,538,o),
(677,386,cs),
(677,203,o),
(536,48,o),
(371,48,cs)
);
}
);
width = 1034;
}
);
unicode = 338;
},
{
glyphname = P;
kernLeft = H;
lastChange = "2024-11-12 17:33:39 +0000";
layers = (
{
layerId = m001;
shapes = (
{
closed = 1;
nodes = (
(189,0,l),
(241,244,l),
(425,244,ls),
(580,244,o),
(699,350,o),
(699,489,cs),
(699,617,o),
(608,700,o),
(469,700,cs),
(170,700,l),
(21,0,l)
);
},
{
closed = 1;
nodes = (
(308,558,l),
(429,558,ls),
(491,558,o),
(527,528,o),
(527,477,cs),
(527,419,o),
(481,381,o),
(411,381,cs),
(270,381,l)
);
}
);
width = 696;
},
{
layerId = "92FFDF9D-0EFB-4B63-BEE2-6F342003A4EE";
shapes = (
{
closed = 1;
nodes = (
(109,0,l),
(170,286,l),
(397,286,ls),
(539,286,o),
(642,384,o),
(642,520,cs),
(642,631,o),
(566,700,o),
(445,700,cs),
(183,700,l),
(34,0,l)
);
},
{
closed = 1;
nodes = (
(244,632,l),
(432,632,ls),
(516,632,o),
(567,588,o),
(567,515,cs),
(567,418,o),
(496,352,o),
(394,352,cs),
(184,352,l)
);
}
);
width = 641;
},
{
layerId = "97A2421D-FE16-4A26-AFBB-B9A317B3A2E5";
shapes = (
{
closed = 1;
nodes = (
(90,0,l),
(153,297,l),
(391,297,ls),
(531,297,o),
(630,393,o),
(630,527,cs),
(630,635,o),
(558,700,o),
(441,700,cs),
(188,700,l),
(39,0,l)
);
},
{
closed = 1;
nodes = (
(229,653,l),
(435,653,ls),
(525,653,o),
(579,605,o),
(579,525,cs),
(579,418,o),
(502,344,o),
(391,344,cs),
(163,344,l)
);
}
);
width = 626;
}
);
unicode = 80;
},
{
glyphname = Thorn;
kernLeft = H;
lastChange = "2024-11-12 17:33:39 +0000";
layers = (
{
layerId = m001;
shapes = (
{
closed = 1;
nodes = (
(190,0,l),
(216,123,l),
(376,123,ls),
(529,123,o),
(642,229,o),
(642,373,cs),
(642,498,o),
(554,579,o),
(420,579,cs),
(313,579,l),
(339,700,l),
(171,700,l),
(22,0,l)
);
},
{
closed = 1;
nodes = (
(283,437,l),
(378,437,ls),
(436,437,o),
(470,409,o),
(470,361,cs),
(470,298,o),
(428,260,o),
(360,260,cs),
(245,260,l)
);
}
);
width = 665;
},
{
layerId = "92FFDF9D-0EFB-4B63-BEE2-6F342003A4EE";
shapes = (
{
closed = 1;
nodes = (
(109,0,l),
(141,152,l),
(359,152,ls),
(514,152,o),
(614,242,o),
(614,381,cs),
(614,492,o),
(542,553,o),
(407,553,cs),
(227,553,l),
(258,700,l),
(183,700,l),
(34,0,l)
);
},
{
closed = 1;
nodes = (
(212,485,l),
(396,485,ls),
(493,485,o),
(539,450,o),
(539,376,cs),
(539,275,o),
(473,217,o),
(358,217,cs),
(155,217,l)
);
}
);
width = 650;
},
{
layerId = "97A2421D-FE16-4A26-AFBB-B9A317B3A2E5";
shapes = (
{
closed = 1;
nodes = (
(90,0,l),
(122,149,l),
(370,149,ls),
(510,149,o),
(609,245,o),
(609,379,cs),
(609,487,o),
(537,552,o),
(420,552,cs),
(207,552,l),
(239,700,l),
(188,700,l),
(39,0,l)
);
},
{
closed = 1;
nodes = (
(197,505,l),
(414,505,ls),
(504,505,o),
(558,457,o),
(558,377,cs),
(558,270,o),
(481,196,o),
(370,196,cs),
(132,196,l)
);
}
);
width = 638;
}
);
unicode = 222;
},
{
glyphname = Q;
kernLeft = O;
kernRight = O;
lastChange = "2024-11-12 17:33:39 +0000";
layers = (
{
layerId = m001;
shapes = (
{
closed = 1;
nodes = (
(685,-24,l),
(628,74,l),
(715,146,o),
(772,256,o),
(772,380,cs),
(772,570,o),
(632,711,o),
(444,711,cs),
(235,711,o),
(63,535,o),
(63,320,cs),
(63,130,o),
(204,-11,o),
(392,-11,cs),
(434,-11,o),
(474,-4,o),
(511,9,c),
(544,-46,l)
);
},
{
closed = 1;
nodes = (
(307,142,o),
(237,221,o),
(237,331,cs),
(237,457,o),
(324,558,o),
(433,558,cs),
(529,558,o),
(599,479,o),
(599,369,cs),
(599,310,o),
(580,256,o),
(548,216,c),
(516,272,l),
(376,250,l),
(435,145,l),
(425,143,o),
(414,142,o),
(403,142,cs)
);
}
);
userData = {
com.typemytype.robofont.guideline.magnetic.biOKLUprQS = 5;
com.typemytype.robofont.guideline.magnetic.lqUJpaHxAy = 5;
com.typemytype.robofont.guideline.magnetic.ydRjl4VIfo = 5;
};
width = 797;
},
{
layerId = "92FFDF9D-0EFB-4B63-BEE2-6F342003A4EE";
shapes = (
{
closed = 1;
nodes = (
(676,-21,l),
(618,74,l),
(703,146,o),
(759,257,o),
(759,380,cs),
(759,568,o),
(623,711,o),
(442,711,cs),
(242,711,o),
(75,533,o),
(75,320,cs),
(75,132,o),
(212,-11,o),
(392,-11,cs),
(453,-11,o),
(511,6,o),
(562,35,c),
(599,-26,l)
);
},
{
closed = 1;
nodes = (
(256,59,o),
(151,173,o),
(151,324,cs),
(151,497,o),
(280,641,o),
(438,641,cs),
(578,641,o),
(683,528,o),
(683,376,cs),
(683,279,o),
(643,192,o),
(581,134,c),
(524,226,l),
(448,222,l),
(526,94,l),
(487,71,o),
(443,59,o),
(397,59,cs)
);
}
);
userData = {
com.typemytype.robofont.guideline.magnetic.biOKLUprQS = 5;
com.typemytype.robofont.guideline.magnetic.lqUJpaHxAy = 5;
com.typemytype.robofont.guideline.magnetic.ydRjl4VIfo = 5;
};
width = 795;
},
{
layerId = "97A2421D-FE16-4A26-AFBB-B9A317B3A2E5";
shapes = (
{
closed = 1;
nodes = (
(656,-16,l),
(603,67,l),
(697,140,o),
(761,258,o),
(761,390,cs),
(761,571,o),
(632,711,o),
(458,711,cs),
(257,711,o),
(79,531,o),
(79,310,cs),
(79,129,o),
(208,-11,o),
(382,-11,cs),
(448,-11,o),
(511,8,o),
(567,42,c),
(606,-20,l)
);
},
{
closed = 1;
nodes = (
(230,37,o),
(130,161,o),
(130,309,cs),
(130,498,o),
(277,663,o),
(453,663,cs),
(610,663,o),
(710,539,o),
(710,391,cs),
(710,278,o),
(657,173,o),
(577,107,c),
(508,216,l),
(459,212,l),
(541,82,l),
(495,53,o),
(443,37,o),
(387,37,cs)
);
}
);
userData = {
com.typemytype.robofont.guideline.magnetic.biOKLUprQS = 5;
com.typemytype.robofont.guideline.magnetic.lqUJpaHxAy = 5;
com.typemytype.robofont.guideline.magnetic.ydRjl4VIfo = 5;
};
width = 792;
}
);
unicode = 81;
},
{
glyphname = R;
kernLeft = H;
kernRight = R;
lastChange = "2024-11-12 17:33:39 +0000";
layers = (
{
anchors = (
{
name = bottom;
pos = (293,0);
},
{
name = top;
pos = (428,700);
}
);
layerId = m001;
shapes = (
{
closed = 1;
nodes = (
(189,0,l),
(244,259,l),
(359,259,l),
(444,0,l),
(622,0,l),
(521,271,l),
(625,302,o),
(699,391,o),
(699,497,cs),
(699,617,o),
(609,700,o),
(478,700,cs),
(170,700,l),
(21,0,l)
);
},
{
closed = 1;
nodes = (
(308,558,l),
(448,558,ls),
(496,558,o),
(527,529,o),
(527,482,cs),
(527,431,o),
(486,394,o),
(431,394,cs),
(273,394,l)
);
}
);
width = 689;
},
{
anchors = (
{
name = bottom;
pos = (259,0);
},
{
name = top;
pos = (405,700);
}
);
layerId = "92FFDF9D-0EFB-4B63-BEE2-6F342003A4EE";
shapes = (
{
closed = 1;
nodes = (
(109,0,l),
(173,299,l),
(375,299,l),
(463,0,l),
(542,0,l),
(451,304,l),
(563,324,o),
(640,411,o),
(640,523,cs),
(640,631,o),
(565,700,o),
(446,700,cs),
(183,700,l),
(34,0,l)
);
},
{
closed = 1;
nodes = (
(244,632,l),
(435,632,ls),
(515,632,o),
(565,588,o),
(565,518,cs),
(565,427,o),
(495,363,o),
(397,363,cs),
(186,363,l)
);
}
);
width = 634;
},
{
anchors = (
{
name = bottom;
pos = (252,0);
},
{
name = top;
pos = (401,700);
}
);
layerId = "97A2421D-FE16-4A26-AFBB-B9A317B3A2E5";
shapes = (
{
closed = 1;
nodes = (
(90,0,l),
(156,308,l),
(386,308,l),
(472,0,l),
(523,0,l),
(436,311,l),
(550,329,o),
(628,414,o),
(628,529,cs),
(628,635,o),
(556,700,o),
(440,700,cs),
(188,700,l),
(39,0,l)
);
},
{
closed = 1;
nodes = (
(229,653,l),
(433,653,ls),
(522,653,o),
(577,605,o),
(577,527,cs),
(577,426,o),
(499,355,o),
(390,355,cs),
(166,355,l)
);
}
);
width = 619;
}
);
unicode = 82;
},
{
glyphname = S;
kernLeft = S;
kernRight = S;
lastChange = "2024-11-12 17:33:39 +0000";
layers = (
{
anchors = (
{
name = bottom;
pos = (302,0);
},
{
name = top;
pos = (352,700);
}
);
layerId = m001;
shapes = (
{
closed = 1;
nodes = (
(489,-10,o),
(606,87,o),
(606,228,cs),
(606,319,o),
(547,382,o),
(437,410,cs),
(305,443,ls),
(255,457,o),
(234,475,o),
(234,504,cs),
(234,545,o),
(271,571,o),
(328,571,cs),
(409,571,o),
(478,541,o),
(540,479,c),
(642,597,l),
(570,669,o),
(460,710,o),
(340,710,cs),
(177,710,o),
(73,622,o),
(73,482,cs),
(73,398,o),
(124,337,o),
(217,310,cs),
(358,273,ls),
(418,255,o),
(438,238,o),
(438,205,cs),
(438,159,o),
(396,128,o),
(333,128,cs),
(260,128,o),
(194,160,o),
(105,238,c),
(3,118,l),
(95,30,o),
(195,-10,o),
(320,-10,cs)
);
}
);
userData = {
SBAlt = right;
};
width = 642;
},
{
anchors = (
{
name = bottom;
pos = (291,0);
},
{
name = top;
pos = (356,700);
}
);
layerId = "92FFDF9D-0EFB-4B63-BEE2-6F342003A4EE";
shapes = (
{
closed = 1;
nodes = (
(460,-10,o),
(566,79,o),
(566,209,cs),
(566,295,o),
(511,347,o),
(385,382,cs),
(280,408,ls),
(202,429,o),
(166,464,o),
(166,521,cs),
(166,595,o),
(231,644,o),
(330,644,cs),
(415,644,o),
(499,608,o),
(564,544,c),
(612,599,l),
(539,670,o),
(439,709,o),
(333,709,cs),
(188,709,o),
(92,630,o),
(92,511,cs),
(92,427,o),
(145,369,o),
(249,342,cs),
(356,315,ls),
(455,287,o),
(491,256,o),
(491,198,cs),
(491,115,o),
(413,54,o),
(308,54,cs),
(224,54,o),
(148,96,o),
(68,183,c),
(17,131,l),
(97,38,o),
(196,-10,o),
(306,-10,cs)
);
}
);
userData = {
SBAlt = right;
};
width = 612;
},
{
anchors = (
{
name = bottom;
pos = (298,0);
},
{
name = top;
pos = (359,700);
}
);
layerId = "97A2421D-FE16-4A26-AFBB-B9A317B3A2E5";
shapes = (
{
closed = 1;
nodes = (
(452,-11,o),
(556,76,o),
(556,198,cs),
(556,287,o),
(500,342,o),
(373,374,cs),
(275,399,ls),
(190,421,o),
(150,461,o),
(150,525,cs),
(150,608,o),
(223,663,o),
(332,663,cs),
(418,663,o),
(506,625,o),
(572,561,c),
(606,599,l),
(529,672,o),
(434,711,o),
(334,711,cs),
(193,711,o),
(99,636,o),
(99,521,cs),
(99,436,o),
(154,378,o),
(260,351,cs),
(358,326,ls),
(464,299,o),
(505,261,o),
(505,194,cs),
(505,102,o),
(422,37,o),
(307,37,cs),
(216,37,o),
(118,82,o),
(59,171,c),
(22,136,l),
(91,38,o),
(203,-11,o),
(306,-11,cs)
);
}
);
userData = {
SBAlt = right;
};
width = 604;
}
);
note = "Version created Fri Aug  3 17:49:29 2018";
unicode = 83;
},
{
glyphname = Scedilla;
kernLeft = S;
kernRight = S;
lastChange = "2024-11-12 17:33:39 +0000";
layers = (
{
layerId = m001;
shapes = (
{
closed = 1;
nodes = (
(335,-253,o),
(396,-201,o),
(396,-136,cs),
(396,-94,o),
(365,-66,o),
(311,-59,c),
(333,-10,l),
(495,-5,o),
(606,91,o),
(606,228,cs),
(606,319,o),
(547,382,o),
(437,410,cs),
(305,443,ls),
(255,457,o),
(234,475,o),
(234,504,cs),
(234,545,o),
(271,571,o),
(328,571,cs),
(409,571,o),
(478,541,o),
(540,479,c),
(642,597,l),
(570,669,o),
(460,710,o),
(340,710,cs),
(177,710,o),
(73,622,o),
(73,482,cs),
(73,398,o),
(124,337,o),
(217,310,cs),
(358,273,ls),
(418,255,o),
(438,238,o),
(438,205,cs),
(438,159,o),
(396,128,o),
(333,128,cs),
(260,128,o),
(194,160,o),
(105,238,c),
(3,118,l),
(80,44,o),
(163,4,o),
(261,-7,c),
(217,-109,l),
(258,-109,ls),
(289,-109,o),
(309,-123,o),
(309,-144,cs),
(309,-167,o),
(288,-182,o),
(256,-182,cs),
(226,-182,o),
(198,-170,o),
(179,-150,c),
(124,-205,l),
(154,-238,o),
(198,-253,o),
(258,-253,cs)
);
}
);
width = 642;
},
{
layerId = "92FFDF9D-0EFB-4B63-BEE2-6F342003A4EE";
shapes = (
{
closed = 1;
nodes = (
(315,-239,o),
(365,-195,o),
(365,-138,cs),
(365,-97,o),
(335,-71,o),
(284,-66,c),
(309,-10,l),
(460,-10,o),
(566,79,o),
(566,209,cs),
(566,295,o),
(511,347,o),
(385,382,cs),
(280,408,ls),
(202,429,o),
(166,464,o),
(166,521,cs),
(166,595,o),
(231,644,o),
(330,644,cs),
(415,644,o),
(499,608,o),
(564,544,c),
(612,599,l),
(539,670,o),
(439,709,o),
(333,709,cs),
(188,709,o),
(92,630,o),
(92,511,cs),
(92,427,o),
(145,369,o),
(249,342,cs),
(356,315,ls),
(455,287,o),
(491,256,o),
(491,198,cs),
(491,115,o),
(413,54,o),
(308,54,cs),
(224,54,o),
(148,96,o),
(68,183,c),
(17,131,l),
(88,49,o),
(173,2,o),
(267,-8,c),
(227,-99,l),
(255,-99,ls),
(295,-99,o),
(319,-116,o),
(319,-144,cs),
(319,-177,o),
(291,-199,o),
(247,-199,cs),
(218,-199,o),
(194,-189,o),
(174,-167,c),
(143,-197,l),
(165,-224,o),
(204,-239,o),
(249,-239,cs)
);
}
);
width = 612;
},
{
layerId = "97A2421D-FE16-4A26-AFBB-B9A317B3A2E5";
shapes = (
{
closed = 1;
nodes = (
(316,-235,o),
(364,-195,o),
(364,-138,cs),
(364,-99,o),
(336,-72,o),
(283,-68,c),
(308,-11,l),
(453,-11,o),
(557,76,o),
(557,198,cs),
(557,287,o),
(500,342,o),
(373,374,cs),
(275,399,ls),
(190,421,o),
(150,461,o),
(150,525,cs),
(150,608,o),
(223,663,o),
(332,663,cs),
(418,663,o),
(506,625,o),
(572,561,c),
(606,599,l),
(529,672,o),
(433,711,o),
(333,711,cs),
(192,711,o),
(99,636,o),
(99,521,cs),
(99,436,o),
(154,378,o),
(260,351,cs),
(358,326,ls),
(464,299,o),
(506,261,o),
(506,194,cs),
(506,102,o),
(425,37,o),
(310,37,cs),
(219,37,o),
(119,82,o),
(60,171,c),
(23,136,l),
(85,48,o),
(182,-1,o),
(276,-10,c),
(237,-96,l),
(261,-96,ls),
(302,-96,o),
(329,-113,o),
(329,-144,cs),
(329,-178,o),
(302,-204,o),
(252,-204,cs),
(223,-204,o),
(200,-194,o),
(179,-171,c),
(155,-195,l),
(173,-217,o),
(208,-235,o),
(254,-235,cs)
);
}
);
width = 604;
}
);
unicode = 350;
},
{
color = 5;
glyphname = Germandbls;
lastChange = "2024-11-12 20:36:19 +0000";
layers = (
{
anchors = (
{
name = bottom;
pos = (261,0);
},
{
name = top;
pos = (410,700);
}
);
layerId = "97A2421D-FE16-4A26-AFBB-B9A317B3A2E5";
shapes = (
{
closed = 1;
nodes = (
(459,-11,o),
(566,83,o),
(566,193,cs),
(566,248,o),
(538,293,o),
(473,328,cs),
(419,357,o),
(398,374,o),
(398,395,cs),
(398,412,o),
(410,427,o),
(462,478,cs),
(627,641,l),
(640,700,l),
(189,700,l),
(40,0,l),
(92,0,l),
(231,653,l),
(576,653,l),
(411,485,ls),
(361,434,o),
(345,415,o),
(345,384,cs),
(345,351,o),
(371,326,o),
(435,288,cs),
(489,256,o),
(514,227,o),
(514,184,cs),
(514,104,o),
(439,33,o),
(354,33,cs),
(301,33,o),
(250,57,o),
(222,96,c),
(184,53,l),
(222,6,o),
(269,-11,o),
(346,-11,cs)
);
}
);
width = 635;
},
{
anchors = (
{
name = bottom;
pos = (260,0);
},
{
name = top;
pos = (409,700);
}
);
layerId = "92FFDF9D-0EFB-4B63-BEE2-6F342003A4EE";
shapes = (
{
closed = 1;
nodes = (
(463,-11,o),
(588,70,o),
(588,194,cs),
(588,247,o),
(562,291,o),
(504,323,cs),
(444,356,o),
(428,369,o),
(428,386,cs),
(428,403,o),
(443,425,o),
(477,458,cs),
(633,611,l),
(652,700,l),
(181,700,l),
(32,0,l),
(109,0,l),
(244,636,l),
(567,636,l),
(419,485,ls),
(381,446,o),
(351,415,o),
(351,373,cs),
(351,339,o),
(377,315,o),
(439,278,cs),
(491,247,o),
(510,225,o),
(510,189,cs),
(510,99,o),
(430,55,o),
(371,55,cs),
(322,55,o),
(278,76,o),
(246,110,c),
(194,51,l),
(233,13,o),
(293,-11,o),
(358,-11,cs)
);
}
);
width = 659;
},
{
anchors = (
{
name = bottom;
pos = (265,0);
},
{
name = top;
pos = (414,700);
}
);
layerId = m001;
shapes = (
{
closed = 1;
nodes = (
(522,-11,o),
(646,75,o),
(646,224,cs),
(646,274,o),
(625,315,o),
(579,337,cs),
(540,356,o),
(522,370,o),
(522,388,cs),
(522,405,o),
(537,428,o),
(556,448,cs),
(702,602,l),
(723,700,l),
(160,700,l),
(11,0,l),
(179,0,l),
(299,566,l),
(489,566,l),
(408,475,ls),
(375,438,o),
(342,387,o),
(342,341,cs),
(342,302,o),
(364,269,o),
(404,249,cs),
(456,223,o),
(475,209,o),
(475,187,cs),
(475,150,o),
(449,132,o),
(413,132,cs),
(386,132,o),
(370,139,o),
(335,171,c),
(240,42,l),
(284,5,o),
(337,-11,o),
(397,-11,cs)
);
}
);
width = 701;
}
);
metricLeft = H;
metricRight = O;
unicode = 7838;
},
{
glyphname = T;
kernLeft = T;
kernRight = T;
lastChange = "2024-11-12 17:33:39 +0000";
layers = (
{
anchors = (
{
name = bottom;
pos = (270,0);
},
{
name = top;
pos = (419,700);
}
);
layerId = m001;
shapes = (
{
closed = 1;
nodes = (
(355,0,l),
(473,553,l),
(691,553,l),
(724,700,l),
(114,700,l),
(81,553,l),
(304,553,l),
(186,0,l)
);
}
);
width = 652;
},
{
anchors = (
{
name = bottom;
pos = (249,0);
},
{
name = top;
pos = (398,700);
}
);
layerId = "92FFDF9D-0EFB-4B63-BEE2-6F342003A4EE";
shapes = (
{
closed = 1;
nodes = (
(286,0,l),
(421,632,l),
(656,632,l),
(671,700,l),
(123,700,l),
(108,632,l),
(346,632,l),
(211,0,l)
);
}
);
width = 605;
},
{
anchors = (
{
name = bottom;
pos = (245,0);
},
{
name = top;
pos = (394,700);
}
);
layerId = "97A2421D-FE16-4A26-AFBB-B9A317B3A2E5";
shapes = (
{
closed = 1;
nodes = (
(270,0,l),
(409,653,l),
(649,653,l),
(659,700,l),
(128,700,l),
(118,653,l),
(358,653,l),
(219,0,l)
);
}
);
width = 592;
}
);
unicode = 84;
},
{
glyphname = Tbar;
kernLeft = T;
kernRight = T;
lastChange = "2024-11-12 17:33:39 +0000";
layers = (
{
layerId = m001;
shapes = (
{
closed = 1;
nodes = (
(355,0,l),
(410,259,l),
(533,259,l),
(559,379,l),
(436,379,l),
(473,553,l),
(691,553,l),
(724,700,l),
(114,700,l),
(81,553,l),
(304,553,l),
(267,379,l),
(144,379,l),
(118,259,l),
(241,259,l),
(186,0,l)
);
}
);
width = 652;
},
{
layerId = "92FFDF9D-0EFB-4B63-BEE2-6F342003A4EE";
shapes = (
{
closed = 1;
nodes = (
(286,0,l),
(352,308,l),
(502,308,l),
(517,370,l),
(365,370,l),
(421,632,l),
(656,632,l),
(671,700,l),
(123,700,l),
(108,632,l),
(346,632,l),
(290,370,l),
(139,370,l),
(124,308,l),
(277,308,l),
(211,0,l)
);
}
);
width = 605;
},
{
layerId = "97A2421D-FE16-4A26-AFBB-B9A317B3A2E5";
shapes = (
{
closed = 1;
nodes = (
(270,0,l),
(340,329,l),
(499,329,l),
(508,373,l),
(349,373,l),
(409,653,l),
(649,653,l),
(659,700,l),
(128,700,l),
(118,653,l),
(358,653,l),
(298,373,l),
(139,373,l),
(130,329,l),
(289,329,l),
(219,0,l)
);
}
);
width = 592;
}
);
unicode = 358;
},
{
glyphname = Tcedilla;
kernLeft = T;
kernRight = T;
lastChange = "2024-11-12 17:33:39 +0000";
layers = (
{
layerId = m001;
shapes = (
{
closed = 1;
nodes = (
(303,-253,o),
(364,-201,o),
(364,-136,cs),
(364,-94,o),
(333,-66,o),
(279,-59,c),
(305,0,l),
(355,0,l),
(473,553,l),
(691,553,l),
(724,700,l),
(114,700,l),
(81,553,l),
(304,553,l),
(186,0,l),
(232,0,l),
(185,-109,l),
(226,-109,ls),
(257,-109,o),
(277,-123,o),
(277,-144,cs),
(277,-167,o),
(256,-182,o),
(224,-182,cs),
(194,-182,o),
(166,-170,o),
(147,-150,c),
(92,-205,l),
(122,-238,o),
(166,-253,o),
(226,-253,cs)
);
}
);
width = 652;
},
{
layerId = "92FFDF9D-0EFB-4B63-BEE2-6F342003A4EE";
shapes = (
{
closed = 1;
nodes = (
(273,-239,o),
(323,-195,o),
(323,-138,cs),
(323,-97,o),
(293,-71,o),
(242,-66,c),
(271,0,l),
(286,0,l),
(421,632,l),
(656,632,l),
(671,700,l),
(123,700,l),
(108,632,l),
(346,632,l),
(211,0,l),
(229,0,l),
(185,-99,l),
(213,-99,ls),
(253,-99,o),
(277,-116,o),
(277,-144,cs),
(277,-177,o),
(249,-199,o),
(205,-199,cs),
(176,-199,o),
(152,-189,o),
(132,-167,c),
(101,-197,l),
(123,-224,o),
(162,-239,o),
(207,-239,cs)
);
}
);
width = 605;
},
{
layerId = "97A2421D-FE16-4A26-AFBB-B9A317B3A2E5";
shapes = (
{
closed = 1;
nodes = (
(263,-235,o),
(311,-195,o),
(311,-138,cs),
(311,-99,o),
(283,-72,o),
(230,-68,c),
(260,0,l),
(270,0,l),
(409,653,l),
(649,653,l),
(659,700,l),
(128,700,l),
(118,653,l),
(358,653,l),
(219,0,l),
(227,0,l),
(184,-96,l),
(208,-96,ls),
(249,-96,o),
(276,-113,o),
(276,-144,cs),
(276,-178,o),
(249,-204,o),
(199,-204,cs),
(170,-204,o),
(147,-194,o),
(126,-171,c),
(102,-195,l),
(120,-217,o),
(155,-235,o),
(201,-235,cs)
);
}
);
width = 592;
}
);
unicode = 354;
},
{
glyphname = U;
kernLeft = U;
kernRight = U;
lastChange = "2024-11-12 17:33:39 +0000";
layers = (
{
anchors = (
{
name = bottom;
pos = (418,0);
},
{
name = top;
pos = (447,700);
}
);
layerId = m001;
shapes = (
{
closed = 1;
nodes = (
(511,-11,o),
(635,95,o),
(672,270,cs),
(764,700,l),
(596,700,l),
(508,287,ls),
(489,200,o),
(427,142,o),
(353,142,cs),
(264,142,o),
(220,211,o),
(243,317,cs),
(325,700,l),
(156,700,l),
(78,335,ls),
(34,129,o),
(140,-11,o),
(341,-11,cs)
);
}
);
width = 734;
},
{
anchors = (
{
name = bottom;
pos = (396,0);
},
{
name = top;
pos = (438,700);
}
);
layerId = "92FFDF9D-0EFB-4B63-BEE2-6F342003A4EE";
shapes = (
{
closed = 1;
nodes = (
(480,-11,o),
(590,96,o),
(631,289,cs),
(719,700,l),
(644,700,l),
(557,293,ls),
(525,146,o),
(439,59,o),
(325,59,cs),
(198,59,o),
(129,158,o),
(159,299,cs),
(245,700,l),
(169,700,l),
(85,303,ls),
(45,119,o),
(143,-11,o),
(322,-11,cs)
);
}
);
width = 698;
},
{
anchors = (
{
name = bottom;
pos = (392,0);
},
{
name = top;
pos = (442,700);
}
);
guides = (
{
pos = (590,700);
userData = {
UFO.identifier = TcwAtxIWG3;
};
}
);
layerId = "97A2421D-FE16-4A26-AFBB-B9A317B3A2E5";
shapes = (
{
closed = 1;
nodes = (
(467,-11,o),
(578,88,o),
(619,279,cs),
(709,700,l),
(658,700,l),
(570,289,ls),
(534,120,o),
(442,37,o),
(314,37,cs),
(177,37,o),
(106,139,o),
(138,289,cs),
(226,700,l),
(175,700,l),
(89,299,ls),
(51,120,o),
(145,-11,o),
(315,-11,cs)
);
}
);
width = 688;
}
);
unicode = 85;
},
{
glyphname = Uogonek;
kernLeft = U;
kernRight = U;
lastChange = "2024-11-12 17:33:39 +0000";
layers = (
{
layerId = m001;
shapes = (
{
closed = 1;
nodes = (
(344,-231,o),
(380,-222,o),
(405,-208,c),
(400,-138,l),
(389,-145,o),
(371,-149,o),
(353,-149,cs),
(328,-149,o),
(313,-136,o),
(313,-113,cs),
(313,-77,o),
(347,-39,o),
(414,-2,c),
(547,24,o),
(641,123,o),
(673,272,cs),
(764,700,l),
(596,700,l),
(509,289,ls),
(491,202,o),
(428,144,o),
(354,144,cs),
(265,144,o),
(221,213,o),
(244,319,cs),
(325,700,l),
(156,700,l),
(79,337,ls),
(36,138,o),
(134,0,o),
(323,-9,c),
(255,-53,o),
(221,-100,o),
(221,-153,cs),
(221,-201,o),
(255,-231,o),
(309,-231,cs)
);
}
);
width = 734;
},
{
layerId = "92FFDF9D-0EFB-4B63-BEE2-6F342003A4EE";
shapes = (
{
closed = 1;
nodes = (
(333,-232,o),
(357,-227,o),
(375,-218,c),
(371,-178,l),
(358,-183,o),
(339,-187,o),
(325,-187,cs),
(290,-187,o),
(265,-168,o),
(265,-139,cs),
(265,-93,o),
(305,-51,o),
(388,-4,c),
(511,22,o),
(596,124,o),
(631,289,cs),
(719,700,l),
(644,700,l),
(557,293,ls),
(525,146,o),
(439,59,o),
(325,59,cs),
(198,59,o),
(129,158,o),
(159,299,cs),
(245,700,l),
(169,700,l),
(85,303,ls),
(45,120,o),
(142,-9,o),
(318,-11,c),
(249,-56,o),
(214,-103,o),
(214,-154,cs),
(214,-201,o),
(252,-232,o),
(309,-232,cs)
);
}
);
width = 698;
},
{
layerId = "97A2421D-FE16-4A26-AFBB-B9A317B3A2E5";
shapes = (
{
closed = 1;
nodes = (
(333,-232,o),
(354,-227,o),
(369,-220,c),
(366,-188,l),
(353,-193,o),
(334,-197,o),
(320,-197,cs),
(282,-197,o),
(255,-176,o),
(255,-146,cs),
(255,-103,o),
(285,-58,o),
(386,-3,c),
(502,24,o),
(585,119,o),
(619,279,cs),
(709,700,l),
(658,700,l),
(570,289,ls),
(534,120,o),
(442,37,o),
(314,37,cs),
(177,37,o),
(106,139,o),
(138,289,cs),
(226,700,l),
(175,700,l),
(89,299,ls),
(51,120,o),
(142,-11,o),
(320,-11,c),
(240,-62,o),
(215,-110,o),
(215,-154,cs),
(215,-195,o),
(247,-232,o),
(312,-232,cs)
);
}
);
width = 688;
}
);
unicode = 370;
},
{
glyphname = V;
lastChange = "2024-11-12 17:33:39 +0000";
layers = (
{
layerId = m001;
shapes = (
{
closed = 1;
nodes = (
(406,0,l),
(818,700,l),
(635,700,l),
(345,179,l),
(270,700,l),
(95,700,l),
(213,0,l)
);
}
);
width = 727;
},
{
layerId = "92FFDF9D-0EFB-4B63-BEE2-6F342003A4EE";
shapes = (
{
closed = 1;
nodes = (
(318,0,l),
(733,700,l),
(651,700,l),
(285,72,l),
(181,700,l),
(105,700,l),
(227,0,l)
);
}
);
width = 647;
},
{
layerId = "97A2421D-FE16-4A26-AFBB-B9A317B3A2E5";
shapes = (
{
closed = 1;
nodes = (
(297,0,l),
(713,700,l),
(657,700,l),
(271,45,l),
(159,700,l),
(109,700,l),
(233,0,l)
);
}
);
width = 626;
}
);
unicode = 86;
},
{
glyphname = W;
kernLeft = W;
kernRight = W;
lastChange = "2024-11-12 17:33:39 +0000";
layers = (
{
anchors = (
{
name = top;
pos = (573,700);
}
);
guides = (
{
pos = (572,700);
userData = {
UFO.identifier = r7qwBTk1Cp;
};
}
);
layerId = m001;
shapes = (
{
closed = 1;
nodes = (
(305,0,l),
(521,452,l),
(547,0,l),
(726,0,l),
(1027,700,l),
(854,700,l),
(679,267,l),
(651,700,l),
(493,700,l),
(282,265,l),
(290,700,l),
(123,700,l),
(127,0,l)
);
}
);
width = 964;
},
{
anchors = (
{
name = top;
pos = (532,700);
}
);
layerId = "92FFDF9D-0EFB-4B63-BEE2-6F342003A4EE";
shapes = (
{
closed = 1;
nodes = (
(212,0,l),
(512,594,l),
(560,0,l),
(637,0,l),
(934,700,l),
(857,700,l),
(618,124,l),
(570,700,l),
(497,700,l),
(206,124,l),
(210,700,l),
(136,700,l),
(136,0,l)
);
}
);
width = 879;
},
{
anchors = (
{
name = top;
pos = (525,700);
}
);
guides = (
{
pos = (673,700);
userData = {
UFO.identifier = r7qwBTk1Cp;
};
}
);
layerId = "97A2421D-FE16-4A26-AFBB-B9A317B3A2E5";
shapes = (
{
closed = 1;
nodes = (
(209,0,l),
(511,626,l),
(546,0,l),
(595,0,l),
(911,700,l),
(859,700,l),
(586,88,l),
(551,700,l),
(500,700,l),
(207,93,l),
(192,700,l),
(142,700,l),
(160,0,l)
);
}
);
width = 857;
}
);
unicode = 87;
},
{
glyphname = X;
kernRight = K;
lastChange = "2024-11-12 17:33:39 +0000";
layers = (
{
layerId = m001;
shapes = (
{
closed = 1;
nodes = (
(157,0,l),
(367,233,l),
(484,0,l),
(674,0,l),
(487,354,l),
(814,700,l),
(610,700,l),
(417,486,l),
(309,700,l),
(119,700,l),
(297,363,l),
(-46,0,l)
);
}
);
userData = {
SBAlt = left;
};
width = 742;
},
{
layerId = "92FFDF9D-0EFB-4B63-BEE2-6F342003A4EE";
shapes = (
{
closed = 1;
nodes = (
(51,0,l),
(334,304,l),
(490,0,l),
(574,0,l),
(387,359,l),
(710,700,l),
(615,700,l),
(354,422,l),
(212,700,l),
(127,700,l),
(300,367,l),
(-46,0,l)
);
}
);
userData = {
SBAlt = left;
};
width = 641;
},
{
layerId = "97A2421D-FE16-4A26-AFBB-B9A317B3A2E5";
shapes = (
{
closed = 1;
nodes = (
(23,0,l),
(330,326,l),
(498,0,l),
(553,0,l),
(366,361,l),
(687,700,l),
(622,700,l),
(342,403,l),
(189,700,l),
(134,700,l),
(306,368,l),
(-41,0,l)
);
}
);
userData = {
SBAlt = left;
};
width = 615;
}
);
unicode = 88;
},
{
glyphname = Y;
kernLeft = Y;
kernRight = Y;
lastChange = "2024-11-12 17:33:39 +0000";
layers = (
{
anchors = (
{
name = top;
pos = (440,700);
}
);
layerId = m001;
shapes = (
{
closed = 1;
nodes = (
(390,0,l),
(446,266,l),
(818,700,l),
(620,700,l),
(386,414,l),
(271,700,l),
(92,700,l),
(277,265,l),
(221,0,l)
);
}
);
userData = {
SBAlt = right;
};
width = 724;
},
{
anchors = (
{
name = top;
pos = (399,700);
}
);
layerId = "92FFDF9D-0EFB-4B63-BEE2-6F342003A4EE";
shapes = (
{
closed = 1;
nodes = (
(300,0,l),
(360,283,l),
(717,700,l),
(627,700,l),
(334,353,l),
(187,700,l),
(107,700,l),
(285,287,l),
(224,0,l)
);
}
);
userData = {
SBAlt = right;
};
width = 633;
},
{
anchors = (
{
name = top;
pos = (398,700);
}
);
guides = (
{
pos = (546,700);
userData = {
UFO.identifier = mZjb9W0mZR;
};
}
);
layerId = "97A2421D-FE16-4A26-AFBB-B9A317B3A2E5";
shapes = (
{
closed = 1;
nodes = (
(278,0,l),
(339,288,l),
(692,700,l),
(630,700,l),
(321,336,l),
(167,700,l),
(113,700,l),
(289,291,l),
(227,0,l)
);
}
);
userData = {
SBAlt = right;
};
width = 609;
}
);
unicode = 89;
},
{
glyphname = Z;
kernLeft = Z;
kernRight = Z;
lastChange = "2024-11-12 17:33:39 +0000";
layers = (
{
anchors = (
{
name = top;
pos = (375,700);
}
);
layerId = m001;
shapes = (
{
closed = 1;
nodes = (
(531,0,l),
(563,144,l),
(231,141,l),
(652,588,l),
(677,700,l),
(124,700,l),
(92,556,l),
(419,559,l),
(-2,112,l),
(-27,0,l)
);
}
);
width = 610;
},
{
anchors = (
{
name = top;
pos = (367,700);
}
);
layerId = "92FFDF9D-0EFB-4B63-BEE2-6F342003A4EE";
shapes = (
{
closed = 1;
nodes = (
(507,0,l),
(522,67,l),
(97,65,l),
(635,646,l),
(648,700,l),
(134,700,l),
(120,633,l),
(533,635,l),
(-5,54,l),
(-17,0,l)
);
}
);
width = 593;
},
{
anchors = (
{
name = top;
pos = (367,700);
}
);
layerId = "97A2421D-FE16-4A26-AFBB-B9A317B3A2E5";
shapes = (
{
closed = 1;
nodes = (
(503,0,l),
(513,47,l),
(69,47,l),
(634,661,l),
(642,700,l),
(139,700,l),
(129,653,l),
(561,653,l),
(-4,39,l),
(-12,0,l)
);
}
);
width = 588;
}
);
unicode = 90;
},
{
glyphname = a;
kernLeft = a;
kernRight = n;
lastChange = "2024-11-12 17:33:39 +0000";
layers = (
{
anchors = (
{
name = bottom;
pos = (455,0);
},
{
name = top;
pos = (314,516);
}
);
layerId = m001;
shapes = (
{
closed = 1;
nodes = (
(222,-4,o),
(258,9,o),
(308,44,c),
(298,0,l),
(455,0,l),
(521,303,ls),
(551,440,o),
(469,523,o),
(305,523,cs),
(244,523,o),
(176,509,o),
(95,480,c),
(131,366,l),
(187,384,o),
(227,392,o),
(262,392,cs),
(343,392,o),
(376,363,o),
(363,302,cs),
(358,277,l),
(317,292,o),
(271,301,o),
(227,301,cs),
(97,301,o),
(18,238,o),
(18,135,cs),
(18,49,o),
(79,-4,o),
(177,-4,cs)
);
},
{
closed = 1;
nodes = (
(191,100,o),
(163,118,o),
(163,148,cs),
(163,185,o),
(193,206,o),
(248,206,cs),
(281,206,o),
(314,202,o),
(340,195,c),
(324,122,l),
(298,107,o),
(271,100,o),
(241,100,cs)
);
}
);
width = 570;
},
{
anchors = (
{
name = bottom;
pos = (394,0);
},
{
name = top;
pos = (295,488);
}
);
layerId = "92FFDF9D-0EFB-4B63-BEE2-6F342003A4EE";
shapes = (
{
closed = 1;
nodes = (
(241,-7,o),
(287,10,o),
(333,46,c),
(323,0,l),
(394,0,l),
(462,305,ls),
(488,423,o),
(423,495,o),
(292,495,cs),
(239,495,o),
(183,482,o),
(119,455,c),
(139,398,l),
(196,424,o),
(239,435,o),
(279,435,cs),
(372,435,o),
(410,389,o),
(390,299,cs),
(377,240,l),
(335,270,o),
(279,287,o),
(216,287,cs),
(105,287,o),
(29,223,o),
(29,130,cs),
(29,47,o),
(94,-7,o),
(191,-7,cs)
);
},
{
closed = 1;
nodes = (
(140,48,o),
(98,81,o),
(98,138,cs),
(98,193,o),
(150,233,o),
(223,233,cs),
(283,233,o),
(328,220,o),
(366,191,c),
(345,98,l),
(302,64,o),
(260,48,o),
(212,48,cs)
);
}
);
width = 516;
},
{
anchors = (
{
name = bottom;
pos = (380,0);
},
{
name = top;
pos = (295,481);
}
);
layerId = "97A2421D-FE16-4A26-AFBB-B9A317B3A2E5";
shapes = (
{
closed = 1;
nodes = (
(250,-10,o),
(298,10,o),
(342,46,c),
(332,0,l),
(380,0,l),
(448,305,ls),
(476,429,o),
(402,489,o),
(287,489,cs),
(237,489,o),
(186,477,o),
(123,448,c),
(141,408,l),
(199,434,o),
(243,447,o),
(284,447,cs),
(388,447,o),
(419,392,o),
(398,296,cs),
(383,228,l),
(344,264,o),
(283,282,o),
(215,282,cs),
(110,282,o),
(35,219,o),
(35,130,cs),
(35,47,o),
(101,-10,o),
(197,-10,cs)
);
},
{
closed = 1;
nodes = (
(123,32,o),
(82,74,o),
(82,135,cs),
(82,195,o),
(141,240,o),
(219,240,cs),
(288,240,o),
(335,224,o),
(374,189,c),
(352,91,l),
(308,53,o),
(262,32,o),
(206,32,cs)
);
}
);
width = 502;
}
);
note = "Version created Mon Aug  6 16:22:34 2018";
unicode = 97;
},
{
glyphname = aogonek;
kernLeft = a;
kernRight = n;
lastChange = "2024-11-12 17:33:39 +0000";
layers = (
{
layerId = m001;
shapes = (
{
closed = 1;
nodes = (
(381,-231,o),
(417,-222,o),
(442,-208,c),
(437,-138,l),
(426,-145,o),
(408,-149,o),
(390,-149,cs),
(365,-149,o),
(350,-136,o),
(350,-113,cs),
(350,-76,o),
(385,-38,o),
(455,0,c),
(521,303,ls),
(551,440,o),
(469,523,o),
(305,523,cs),
(244,523,o),
(176,509,o),
(95,480,c),
(131,366,l),
(187,384,o),
(227,392,o),
(262,392,cs),
(343,392,o),
(376,363,o),
(363,302,cs),
(358,277,l),
(317,292,o),
(271,301,o),
(227,301,cs),
(97,300,o),
(18,238,o),
(18,135,cs),
(18,49,o),
(79,-4,o),
(177,-4,cs),
(222,-4,o),
(258,9,o),
(308,44,c),
(298,0,l),
(374,0,l),
(296,-47,o),
(258,-97,o),
(258,-153,cs),
(258,-201,o),
(292,-231,o),
(346,-231,cs)
);
},
{
closed = 1;
nodes = (
(191,100,o),
(163,118,o),
(163,148,cs),
(163,185,o),
(193,206,o),
(248,206,cs),
(281,206,o),
(314,202,o),
(340,195,c),
(324,122,l),
(298,107,o),
(271,100,o),
(241,100,cs)
);
}
);
width = 570;
},
{
layerId = "92FFDF9D-0EFB-4B63-BEE2-6F342003A4EE";
shapes = (
{
closed = 1;
nodes = (
(331,-232,o),
(355,-227,o),
(373,-218,c),
(369,-178,l),
(356,-183,o),
(337,-187,o),
(323,-187,cs),
(288,-187,o),
(263,-168,o),
(263,-139,cs),
(263,-92,o),
(305,-48,o),
(394,0,c),
(462,305,ls),
(488,423,o),
(423,495,o),
(292,495,cs),
(239,495,o),
(183,482,o),
(119,455,c),
(139,398,l),
(196,424,o),
(239,435,o),
(279,435,cs),
(372,435,o),
(410,389,o),
(390,299,cs),
(377,240,l),
(335,270,o),
(279,287,o),
(216,287,cs),
(105,287,o),
(29,223,o),
(29,130,cs),
(29,47,o),
(94,-7,o),
(191,-7,cs),
(241,-7,o),
(287,10,o),
(333,46,c),
(323,0,l),
(334,0,l),
(252,-48,o),
(212,-99,o),
(212,-154,cs),
(212,-201,o),
(250,-232,o),
(307,-232,cs)
);
},
{
closed = 1;
nodes = (
(140,48,o),
(98,81,o),
(98,138,cs),
(98,193,o),
(150,233,o),
(223,233,cs),
(283,233,o),
(328,220,o),
(366,191,c),
(345,98,l),
(302,64,o),
(260,48,o),
(212,48,cs)
);
}
);
width = 516;
},
{
layerId = "97A2421D-FE16-4A26-AFBB-B9A317B3A2E5";
shapes = (
{
closed = 1;
nodes = (
(321,-232,o),
(342,-227,o),
(357,-220,c),
(354,-188,l),
(341,-193,o),
(322,-197,o),
(308,-197,cs),
(270,-197,o),
(243,-176,o),
(243,-146,cs),
(243,-102,o),
(274,-56,o),
(380,0,c),
(448,305,ls),
(476,429,o),
(402,489,o),
(287,489,cs),
(237,489,o),
(186,477,o),
(123,448,c),
(141,408,l),
(199,434,o),
(243,447,o),
(284,447,cs),
(388,447,o),
(419,392,o),
(398,296,cs),
(383,228,l),
(344,264,o),
(283,282,o),
(215,282,cs),
(110,282,o),
(35,219,o),
(35,130,cs),
(35,47,o),
(101,-10,o),
(197,-10,cs),
(250,-10,o),
(298,10,o),
(342,46,c),
(332,0,l),
(333,0,l),
(246,-46,o),
(203,-97,o),
(203,-154,cs),
(203,-195,o),
(235,-232,o),
(300,-232,cs)
);
},
{
closed = 1;
nodes = (
(123,32,o),
(82,74,o),
(82,135,cs),
(82,195,o),
(141,240,o),
(219,240,cs),
(288,240,o),
(335,224,o),
(374,189,c),
(352,91,l),
(308,53,o),
(262,32,o),
(206,32,cs)
);
}
);
width = 502;
}
);
unicode = 261;
},
{
glyphname = ae;
kernLeft = a;
kernRight = e;
lastChange = "2024-11-12 17:33:39 +0000";
layers = (
{
layerId = m001;
shapes = (
{
closed = 1;
nodes = (
(273,-5,o),
(334,17,o),
(401,70,c),
(446,19,o),
(513,-10,o),
(593,-10,cs),
(668,-10,o),
(728,10,o),
(794,58,c),
(707,156,l),
(683,131,o),
(649,118,o),
(610,118,cs),
(548,118,o),
(503,157,o),
(494,217,c),
(840,217,l),
(844,238,o),
(846,262,o),
(846,293,cs),
(846,430,o),
(755,525,o),
(621,525,cs),
(558,525,o),
(500,501,o),
(453,464,c),
(421,501,o),
(369,523,o),
(299,523,cs),
(237,523,o),
(172,510,o),
(87,480,c),
(123,366,l),
(180,384,o),
(218,392,o),
(251,392,cs),
(325,392,o),
(368,364,o),
(352,306,cs),
(346,284,l),
(311,295,o),
(272,301,o),
(232,301,cs),
(105,301,o),
(27,237,o),
(27,135,cs),
(27,50,o),
(94,-5,o),
(196,-5,cs)
);
},
{
closed = 1;
nodes = (
(523,362,o),
(563,398,o),
(612,398,cs),
(663,398,o),
(698,363,o),
(706,308,c),
(504,308,l)
);
},
{
closed = 1;
nodes = (
(196,100,o),
(168,118,o),
(168,148,cs),
(168,185,o),
(198,206,o),
(253,206,cs),
(286,206,o),
(318,202,o),
(345,195,c),
(347,175,o),
(352,155,o),
(359,137,c),
(326,114,o),
(285,100,o),
(246,100,cs)
);
}
);
width = 886;
},
{
layerId = "92FFDF9D-0EFB-4B63-BEE2-6F342003A4EE";
shapes = (
{
closed = 1;
nodes = (
(275,-7,o),
(340,21,o),
(401,80,c),
(440,24,o),
(505,-9,o),
(584,-9,cs),
(644,-9,o),
(697,7,o),
(753,45,c),
(715,97,l),
(682,70,o),
(633,54,o),
(587,54,cs),
(494,54,o),
(427,131,o),
(431,228,c),
(805,228,l),
(807,247,o),
(808,263,o),
(808,281,cs),
(808,406,o),
(727,496,o),
(613,496,cs),
(543,496,o),
(479,465,o),
(432,410,c),
(411,464,o),
(357,495,o),
(276,495,cs),
(223,495,o),
(168,482,o),
(102,455,c),
(122,398,l),
(179,424,o),
(222,435,o),
(262,435,cs),
(352,435,o),
(388,390,o),
(372,301,cs),
(364,251,l),
(324,274,o),
(274,287,o),
(220,287,cs),
(110,287,o),
(36,224,o),
(36,131,cs),
(36,48,o),
(102,-7,o),
(201,-7,cs)
);
},
{
closed = 1;
nodes = (
(460,369,o),
(527,432,o),
(608,432,cs),
(684,432,o),
(741,366,o),
(740,280,c),
(438,280,l)
);
},
{
closed = 1;
nodes = (
(146,48,o),
(104,81,o),
(104,138,cs),
(104,194,o),
(155,233,o),
(227,233,cs),
(281,233,o),
(324,222,o),
(361,198,c),
(363,170,o),
(369,144,o),
(379,120,c),
(327,72,o),
(274,48,o),
(218,48,cs)
);
}
);
width = 851;
},
{
layerId = "97A2421D-FE16-4A26-AFBB-B9A317B3A2E5";
shapes = (
{
closed = 1;
nodes = (
(272,-10,o),
(340,20,o),
(397,77,c),
(435,22,o),
(496,-10,o),
(565,-10,cs),
(620,-10,o),
(676,8,o),
(729,43,c),
(703,81,l),
(658,52,o),
(610,36,o),
(566,36,cs),
(465,36,o),
(394,120,o),
(411,231,c),
(792,231,l),
(795,251,o),
(796,272,o),
(796,295,cs),
(796,408,o),
(722,489,o),
(617,489,cs),
(543,489,o),
(471,451,o),
(422,386,c),
(408,453,o),
(352,489,o),
(263,489,cs),
(212,489,o),
(160,476,o),
(99,448,c),
(117,408,l),
(178,435,o),
(221,447,o),
(260,447,cs),
(357,447,o),
(392,400,o),
(373,296,cs),
(363,243,l),
(325,268,o),
(273,282,o),
(215,282,cs),
(110,282,o),
(35,219,o),
(35,130,cs),
(35,47,o),
(101,-10,o),
(197,-10,cs)
);
},
{
closed = 1;
nodes = (
(446,372,o),
(527,443,o),
(614,443,cs),
(700,443,o),
(756,371,o),
(747,272,c),
(419,272,l)
);
},
{
closed = 1;
nodes = (
(128,32,o),
(82,70,o),
(82,135,cs),
(82,195,o),
(141,240,o),
(219,240,cs),
(281,240,o),
(324,228,o),
(361,200,c),
(361,168,o),
(367,138,o),
(379,111,c),
(322,57,o),
(267,32,o),
(206,32,cs)
);
}
);
width = 841;
}
);
unicode = 230;
},
{
glyphname = b;
kernLeft = b;
kernRight = o;
lastChange = "2024-11-12 17:33:39 +0000";
layers = (
{
layerId = m001;
shapes = (
{
closed = 1;
nodes = (
(474,-3,o),
(591,125,o),
(591,283,cs),
(591,415,o),
(506,519,o),
(397,519,cs),
(346,519,o),
(298,499,o),
(263,465,c),
(321,737,l),
(158,712,l),
(6,0,l),
(163,0,l),
(181,84,l),
(213,27,o),
(265,-3,o),
(330,-3,cs)
);
},
{
closed = 1;
nodes = (
(263,131,o),
(226,151,o),
(204,182,c),
(239,349,l),
(265,374,o),
(293,386,o),
(327,386,cs),
(390,386,o),
(436,338,o),
(436,270,cs),
(436,191,o),
(380,131,o),
(305,131,cs)
);
}
);
userData = {
com.typemytype.robofont.guideline.magnetic.4yrjmX8Bku = 5;
com.typemytype.robofont.guideline.magnetic.hMNSHbc6V0 = 5;
com.typemytype.robofont.guideline.magnetic.oMcBIsVaaS = 5;
};
width = 631;
},
{
layerId = "92FFDF9D-0EFB-4B63-BEE2-6F342003A4EE";
shapes = (
{
closed = 1;
nodes = (
(406,-8,o),
(520,118,o),
(520,271,cs),
(520,398,o),
(437,492,o),
(325,492,cs),
(270,492,o),
(222,471,o),
(183,433,c),
(246,737,l),
(172,722,l),
(21,0,l),
(92,0,l),
(109,78,l),
(143,23,o),
(198,-8,o),
(267,-8,cs)
);
},
{
closed = 1;
nodes = (
(200,56,o),
(146,88,o),
(121,136,c),
(171,375,l),
(207,411,o),
(251,430,o),
(299,430,cs),
(388,430,o),
(449,363,o),
(449,265,cs),
(449,148,o),
(365,56,o),
(258,56,cs)
);
}
);
userData = {
com.typemytype.robofont.guideline.magnetic.4yrjmX8Bku = 5;
com.typemytype.robofont.guideline.magnetic.hMNSHbc6V0 = 5;
com.typemytype.robofont.guideline.magnetic.oMcBIsVaaS = 5;
};
width = 571;
},
{
layerId = "97A2421D-FE16-4A26-AFBB-B9A317B3A2E5";
shapes = (
{
closed = 1;
nodes = (
(391,-9,o),
(503,117,o),
(503,268,cs),
(503,394,o),
(420,485,o),
(308,485,cs),
(255,485,o),
(207,467,o),
(166,427,c),
(230,737,l),
(179,725,l),
(27,0,l),
(75,0,l),
(92,75,l),
(128,18,o),
(188,-9,o),
(253,-9,cs)
);
},
{
closed = 1;
nodes = (
(185,36,o),
(127,72,o),
(103,123,c),
(157,384,l),
(194,420,o),
(243,441,o),
(294,441,cs),
(388,441,o),
(454,370,o),
(454,264,cs),
(454,136,o),
(362,36,o),
(248,36,cs)
);
}
);
userData = {
com.typemytype.robofont.guideline.magnetic.4yrjmX8Bku = 5;
com.typemytype.robofont.guideline.magnetic.hMNSHbc6V0 = 5;
com.typemytype.robofont.guideline.magnetic.oMcBIsVaaS = 5;
};
width = 555;
}
);
unicode = 98;
},
{
glyphname = c;
kernLeft = o;
kernRight = c;
lastChange = "2024-11-12 17:33:39 +0000";
layers = (
{
anchors = (
{
name = bottom;
pos = (279,0);
},
{
name = top;
pos = (320,516);
}
);
layerId = m001;
shapes = (
{
closed = 1;
nodes = (
(351,-11,o),
(423,18,o),
(476,71,c),
(398,172,l),
(370,143,o),
(338,129,o),
(300,129,cs),
(236,129,o),
(196,171,o),
(196,240,cs),
(196,322,o),
(250,387,o),
(318,387,cs),
(366,387,o),
(400,367,o),
(424,324,c),
(536,416,l),
(492,486,o),
(413,526,o),
(321,526,cs),
(163,526,o),
(38,394,o),
(38,226,cs),
(38,89,o),
(138,-11,o),
(275,-11,cs)
);
}
);
userData = {
com.typemytype.robofont.guideline.magnetic.UjUq2FwnAV = 5;
com.typemytype.robofont.guideline.magnetic.vnK2GtybQC = 5;
com.typemytype.robofont.guideline.magnetic.yE2TcVrfNN = 5;
};
width = 528;
},
{
anchors = (
{
name = bottom;
pos = (251,0);
},
{
name = top;
pos = (314,488);
}
);
layerId = "92FFDF9D-0EFB-4B63-BEE2-6F342003A4EE";
shapes = (
{
closed = 1;
nodes = (
(324,-9,o),
(387,13,o),
(438,56,c),
(404,103,l),
(366,73,o),
(320,55,o),
(272,55,cs),
(188,55,o),
(122,124,o),
(122,214,cs),
(122,330,o),
(210,428,o),
(313,428,cs),
(368,428,o),
(414,403,o),
(445,356,c),
(499,401,l),
(461,458,o),
(389,494,o),
(316,494,cs),
(172,494,o),
(51,365,o),
(51,210,cs),
(51,83,o),
(140,-9,o),
(261,-9,cs)
);
}
);
userData = {
com.typemytype.robofont.guideline.magnetic.UjUq2FwnAV = 5;
com.typemytype.robofont.guideline.magnetic.vnK2GtybQC = 5;
com.typemytype.robofont.guideline.magnetic.yE2TcVrfNN = 5;
};
width = 497;
},
{
anchors = (
{
name = bottom;
pos = (245,0);
},
{
name = top;
pos = (315,481);
}
);
layerId = "97A2421D-FE16-4A26-AFBB-B9A317B3A2E5";
shapes = (
{
closed = 1;
nodes = (
(318,-11,o),
(379,11,o),
(429,50,c),
(402,88,l),
(359,55,o),
(310,35,o),
(263,35,cs),
(177,35,o),
(103,101,o),
(103,199,cs),
(103,332,o),
(196,443,o),
(308,443,cs),
(368,443,o),
(416,413,o),
(450,365,c),
(485,396,l),
(443,454,o),
(381,489,o),
(309,489,cs),
(170,489,o),
(54,358,o),
(54,200,cs),
(54,75,o),
(145,-11,o),
(258,-11,cs)
);
}
);
userData = {
com.typemytype.robofont.guideline.magnetic.UjUq2FwnAV = 5;
com.typemytype.robofont.guideline.magnetic.vnK2GtybQC = 5;
com.typemytype.robofont.guideline.magnetic.yE2TcVrfNN = 5;
};
width = 489;
}
);
unicode = 99;
},
{
glyphname = ccedilla;
kernLeft = o;
kernRight = c;
lastChange = "2024-11-12 17:33:39 +0000";
layers = (
{
layerId = m001;
shapes = (
{
closed = 1;
nodes = (
(312,-253,o),
(373,-201,o),
(373,-136,cs),
(373,-94,o),
(342,-66,o),
(288,-59,c),
(310,-9,l),
(373,-1,o),
(431,26,o),
(476,71,c),
(398,172,l),
(370,143,o),
(338,129,o),
(300,129,cs),
(236,129,o),
(196,171,o),
(196,239,cs),
(196,321,o),
(250,386,o),
(318,386,cs),
(366,386,o),
(400,366,o),
(424,323,c),
(536,415,l),
(492,485,o),
(413,525,o),
(321,525,cs),
(163,525,o),
(38,393,o),
(38,225,cs),
(38,102,o),
(120,8,o),
(237,-8,c),
(194,-109,l),
(235,-109,ls),
(266,-109,o),
(286,-123,o),
(286,-144,cs),
(286,-167,o),
(265,-182,o),
(233,-182,cs),
(203,-182,o),
(175,-170,o),
(156,-150,c),
(101,-205,l),
(131,-238,o),
(175,-253,o),
(235,-253,cs)
);
}
);
width = 528;
},
{
layerId = "92FFDF9D-0EFB-4B63-BEE2-6F342003A4EE";
shapes = (
{
closed = 1;
nodes = (
(275,-239,o),
(325,-195,o),
(325,-138,cs),
(325,-97,o),
(295,-71,o),
(244,-66,c),
(269,-9,l),
(329,-7,o),
(389,15,o),
(438,56,c),
(404,103,l),
(366,73,o),
(320,55,o),
(272,55,cs),
(188,55,o),
(122,124,o),
(122,214,cs),
(122,330,o),
(210,428,o),
(313,428,cs),
(368,428,o),
(414,403,o),
(445,356,c),
(499,401,l),
(461,458,o),
(389,494,o),
(316,494,cs),
(172,494,o),
(51,365,o),
(51,210,cs),
(51,95,o),
(124,8,o),
(228,-7,c),
(187,-99,l),
(215,-99,ls),
(255,-99,o),
(279,-116,o),
(279,-144,cs),
(279,-177,o),
(251,-199,o),
(207,-199,cs),
(178,-199,o),
(154,-189,o),
(134,-167,c),
(103,-197,l),
(125,-224,o),
(164,-239,o),
(209,-239,cs)
);
}
);
width = 497;
},
{
layerId = "97A2421D-FE16-4A26-AFBB-B9A317B3A2E5";
shapes = (
{
closed = 1;
nodes = (
(263,-235,o),
(311,-195,o),
(311,-138,cs),
(311,-99,o),
(283,-72,o),
(230,-68,c),
(255,-11,l),
(318,-11,o),
(378,10,o),
(429,50,c),
(402,88,l),
(359,55,o),
(310,35,o),
(263,35,cs),
(177,35,o),
(103,101,o),
(103,199,cs),
(103,332,o),
(196,443,o),
(308,443,cs),
(368,443,o),
(416,413,o),
(450,365,c),
(485,396,l),
(443,454,o),
(381,489,o),
(309,489,cs),
(170,489,o),
(54,358,o),
(54,200,cs),
(54,88,o),
(127,7,o),
(223,-8,c),
(184,-96,l),
(208,-96,ls),
(249,-96,o),
(276,-113,o),
(276,-144,cs),
(276,-178,o),
(249,-204,o),
(199,-204,cs),
(170,-204,o),
(147,-194,o),
(126,-171,c),
(102,-195,l),
(120,-217,o),
(155,-235,o),
(201,-235,cs)
);
}
);
width = 489;
}
);
unicode = 231;
},
{
glyphname = d;
kernLeft = o;
kernRight = d;
lastChange = "2024-11-12 17:33:39 +0000";
layers = (
{
layerId = m001;
shapes = (
{
closed = 1;
nodes = (
(285,-3,o),
(331,16,o),
(365,48,c),
(355,0,l),
(512,0,l),
(668,737,l),
(505,712,l),
(448,444,l),
(416,492,o),
(365,519,o),
(302,519,cs),
(158,519,o),
(41,391,o),
(41,233,cs),
(41,101,o),
(126,-3,o),
(235,-3,cs)
);
},
{
closed = 1;
nodes = (
(242,130,o),
(197,179,o),
(197,246,cs),
(197,325,o),
(253,385,o),
(327,385,cs),
(367,385,o),
(403,369,o),
(426,342,c),
(388,163,l),
(363,140,o),
(337,130,o),
(305,130,cs)
);
}
);
userData = {
com.typemytype.robofont.guideline.magnetic.BmBtoe1U2f = 5;
com.typemytype.robofont.guideline.magnetic.Gh5hrXYXhN = 5;
com.typemytype.robofont.guideline.magnetic.QwnFCJBzbb = 5;
};
width = 630;
},
{
layerId = "92FFDF9D-0EFB-4B63-BEE2-6F342003A4EE";
shapes = (
{
closed = 1;
nodes = (
(297,-7,o),
(343,12,o),
(381,46,c),
(371,0,l),
(442,0,l),
(595,737,l),
(521,722,l),
(458,415,l),
(423,465,o),
(369,493,o),
(303,493,cs),
(164,493,o),
(51,367,o),
(51,214,cs),
(51,88,o),
(133,-7,o),
(245,-7,cs)
);
},
{
closed = 1;
nodes = (
(183,56,o),
(122,123,o),
(122,220,cs),
(122,337,o),
(206,429,o),
(312,429,cs),
(368,429,o),
(419,400,o),
(445,356,c),
(393,104,l),
(358,73,o),
(316,56,o),
(271,56,cs)
);
}
);
userData = {
com.typemytype.robofont.guideline.magnetic.BmBtoe1U2f = 5;
com.typemytype.robofont.guideline.magnetic.Gh5hrXYXhN = 5;
com.typemytype.robofont.guideline.magnetic.QwnFCJBzbb = 5;
};
width = 571;
},
{
layerId = "97A2421D-FE16-4A26-AFBB-B9A317B3A2E5";
shapes = (
{
closed = 1;
nodes = (
(301,-8,o),
(347,9,o),
(387,45,c),
(377,0,l),
(426,0,l),
(580,737,l),
(529,725,l),
(463,407,l),
(426,462,o),
(368,487,o),
(305,487,cs),
(167,487,o),
(55,361,o),
(55,209,cs),
(55,83,o),
(138,-8,o),
(250,-8,cs)
);
},
{
closed = 1;
nodes = (
(170,36,o),
(104,107,o),
(104,213,cs),
(104,341,o),
(196,441,o),
(310,441,cs),
(371,441,o),
(427,408,o),
(453,359,c),
(396,88,l),
(360,55,o),
(313,36,o),
(264,36,cs)
);
}
);
userData = {
com.typemytype.robofont.guideline.magnetic.BmBtoe1U2f = 5;
com.typemytype.robofont.guideline.magnetic.Gh5hrXYXhN = 5;
com.typemytype.robofont.guideline.magnetic.QwnFCJBzbb = 5;
};
width = 555;
}
);
unicode = 100;
},
{
glyphname = dcroat;
kernLeft = o;
kernRight = d;
lastChange = "2024-11-12 17:33:39 +0000";
layers = (
{
layerId = m001;
shapes = (
{
closed = 1;
nodes = (
(285,-3,o),
(331,16,o),
(365,48,c),
(355,0,l),
(512,0,l),
(631,560,l),
(687,560,l),
(707,648,l),
(649,648,l),
(668,737,l),
(505,712,l),
(491,648,l),
(396,648,l),
(376,560,l),
(473,560,l),
(448,444,l),
(416,492,o),
(365,519,o),
(302,519,cs),
(158,519,o),
(41,391,o),
(41,233,cs),
(41,101,o),
(126,-3,o),
(235,-3,cs)
);
},
{
closed = 1;
nodes = (
(242,130,o),
(197,179,o),
(197,246,cs),
(197,325,o),
(253,385,o),
(327,385,cs),
(367,385,o),
(403,369,o),
(426,342,c),
(388,163,l),
(363,140,o),
(337,130,o),
(305,130,cs)
);
}
);
width = 638;
},
{
layerId = "92FFDF9D-0EFB-4B63-BEE2-6F342003A4EE";
shapes = (
{
closed = 1;
nodes = (
(297,-7,o),
(343,12,o),
(381,46,c),
(371,0,l),
(442,0,l),
(561,573,l),
(628,573,l),
(640,623,l),
(572,623,l),
(594,730,l),
(520,715,l),
(501,623,l),
(366,623,l),
(354,573,l),
(490,573,l),
(458,415,l),
(423,465,o),
(369,493,o),
(303,493,cs),
(164,493,o),
(51,367,o),
(51,214,cs),
(51,88,o),
(133,-7,o),
(245,-7,cs)
);
},
{
closed = 1;
nodes = (
(183,56,o),
(122,123,o),
(122,220,cs),
(122,337,o),
(206,429,o),
(312,429,cs),
(368,429,o),
(419,400,o),
(445,356,c),
(393,104,l),
(358,73,o),
(316,56,o),
(271,56,cs)
);
}
);
width = 576;
},
{
layerId = "97A2421D-FE16-4A26-AFBB-B9A317B3A2E5";
shapes = (
{
closed = 1;
nodes = (
(301,-8,o),
(347,9,o),
(387,45,c),
(377,0,l),
(426,0,l),
(546,576,l),
(630,576,l),
(638,616,l),
(555,616,l),
(580,737,l),
(529,725,l),
(506,616,l),
(352,616,l),
(344,576,l),
(498,576,l),
(463,407,l),
(426,462,o),
(368,487,o),
(305,487,cs),
(167,487,o),
(55,361,o),
(55,209,cs),
(55,83,o),
(138,-8,o),
(250,-8,cs)
);
},
{
closed = 1;
nodes = (
(170,36,o),
(104,107,o),
(104,213,cs),
(104,341,o),
(196,441,o),
(310,441,cs),
(371,441,o),
(427,408,o),
(453,359,c),
(396,88,l),
(360,55,o),
(313,36,o),
(264,36,cs)
);
}
);
width = 555;
}
);
unicode = 273;
},
{
glyphname = eth;
kernLeft = o;
kernRight = o;
lastChange = "2024-11-12 17:33:39 +0000";
layers = (
{
layerId = m001;
shapes = (
{
closed = 1;
nodes = (
(442,-9,o),
(567,151,o),
(567,366,cs),
(567,463,o),
(546,549,o),
(504,623,c),
(583,663,l),
(548,745,l),
(452,695,l),
(427,724,o),
(397,750,o),
(364,774,c),
(263,677,l),
(285,663,o),
(305,647,o),
(323,629,c),
(258,595,l),
(291,514,l),
(380,560,l),
(413,509,o),
(431,454,o),
(434,396,c),
(411,437,o),
(352,466,o),
(282,466,cs),
(147,466,o),
(45,359,o),
(45,217,cs),
(45,83,o),
(138,-9,o),
(274,-9,cs)
);
},
{
closed = 1;
nodes = (
(227,128,o),
(187,170,o),
(187,226,cs),
(187,290,o),
(240,345,o),
(302,345,cs),
(352,345,o),
(391,303,o),
(391,248,cs),
(391,184,o),
(339,128,o),
(279,128,cs)
);
}
);
width = 584;
},
{
layerId = "92FFDF9D-0EFB-4B63-BEE2-6F342003A4EE";
shapes = (
{
closed = 1;
nodes = (
(425,-10,o),
(542,152,o),
(542,385,cs),
(542,475,o),
(521,552,o),
(480,615,c),
(582,666,l),
(565,711,l),
(449,655,l),
(420,689,o),
(384,716,o),
(341,737,c),
(302,687,l),
(336,672,o),
(365,651,o),
(390,626,c),
(298,581,l),
(316,535,l),
(422,587,l),
(464,524,o),
(484,443,o),
(479,350,c),
(458,425,o),
(388,478,o),
(297,478,cs),
(160,478,o),
(52,360,o),
(52,208,cs),
(52,80,o),
(138,-10,o),
(260,-10,cs)
);
},
{
closed = 1;
nodes = (
(180,54,o),
(120,119,o),
(120,213,cs),
(120,324,o),
(204,419,o),
(304,419,cs),
(388,419,o),
(450,352,o),
(450,261,cs),
(450,151,o),
(364,54,o),
(264,54,cs)
);
}
);
width = 578;
},
{
layerId = "97A2421D-FE16-4A26-AFBB-B9A317B3A2E5";
shapes = (
{
closed = 1;
nodes = (
(423,-10,o),
(537,153,o),
(537,388,cs),
(537,483,o),
(515,563,o),
(473,626,c),
(584,680,l),
(571,717,l),
(449,658,l),
(419,691,o),
(382,718,o),
(337,737,c),
(314,700,l),
(350,685,o),
(381,664,o),
(407,638,c),
(311,592,l),
(325,555,l),
(433,607,l),
(482,538,o),
(504,442,o),
(494,327,c),
(477,417,o),
(403,480,o),
(303,480,cs),
(165,480,o),
(56,358,o),
(56,204,cs),
(56,79,o),
(140,-10,o),
(258,-10,cs)
);
},
{
closed = 1;
nodes = (
(170,36,o),
(105,107,o),
(105,207,cs),
(105,330,o),
(199,436,o),
(308,436,cs),
(401,436,o),
(466,365,o),
(466,265,cs),
(466,142,o),
(372,36,o),
(263,36,cs)
);
}
);
width = 577;
}
);
unicode = 240;
},
{
glyphname = e;
kernLeft = o;
kernRight = e;
lastChange = "2024-11-12 17:33:39 +0000";
layers = (
{
anchors = (
{
name = bottom;
pos = (382,0);
},
{
name = top;
pos = (329,516);
}
);
layerId = m001;
shapes = (
{
closed = 1;
nodes = (
(365,-11,o),
(425,9,o),
(491,57,c),
(404,155,l),
(380,130,o),
(346,117,o),
(307,117,cs),
(245,117,o),
(200,157,o),
(191,217,c),
(537,217,l),
(541,238,o),
(543,262,o),
(543,293,cs),
(543,430,o),
(452,524,o),
(318,524,cs),
(165,524,o),
(38,391,o),
(38,233,cs),
(38,90,o),
(143,-11,o),
(290,-11,cs)
);
},
{
closed = 1;
nodes = (
(220,362,o),
(260,397,o),
(309,397,cs),
(360,397,o),
(395,363,o),
(403,308,c),
(201,308,l)
);
}
);
userData = {
SBAlt = left;
com.typemytype.robofont.guideline.magnetic.3EZO9zNDyF = 5;
com.typemytype.robofont.guideline.magnetic.3jKz4iMjwa = 5;
com.typemytype.robofont.guideline.magnetic.siQwTZGZzn = 5;
};
width = 583;
},
{
anchors = (
{
name = bottom;
pos = (347,0);
},
{
name = top;
pos = (300,488);
}
);
layerId = "92FFDF9D-0EFB-4B63-BEE2-6F342003A4EE";
shapes = (
{
closed = 1;
nodes = (
(333,-9,o),
(386,7,o),
(443,45,c),
(405,97,l),
(371,70,o),
(323,54,o),
(276,54,cs),
(184,54,o),
(116,132,o),
(121,228,c),
(495,228,l),
(497,247,o),
(498,263,o),
(498,281,cs),
(498,406,o),
(416,496,o),
(302,496,cs),
(163,496,o),
(51,370,o),
(51,216,cs),
(51,83,o),
(142,-9,o),
(273,-9,cs)
);
},
{
closed = 1;
nodes = (
(150,369,o),
(216,432,o),
(297,432,cs),
(374,432,o),
(432,365,o),
(430,280,c),
(128,280,l)
);
}
);
userData = {
SBAlt = left;
com.typemytype.robofont.guideline.magnetic.3EZO9zNDyF = 5;
com.typemytype.robofont.guideline.magnetic.3jKz4iMjwa = 5;
com.typemytype.robofont.guideline.magnetic.siQwTZGZzn = 5;
};
width = 545;
},
{
anchors = (
{
name = bottom;
pos = (330,0);
},
{
name = top;
pos = (298,481);
}
);
layerId = "97A2421D-FE16-4A26-AFBB-B9A317B3A2E5";
shapes = (
{
closed = 1;
nodes = (
(315,-10,o),
(371,8,o),
(424,43,c),
(398,81,l),
(352,51,o),
(304,36,o),
(261,36,cs),
(159,36,o),
(92,118,o),
(106,231,c),
(487,231,l),
(490,253,o),
(491,274,o),
(491,295,cs),
(491,408,o),
(417,489,o),
(312,489,cs),
(172,489,o),
(55,358,o),
(55,201,cs),
(55,80,o),
(142,-10,o),
(260,-10,cs)
);
},
{
closed = 1;
nodes = (
(141,371,o),
(221,443,o),
(309,443,cs),
(398,443,o),
(451,368,o),
(442,272,c),
(114,272,l)
);
}
);
userData = {
SBAlt = left;
com.typemytype.robofont.guideline.magnetic.3EZO9zNDyF = 5;
com.typemytype.robofont.guideline.magnetic.3jKz4iMjwa = 5;
com.typemytype.robofont.guideline.magnetic.siQwTZGZzn = 5;
};
width = 536;
}
);
unicode = 101;
},
{
glyphname = eogonek;
kernLeft = o;
kernRight = e;
lastChange = "2024-11-12 17:33:39 +0000";
layers = (
{
layerId = m001;
shapes = (
{
closed = 1;
nodes = (
(301,-231,o),
(337,-222,o),
(362,-208,c),
(357,-138,l),
(346,-145,o),
(328,-149,o),
(310,-149,cs),
(285,-149,o),
(270,-136,o),
(270,-113,cs),
(270,-76,o),
(304,-39,o),
(373,-1,c),
(413,9,o),
(451,28,o),
(491,57,c),
(404,155,l),
(380,130,o),
(346,117,o),
(307,117,cs),
(245,117,o),
(200,157,o),
(191,217,c),
(537,217,l),
(541,238,o),
(543,262,o),
(543,293,cs),
(543,430,o),
(452,524,o),
(318,524,cs),
(165,524,o),
(38,391,o),
(38,233,cs),
(38,94,o),
(137,-5,o),
(277,-11,c),
(210,-54,o),
(178,-101,o),
(178,-153,cs),
(178,-201,o),
(212,-231,o),
(266,-231,cs)
);
},
{
closed = 1;
nodes = (
(360,397,o),
(395,363,o),
(403,308,c),
(201,308,l),
(220,362,o),
(260,397,o),
(309,397,cs)
);
}
);
width = 583;
},
{
layerId = "92FFDF9D-0EFB-4B63-BEE2-6F342003A4EE";
shapes = (
{
closed = 1;
nodes = (
(284,-232,o),
(308,-227,o),
(326,-218,c),
(322,-178,l),
(309,-183,o),
(290,-187,o),
(276,-187,cs),
(241,-187,o),
(216,-168,o),
(216,-139,cs),
(216,-92,o),
(258,-48,o),
(347,0,c),
(379,9,o),
(410,23,o),
(443,45,c),
(405,97,l),
(371,70,o),
(323,54,o),
(276,54,cs),
(184,54,o),
(117,133,o),
(121,228,c),
(495,228,l),
(497,247,o),
(498,263,o),
(498,281,cs),
(498,406,o),
(416,496,o),
(302,496,cs),
(163,496,o),
(51,370,o),
(51,216,cs),
(51,83,o),
(142,-9,o),
(272,-9,c),
(201,-55,o),
(165,-102,o),
(165,-154,cs),
(165,-201,o),
(203,-232,o),
(260,-232,cs)
);
},
{
closed = 1;
nodes = (
(374,432,o),
(432,365,o),
(430,280,c),
(128,280,l),
(150,369,o),
(216,432,o),
(297,432,cs)
);
}
);
width = 545;
},
{
layerId = "97A2421D-FE16-4A26-AFBB-B9A317B3A2E5";
shapes = (
{
closed = 1;
nodes = (
(271,-232,o),
(292,-227,o),
(307,-220,c),
(304,-188,l),
(291,-193,o),
(272,-197,o),
(258,-197,cs),
(220,-197,o),
(193,-176,o),
(193,-146,cs),
(193,-102,o),
(224,-56,o),
(328,-1,c),
(361,8,o),
(393,22,o),
(424,43,c),
(398,81,l),
(352,51,o),
(304,36,o),
(261,36,cs),
(159,36,o),
(92,122,o),
(106,231,c),
(487,231,l),
(490,253,o),
(491,274,o),
(491,295,cs),
(491,408,o),
(417,489,o),
(312,489,cs),
(172,489,o),
(55,358,o),
(55,201,cs),
(55,80,o),
(142,-10,o),
(259,-10,c),
(178,-62,o),
(153,-110,o),
(153,-154,cs),
(153,-195,o),
(185,-232,o),
(250,-232,cs)
);
},
{
closed = 1;
nodes = (
(398,443,o),
(451,368,o),
(442,272,c),
(114,272,l),
(141,371,o),
(221,443,o),
(309,443,cs)
);
}
);
width = 536;
}
);
unicode = 281;
},
{
glyphname = f;
kernLeft = t;
kernRight = f;
lastChange = "2024-11-12 17:33:39 +0000";
layers = (
{
layerId = m001;
shapes = (
{
closed = 1;
nodes = (
(239,0,l),
(319,391,l),
(450,391,l),
(478,516,l),
(345,516,l),
(359,584,ls),
(366,618,o),
(388,635,o),
(427,635,cs),
(449,635,o),
(472,631,o),
(495,624,c),
(523,757,l),
(501,767,o),
(454,774,o),
(417,774,cs),
(303,774,o),
(227,712,o),
(202,599,cs),
(185,516,l),
(88,516,l),
(60,391,l),
(160,391,l),
(80,0,l)
);
}
);
userData = {
com.typemytype.robofont.guideline.magnetic.U34vPi2PeJ = 5;
com.typemytype.robofont.guideline.magnetic.hSdwiQ96LD = 5;
com.typemytype.robofont.guideline.magnetic.taESRfxB9k = 5;
};
width = 451;
},
{
layerId = "92FFDF9D-0EFB-4B63-BEE2-6F342003A4EE";
shapes = (
{
closed = 1;
nodes = (
(152,0,l),
(243,428,l),
(381,428,l),
(395,488,l),
(256,488,l),
(280,599,ls),
(292,656,o),
(317,679,o),
(366,679,cs),
(390,679,o),
(409,675,o),
(431,666,c),
(444,731,l),
(423,740,o),
(397,745,o),
(368,745,cs),
(285,745,o),
(229,695,o),
(209,605,cs),
(184,488,l),
(80,488,l),
(66,428,l),
(171,428,l),
(80,0,l)
);
}
);
userData = {
com.typemytype.robofont.guideline.magnetic.U34vPi2PeJ = 5;
com.typemytype.robofont.guideline.magnetic.hSdwiQ96LD = 5;
com.typemytype.robofont.guideline.magnetic.taESRfxB9k = 5;
};
width = 362;
},
{
layerId = "97A2421D-FE16-4A26-AFBB-B9A317B3A2E5";
shapes = (
{
closed = 1;
nodes = (
(131,0,l),
(224,438,l),
(365,438,l),
(374,481,l),
(233,481,l),
(259,603,ls),
(272,664,o),
(297,691,o),
(352,691,cs),
(376,691,o),
(393,687,o),
(416,677,c),
(425,724,l),
(402,733,o),
(378,737,o),
(352,737,cs),
(274,737,o),
(230,696,o),
(211,607,cs),
(184,481,l),
(80,481,l),
(71,438,l),
(175,438,l),
(82,0,l)
);
}
);
userData = {
com.typemytype.robofont.guideline.magnetic.U34vPi2PeJ = 5;
com.typemytype.robofont.guideline.magnetic.hSdwiQ96LD = 5;
com.typemytype.robofont.guideline.magnetic.taESRfxB9k = 5;
};
width = 339;
}
);
unicode = 102;
},
{
glyphname = g;
kernLeft = o;
kernRight = q;
lastChange = "2024-11-12 17:33:39 +0000";
layers = (
{
anchors = (
{
name = top;
pos = (348,516);
}
);
layerId = m001;
shapes = (
{
closed = 1;
nodes = (
(392,-219,o),
(481,-153,o),
(507,-29,cs),
(622,516,l),
(466,516,l),
(451,443,l),
(418,492,o),
(366,519,o),
(302,519,cs),
(159,519,o),
(43,392,o),
(43,235,cs),
(43,103,o),
(127,1,o),
(236,1,cs),
(286,1,o),
(333,20,o),
(367,53,c),
(354,-11,ls),
(343,-66,o),
(306,-94,o),
(246,-94,cs),
(194,-94,o),
(135,-74,o),
(78,-36,c),
(10,-147,l),
(76,-192,o),
(168,-219,o),
(253,-219,cs)
);
},
{
closed = 1;
nodes = (
(243,132,o),
(199,180,o),
(199,248,cs),
(199,327,o),
(254,385,o),
(327,385,cs),
(367,385,o),
(404,369,o),
(427,343,c),
(391,166,l),
(365,143,o),
(338,132,o),
(306,132,cs)
);
}
);
width = 628;
},
{
anchors = (
{
name = top;
pos = (323,488);
}
);
layerId = "92FFDF9D-0EFB-4B63-BEE2-6F342003A4EE";
shapes = (
{
closed = 1;
nodes = (
(337,-219,o),
(408,-160,o),
(431,-52,cs),
(544,488,l),
(473,488,l),
(458,415,l),
(424,465,o),
(369,493,o),
(303,493,cs),
(165,493,o),
(51,367,o),
(51,214,cs),
(51,88,o),
(133,-6,o),
(246,-6,cs),
(298,-6,o),
(344,13,o),
(382,48,c),
(362,-46,ls),
(347,-116,o),
(299,-155,o),
(227,-155,cs),
(172,-155,o),
(117,-135,o),
(60,-93,c),
(22,-146,l),
(78,-190,o),
(160,-219,o),
(231,-219,cs)
);
},
{
closed = 1;
nodes = (
(183,56,o),
(122,123,o),
(122,220,cs),
(122,337,o),
(206,429,o),
(312,429,cs),
(367,429,o),
(419,401,o),
(446,357,c),
(394,105,l),
(359,73,o),
(316,56,o),
(271,56,cs)
);
}
);
width = 565;
},
{
anchors = (
{
name = top;
pos = (319,494);
}
);
layerId = "97A2421D-FE16-4A26-AFBB-B9A317B3A2E5";
shapes = (
{
closed = 1;
nodes = (
(334,-219,o),
(401,-162,o),
(423,-59,cs),
(536,481,l),
(488,481,l),
(470,396,l),
(435,458,o),
(373,487,o),
(305,487,cs),
(167,487,o),
(55,361,o),
(55,209,cs),
(55,83,o),
(138,-8,o),
(250,-8,cs),
(305,-8,o),
(354,11,o),
(396,53,c),
(377,-47,ls),
(363,-124,o),
(307,-172,o),
(234,-172,cs),
(173,-172,o),
(119,-152,o),
(62,-109,c),
(31,-149,l),
(83,-193,o),
(167,-219,o),
(237,-219,cs)
);
},
{
closed = 1;
nodes = (
(170,36,o),
(104,107,o),
(104,213,cs),
(104,341,o),
(196,441,o),
(310,441,cs),
(377,441,o),
(437,401,o),
(459,345,c),
(406,98,l),
(368,59,o),
(317,36,o),
(264,36,cs)
);
}
);
width = 561;
}
);
note = "Version created Sun Jan 13 16:53:00 2019";
unicode = 103;
},
{
glyphname = gcommaaccent;
kernLeft = o;
kernRight = q;
lastChange = "2024-11-12 17:33:39 +0000";
layers = (
{
layerId = m001;
shapes = (
{
closed = 1;
nodes = (
(418,840,l),
(278,625,l),
(419,625,l),
(527,840,l)
);
},
{
ref = g;
}
);
width = 628;
},
{
layerId = "92FFDF9D-0EFB-4B63-BEE2-6F342003A4EE";
shapes = (
{
closed = 1;
nodes = (
(421,797,l),
(310,610,l),
(387,610,l),
(474,797,l)
);
},
{
ref = g;
}
);
width = 565;
},
{
layerId = "97A2421D-FE16-4A26-AFBB-B9A317B3A2E5";
shapes = (
{
closed = 1;
nodes = (
(414,786,l),
(316,606,l),
(372,606,l),
(453,786,l)
);
},
{
ref = g;
}
);
width = 562;
}
);
unicode = 291;
},
{
glyphname = h;
kernLeft = b;
kernRight = n;
lastChange = "2024-11-12 17:33:39 +0000";
layers = (
{
anchors = (
{
name = top;
pos = (227,699);
}
);
layerId = m001;
shapes = (
{
closed = 1;
nodes = (
(165,0,l),
(240,355,l),
(268,384,o),
(296,397,o),
(328,397,cs),
(382,397,o),
(410,356,o),
(397,297,cs),
(333,0,l),
(492,0,l),
(564,337,ls),
(588,447,o),
(533,522,o),
(429,522,cs),
(364,522,o),
(305,491,o),
(256,432,c),
(321,737,l),
(155,712,l),
(6,0,l)
);
}
);
userData = {
com.typemytype.robofont.guideline.magnetic.Cl320K55Dv = 5;
com.typemytype.robofont.guideline.magnetic.FcHvO3Gktm = 5;
com.typemytype.robofont.guideline.magnetic.J34TY3QDDz = 5;
};
width = 606;
},
{
anchors = (
{
name = top;
pos = (202,700);
}
);
layerId = "92FFDF9D-0EFB-4B63-BEE2-6F342003A4EE";
shapes = (
{
closed = 1;
nodes = (
(93,0,l),
(168,361,l),
(203,408,o),
(253,435,o),
(306,435,cs),
(387,435,o),
(428,375,o),
(408,285,cs),
(346,0,l),
(418,0,l),
(482,300,ls),
(507,413,o),
(447,495,o),
(337,495,cs),
(277,495,o),
(224,467,o),
(179,411,c),
(246,737,l),
(171,722,l),
(21,0,l)
);
}
);
userData = {
com.typemytype.robofont.guideline.magnetic.Cl320K55Dv = 5;
com.typemytype.robofont.guideline.magnetic.FcHvO3Gktm = 5;
com.typemytype.robofont.guideline.magnetic.J34TY3QDDz = 5;
};
width = 542;
},
{
anchors = (
{
name = top;
pos = (198,700);
}
);
layerId = "97A2421D-FE16-4A26-AFBB-B9A317B3A2E5";
shapes = (
{
closed = 1;
nodes = (
(76,0,l),
(152,363,l),
(191,416,o),
(245,445,o),
(302,445,cs),
(389,445,o),
(435,381,o),
(413,282,cs),
(351,0,l),
(400,0,l),
(463,290,ls),
(489,409,o),
(422,489,o),
(315,489,cs),
(255,489,o),
(205,461,o),
(161,408,c),
(230,737,l),
(179,725,l),
(27,0,l)
);
}
);
userData = {
com.typemytype.robofont.guideline.magnetic.Cl320K55Dv = 5;
com.typemytype.robofont.guideline.magnetic.FcHvO3Gktm = 5;
com.typemytype.robofont.guideline.magnetic.J34TY3QDDz = 5;
};
width = 525;
}
);
unicode = 104;
},
{
glyphname = hbar;
kernLeft = b;
kernRight = n;
lastChange = "2024-11-12 17:33:39 +0000";
layers = (
{
layerId = m001;
shapes = (
{
closed = 1;
nodes = (
(175,0,l),
(250,355,l),
(278,384,o),
(306,397,o),
(338,397,cs),
(392,397,o),
(420,356,o),
(407,297,cs),
(343,0,l),
(502,0,l),
(574,337,ls),
(598,447,o),
(543,522,o),
(439,522,cs),
(374,522,o),
(315,491,o),
(266,432,c),
(293,560,l),
(398,560,l),
(418,648,l),
(312,648,l),
(331,737,l),
(165,712,l),
(152,648,l),
(101,648,l),
(81,560,l),
(133,560,l),
(16,0,l)
);
}
);
width = 615;
},
{
layerId = "92FFDF9D-0EFB-4B63-BEE2-6F342003A4EE";
shapes = (
{
closed = 1;
nodes = (
(99,0,l),
(174,361,l),
(209,408,o),
(259,435,o),
(312,435,cs),
(393,435,o),
(434,375,o),
(414,285,cs),
(352,0,l),
(424,0,l),
(488,300,ls),
(513,413,o),
(453,495,o),
(343,495,cs),
(283,495,o),
(230,467,o),
(185,411,c),
(218,573,l),
(363,573,l),
(375,623,l),
(229,623,l),
(251,730,l),
(176,715,l),
(157,623,l),
(101,623,l),
(89,573,l),
(146,573,l),
(27,0,l)
);
}
);
width = 547;
},
{
layerId = "97A2421D-FE16-4A26-AFBB-B9A317B3A2E5";
shapes = (
{
closed = 1;
nodes = (
(76,0,l),
(152,363,l),
(191,416,o),
(245,445,o),
(302,445,cs),
(389,445,o),
(435,381,o),
(413,282,cs),
(351,0,l),
(400,0,l),
(463,290,ls),
(489,409,o),
(422,489,o),
(315,489,cs),
(255,489,o),
(205,461,o),
(161,408,c),
(196,576,l),
(354,576,l),
(362,616,l),
(205,616,l),
(230,737,l),
(179,725,l),
(156,616,l),
(76,616,l),
(68,576,l),
(148,576,l),
(27,0,l)
);
}
);
width = 525;
}
);
unicode = 295;
},
{
glyphname = i;
kernLeft = b;
kernRight = d;
lastChange = "2024-11-12 17:33:39 +0000";
layers = (
{
anchors = (
{
name = bottom;
pos = (165,0);
},
{
name = top;
pos = (197,516);
}
);
layerId = m001;
shapes = (
{
closed = 1;
nodes = (
(272,596,o),
(318,642,o),
(318,697,cs),
(318,742,o),
(282,777,o),
(237,777,cs),
(184,777,o),
(137,729,o),
(137,675,cs),
(137,630,o),
(171,596,o),
(217,596,cs)
);
},
{
closed = 1;
nodes = (
(165,0,l),
(277,516,l),
(118,516,l),
(6,0,l)
);
}
);
userData = {
SBAlt = left;
com.typemytype.robofont.guideline.magnetic.5k65HKVtXG = 5;
com.typemytype.robofont.guideline.magnetic.9MkqZPjp4I = 5;
com.typemytype.robofont.guideline.magnetic.qWbxKaCMh8 = 5;
com.typemytype.robofont.guideline.magnetic.xSfsqhpgEG = 5;
com.typemytype.robofont.guideline.magnetic.xenQAPR9xz = 5;
};
width = 283;
},
{
anchors = (
{
name = bottom;
pos = (93,0);
},
{
name = top;
pos = (163,488);
}
);
layerId = "92FFDF9D-0EFB-4B63-BEE2-6F342003A4EE";
shapes = (
{
closed = 1;
nodes = (
(220,608,o),
(246,635,o),
(246,666,cs),
(246,692,o),
(226,713,o),
(200,713,cs),
(170,713,o),
(143,685,o),
(143,655,cs),
(143,628,o),
(162,608,o),
(189,608,cs)
);
},
{
closed = 1;
nodes = (
(93,0,l),
(199,488,l),
(128,488,l),
(21,0,l)
);
}
);
userData = {
SBAlt = left;
com.typemytype.robofont.guideline.magnetic.5k65HKVtXG = 5;
com.typemytype.robofont.guideline.magnetic.9MkqZPjp4I = 5;
com.typemytype.robofont.guideline.magnetic.qWbxKaCMh8 = 5;
com.typemytype.robofont.guideline.magnetic.xSfsqhpgEG = 5;
com.typemytype.robofont.guideline.magnetic.xenQAPR9xz = 5;
};
width = 220;
},
{
anchors = (
{
name = bottom;
pos = (75,0);
},
{
name = top;
pos = (156,481);
}
);
layerId = "97A2421D-FE16-4A26-AFBB-B9A317B3A2E5";
shapes = (
{
closed = 1;
nodes = (
(212,607,o),
(234,629,o),
(234,657,cs),
(234,681,o),
(216,700,o),
(193,700,cs),
(165,700,o),
(143,678,o),
(143,650,cs),
(143,626,o),
(161,607,o),
(184,607,cs)
);
},
{
closed = 1;
nodes = (
(75,0,l),
(178,481,l),
(129,481,l),
(26,0,l)
);
}
);
userData = {
SBAlt = left;
com.typemytype.robofont.guideline.magnetic.5k65HKVtXG = 5;
com.typemytype.robofont.guideline.magnetic.9MkqZPjp4I = 5;
com.typemytype.robofont.guideline.magnetic.qWbxKaCMh8 = 5;
com.typemytype.robofont.guideline.magnetic.xSfsqhpgEG = 5;
com.typemytype.robofont.guideline.magnetic.xenQAPR9xz = 5;
};
width = 204;
}
);
unicode = 105;
},
{
glyphname = idotless;
kernLeft = n;
kernRight = q;
lastChange = "2024-11-12 17:51:29 +0000";
layers = (
{
anchors = (
{
name = bottom;
pos = (164,0);
},
{
name = top;
pos = (197,516);
}
);
layerId = m001;
shapes = (
{
closed = 1;
nodes = (
(165,0,l),
(277,516,l),
(118,516,l),
(6,0,l)
);
}
);
userData = {
SBAlt = left;
com.typemytype.robofont.guideline.magnetic.J5Izm0StGq = 5;
com.typemytype.robofont.guideline.magnetic.Lr7k9jtM6W = 5;
com.typemytype.robofont.guideline.magnetic.etmZdFcHPj = 5;
com.typemytype.robofont.guideline.magnetic.grACk2t8sd = 5;
com.typemytype.robofont.guideline.magnetic.iYw45XIMy5 = 5;
};
width = 283;
},
{
anchors = (
{
name = bottom;
pos = (93,0);
},
{
name = top;
pos = (163,488);
}
);
layerId = "92FFDF9D-0EFB-4B63-BEE2-6F342003A4EE";
shapes = (
{
closed = 1;
nodes = (
(93,0,l),
(199,488,l),
(128,488,l),
(21,0,l)
);
}
);
userData = {
SBAlt = left;
com.typemytype.robofont.guideline.magnetic.J5Izm0StGq = 5;
com.typemytype.robofont.guideline.magnetic.Lr7k9jtM6W = 5;
com.typemytype.robofont.guideline.magnetic.etmZdFcHPj = 5;
com.typemytype.robofont.guideline.magnetic.grACk2t8sd = 5;
com.typemytype.robofont.guideline.magnetic.iYw45XIMy5 = 5;
};
width = 220;
},
{
anchors = (
{
name = bottom;
pos = (75,0);
},
{
name = top;
pos = (153,481);
}
);
guides = (
{
angle = 78;
pos = (301,481);
userData = {
UFO.identifier = eFta8QiX7F;
};
}
);
layerId = "97A2421D-FE16-4A26-AFBB-B9A317B3A2E5";
shapes = (
{
closed = 1;
nodes = (
(75,0,l),
(178,481,l),
(129,481,l),
(26,0,l)
);
}
);
userData = {
SBAlt = left;
com.typemytype.robofont.guideline.magnetic.J5Izm0StGq = 5;
com.typemytype.robofont.guideline.magnetic.Lr7k9jtM6W = 5;
com.typemytype.robofont.guideline.magnetic.etmZdFcHPj = 5;
com.typemytype.robofont.guideline.magnetic.grACk2t8sd = 5;
com.typemytype.robofont.guideline.magnetic.iYw45XIMy5 = 5;
};
width = 204;
}
);
unicode = 305;
},
{
glyphname = iogonek;
kernLeft = b;
kernRight = d;
lastChange = "2024-11-12 17:33:39 +0000";
layers = (
{
layerId = m001;
shapes = (
{
closed = 1;
nodes = (
(272,596,o),
(318,642,o),
(318,697,cs),
(318,742,o),
(282,777,o),
(237,777,cs),
(184,777,o),
(137,729,o),
(137,675,cs),
(137,630,o),
(171,596,o),
(217,596,cs)
);
},
{
closed = 1;
nodes = (
(91,-231,o),
(127,-222,o),
(152,-208,c),
(147,-138,l),
(136,-145,o),
(118,-149,o),
(100,-149,cs),
(75,-149,o),
(60,-136,o),
(60,-113,cs),
(60,-76,o),
(95,-38,o),
(165,0,c),
(277,516,l),
(118,516,l),
(6,0,l),
(84,0,l),
(6,-47,o),
(-32,-97,o),
(-32,-153,cs),
(-32,-201,o),
(2,-231,o),
(56,-231,cs)
);
}
);
width = 283;
},
{
layerId = "92FFDF9D-0EFB-4B63-BEE2-6F342003A4EE";
shapes = (
{
closed = 1;
nodes = (
(220,608,o),
(246,635,o),
(246,666,cs),
(246,692,o),
(226,713,o),
(200,713,cs),
(170,713,o),
(143,685,o),
(143,655,cs),
(143,628,o),
(162,608,o),
(189,608,cs)
);
},
{
closed = 1;
nodes = (
(30,-232,o),
(54,-227,o),
(72,-218,c),
(68,-178,l),
(55,-183,o),
(36,-187,o),
(22,-187,cs),
(-13,-187,o),
(-38,-168,o),
(-38,-139,cs),
(-38,-92,o),
(4,-48,o),
(93,0,c),
(199,488,l),
(128,488,l),
(21,0,l),
(33,0,l),
(-49,-48,o),
(-89,-99,o),
(-89,-154,cs),
(-89,-201,o),
(-51,-232,o),
(6,-232,cs)
);
}
);
width = 220;
},
{
layerId = "97A2421D-FE16-4A26-AFBB-B9A317B3A2E5";
shapes = (
{
closed = 1;
nodes = (
(212,607,o),
(234,629,o),
(234,657,cs),
(234,681,o),
(216,700,o),
(193,700,cs),
(165,700,o),
(143,678,o),
(143,650,cs),
(143,626,o),
(161,607,o),
(184,607,cs)
);
},
{
closed = 1;
nodes = (
(16,-232,o),
(37,-227,o),
(52,-220,c),
(49,-188,l),
(36,-193,o),
(17,-197,o),
(3,-197,cs),
(-35,-197,o),
(-62,-176,o),
(-62,-146,cs),
(-62,-102,o),
(-31,-56,o),
(75,0,c),
(178,481,l),
(129,481,l),
(26,0,l),
(27,0,l),
(-58,-44,o),
(-102,-96,o),
(-102,-154,cs),
(-102,-195,o),
(-70,-232,o),
(-5,-232,cs)
);
}
);
width = 204;
}
);
unicode = 303;
},
{
glyphname = j;
kernLeft = b;
kernRight = d;
lastChange = "2024-11-12 17:33:39 +0000";
layers = (
{
layerId = m001;
shapes = (
{
closed = 1;
nodes = (
(272,596,o),
(318,642,o),
(318,697,cs),
(318,742,o),
(282,777,o),
(237,777,cs),
(184,777,o),
(137,729,o),
(137,675,cs),
(137,630,o),
(171,596,o),
(217,596,cs)
);
},
{
closed = 1;
nodes = (
(61,-219,o),
(130,-163,o),
(152,-63,cs),
(278,516,l),
(118,516,l),
(-4,-48,ls),
(-10,-75,o),
(-26,-88,o),
(-54,-88,cs),
(-77,-88,o),
(-91,-86,o),
(-106,-82,c),
(-132,-204,l),
(-113,-212,o),
(-71,-219,o),
(-40,-219,cs)
);
}
);
userData = {
SBAlt = right;
com.typemytype.robofont.guideline.magnetic.3fWrW4koPg = 5;
com.typemytype.robofont.guideline.magnetic.JQvUkkb6NP = 5;
com.typemytype.robofont.guideline.magnetic.MDYhxBUqqL = 5;
com.typemytype.robofont.guideline.magnetic.YLqywgbo8S = 5;
com.typemytype.robofont.guideline.magnetic.jGkGNQAgks = 5;
};
width = 283;
},
{
layerId = "92FFDF9D-0EFB-4B63-BEE2-6F342003A4EE";
shapes = (
{
closed = 1;
nodes = (
(220,608,o),
(246,635,o),
(246,666,cs),
(246,692,o),
(226,713,o),
(200,713,cs),
(170,713,o),
(143,685,o),
(143,655,cs),
(143,628,o),
(162,608,o),
(189,608,cs)
);
},
{
closed = 1;
nodes = (
(8,-219,o),
(57,-176,o),
(73,-100,cs),
(200,488,l),
(128,488,l),
(4,-93,ls),
(-5,-137,o),
(-25,-154,o),
(-61,-154,cs),
(-79,-154,o),
(-91,-152,o),
(-101,-148,c),
(-115,-211,l),
(-102,-216,o),
(-81,-219,o),
(-63,-219,cs)
);
}
);
userData = {
SBAlt = right;
com.typemytype.robofont.guideline.magnetic.3fWrW4koPg = 5;
com.typemytype.robofont.guideline.magnetic.JQvUkkb6NP = 5;
com.typemytype.robofont.guideline.magnetic.MDYhxBUqqL = 5;
com.typemytype.robofont.guideline.magnetic.YLqywgbo8S = 5;
com.typemytype.robofont.guideline.magnetic.jGkGNQAgks = 5;
};
width = 220;
},
{
layerId = "97A2421D-FE16-4A26-AFBB-B9A317B3A2E5";
shapes = (
{
closed = 1;
nodes = (
(210,607,o),
(234,631,o),
(234,657,cs),
(234,682,o),
(216,700,o),
(193,700,cs),
(167,700,o),
(143,676,o),
(143,650,cs),
(143,625,o),
(161,607,o),
(184,607,cs)
);
},
{
closed = 1;
nodes = (
(1,-219,o),
(35,-186,o),
(51,-110,cs),
(178,481,l),
(129,481,l),
(4,-105,ls),
(-6,-153,o),
(-26,-173,o),
(-65,-173,cs),
(-77,-173,o),
(-90,-171,o),
(-102,-166,c),
(-112,-213,l),
(-100,-217,o),
(-84,-219,o),
(-71,-219,cs)
);
}
);
userData = {
SBAlt = right;
com.typemytype.robofont.guideline.magnetic.3fWrW4koPg = 5;
com.typemytype.robofont.guideline.magnetic.JQvUkkb6NP = 5;
com.typemytype.robofont.guideline.magnetic.MDYhxBUqqL = 5;
com.typemytype.robofont.guideline.magnetic.YLqywgbo8S = 5;
com.typemytype.robofont.guideline.magnetic.jGkGNQAgks = 5;
};
width = 204;
}
);
unicode = 106;
},
{
glyphname = jdotless;
kernLeft = n;
kernRight = q;
lastChange = "2024-11-12 17:51:29 +0000";
layers = (
{
anchors = (
{
name = top;
pos = (198,516);
}
);
layerId = m001;
shapes = (
{
closed = 1;
nodes = (
(61,-219,o),
(130,-162,o),
(152,-62,cs),
(278,516,l),
(118,516,l),
(-4,-48,ls),
(-10,-75,o),
(-26,-88,o),
(-55,-88,cs),
(-77,-88,o),
(-92,-86,o),
(-106,-82,c),
(-132,-204,l),
(-113,-212,o),
(-71,-219,o),
(-41,-219,cs)
);
}
);
userData = {
SBAlt = right;
com.typemytype.robofont.guideline.magnetic.97LX7XXmhx = 5;
com.typemytype.robofont.guideline.magnetic.B9U8lrZ7hq = 5;
com.typemytype.robofont.guideline.magnetic.ZSwIafhTlO = 5;
com.typemytype.robofont.guideline.magnetic.lIgCNpJWfY = 5;
com.typemytype.robofont.guideline.magnetic.vcsBhI9HU1 = 5;
};
width = 283;
},
{
anchors = (
{
name = top;
pos = (163,488);
}
);
layerId = "92FFDF9D-0EFB-4B63-BEE2-6F342003A4EE";
shapes = (
{
closed = 1;
nodes = (
(9,-212,o),
(59,-168,o),
(74,-92,cs),
(200,488,l),
(128,488,l),
(5,-86,ls),
(-5,-130,o),
(-24,-147,o),
(-61,-147,cs),
(-78,-147,o),
(-90,-145,o),
(-100,-141,c),
(-114,-204,l),
(-101,-209,o),
(-81,-212,o),
(-63,-212,cs)
);
}
);
userData = {
SBAlt = right;
com.typemytype.robofont.guideline.magnetic.97LX7XXmhx = 5;
com.typemytype.robofont.guideline.magnetic.B9U8lrZ7hq = 5;
com.typemytype.robofont.guideline.magnetic.ZSwIafhTlO = 5;
com.typemytype.robofont.guideline.magnetic.lIgCNpJWfY = 5;
com.typemytype.robofont.guideline.magnetic.vcsBhI9HU1 = 5;
};
width = 220;
},
{
anchors = (
{
name = top;
pos = (153,481);
}
);
layerId = "97A2421D-FE16-4A26-AFBB-B9A317B3A2E5";
shapes = (
{
closed = 1;
nodes = (
(1,-219,o),
(35,-186,o),
(51,-110,cs),
(178,481,l),
(129,481,l),
(4,-105,ls),
(-6,-153,o),
(-26,-173,o),
(-65,-173,cs),
(-77,-173,o),
(-90,-171,o),
(-102,-166,c),
(-112,-213,l),
(-100,-217,o),
(-84,-219,o),
(-71,-219,cs)
);
}
);
userData = {
SBAlt = right;
com.typemytype.robofont.guideline.magnetic.97LX7XXmhx = 5;
com.typemytype.robofont.guideline.magnetic.B9U8lrZ7hq = 5;
com.typemytype.robofont.guideline.magnetic.ZSwIafhTlO = 5;
com.typemytype.robofont.guideline.magnetic.lIgCNpJWfY = 5;
com.typemytype.robofont.guideline.magnetic.vcsBhI9HU1 = 5;
};
width = 204;
}
);
unicode = 567;
},
{
glyphname = k;
kernLeft = b;
kernRight = k;
lastChange = "2024-11-12 17:33:39 +0000";
layers = (
{
anchors = (
{
name = bottom;
pos = (251,0);
}
);
layerId = m001;
shapes = (
{
closed = 1;
nodes = (
(165,0,l),
(211,218,l),
(343,0,l),
(531,0,l),
(358,255,l),
(629,516,l),
(438,516,l),
(227,296,l),
(321,737,l),
(158,712,l),
(6,0,l)
);
}
);
width = 582;
},
{
anchors = (
{
name = bottom;
pos = (207,0);
}
);
layerId = "92FFDF9D-0EFB-4B63-BEE2-6F342003A4EE";
shapes = (
{
closed = 1;
nodes = (
(93,0,l),
(142,236,l),
(330,0,l),
(415,0,l),
(213,250,l),
(517,488,l),
(421,488,l),
(150,273,l),
(247,737,l),
(173,722,l),
(21,0,l)
);
}
);
width = 478;
},
{
anchors = (
{
name = bottom;
pos = (197,0);
}
);
layerId = "97A2421D-FE16-4A26-AFBB-B9A317B3A2E5";
shapes = (
{
closed = 1;
nodes = (
(76,0,l),
(126,238,l),
(328,0,l),
(387,0,l),
(175,249,l),
(490,481,l),
(418,481,l),
(132,267,l),
(230,737,l),
(179,725,l),
(27,0,l)
);
}
);
width = 451;
}
);
unicode = 107;
},
{
glyphname = kgreenlandic;
kernLeft = n;
kernRight = k;
lastChange = "2024-11-12 17:33:39 +0000";
layers = (
{
layerId = m001;
shapes = (
{
closed = 1;
nodes = (
(165,0,l),
(212,216,l),
(343,0,l),
(531,0,l),
(358,255,l),
(629,516,l),
(438,516,l),
(230,299,l),
(277,516,l),
(120,516,l),
(6,0,l)
);
}
);
width = 582;
},
{
layerId = "92FFDF9D-0EFB-4B63-BEE2-6F342003A4EE";
shapes = (
{
closed = 1;
nodes = (
(93,0,l),
(143,230,l),
(321,0,l),
(408,0,l),
(213,247,l),
(521,488,l),
(425,488,l),
(152,270,l),
(199,488,l),
(128,488,l),
(21,0,l)
);
}
);
width = 478;
},
{
layerId = "97A2421D-FE16-4A26-AFBB-B9A317B3A2E5";
shapes = (
{
closed = 1;
nodes = (
(76,0,l),
(128,236,l),
(328,0,l),
(387,0,l),
(175,249,l),
(490,481,l),
(418,481,l),
(135,270,l),
(181,481,l),
(132,481,l),
(27,0,l)
);
}
);
width = 451;
}
);
unicode = 312;
},
{
glyphname = l;
kernLeft = b;
kernRight = d;
lastChange = "2024-11-12 17:33:39 +0000";
layers = (
{
anchors = (
{
name = bottom;
pos = (85,0);
},
{
name = top;
pos = (233,700);
}
);
layerId = m001;
shapes = (
{
closed = 1;
nodes = (
(165,0,l),
(321,737,l),
(158,712,l),
(6,0,l)
);
}
);
userData = {
SBAlt = left;
};
width = 283;
},
{
anchors = (
{
name = bottom;
pos = (57,0);
},
{
name = top;
pos = (203,700);
}
);
layerId = "92FFDF9D-0EFB-4B63-BEE2-6F342003A4EE";
shapes = (
{
closed = 1;
nodes = (
(93,0,l),
(246,737,l),
(172,722,l),
(21,0,l)
);
}
);
userData = {
SBAlt = left;
};
width = 220;
},
{
anchors = (
{
name = bottom;
pos = (51,0);
},
{
name = top;
pos = (200,680);
}
);
layerId = "97A2421D-FE16-4A26-AFBB-B9A317B3A2E5";
shapes = (
{
closed = 1;
nodes = (
(76,0,l),
(230,737,l),
(179,725,l),
(27,0,l)
);
}
);
userData = {
SBAlt = left;
};
width = 204;
}
);
unicode = 108;
},
{
glyphname = lslash;
kernLeft = b;
lastChange = "2024-11-12 17:33:39 +0000";
layers = (
{
layerId = m001;
shapes = (
{
closed = 1;
nodes = (
(193,0,l),
(263,331,l),
(363,393,l),
(394,545,l),
(295,484,l),
(349,737,l),
(186,712,l),
(113,371,l),
(17,311,l),
(-14,160,l),
(81,218,l),
(34,0,l)
);
}
);
width = 336;
},
{
layerId = "92FFDF9D-0EFB-4B63-BEE2-6F342003A4EE";
shapes = (
{
closed = 1;
nodes = (
(118,0,l),
(193,359,l),
(302,436,l),
(319,513,l),
(209,436,l),
(270,730,l),
(196,715,l),
(125,378,l),
(21,305,l),
(4,227,l),
(109,301,l),
(46,0,l)
);
}
);
width = 257;
},
{
layerId = "97A2421D-FE16-4A26-AFBB-B9A317B3A2E5";
shapes = (
{
closed = 1;
nodes = (
(94,0,l),
(166,345,l),
(281,440,l),
(293,502,l),
(179,407,l),
(248,737,l),
(197,725,l),
(122,366,l),
(5,269,l),
(-8,207,l),
(109,305,l),
(45,0,l)
);
}
);
width = 236;
}
);
unicode = 322;
},
{
glyphname = m;
kernLeft = n;
kernRight = n;
lastChange = "2024-11-12 17:33:39 +0000";
layers = (
{
layerId = m001;
shapes = (
{
closed = 1;
nodes = (
(165,0,l),
(242,356,l),
(270,385,o),
(292,397,o),
(318,397,cs),
(366,397,o),
(389,362,o),
(378,307,cs),
(314,0,l),
(473,0,l),
(543,332,ls),
(544,339,o),
(546,345,o),
(546,351,c),
(575,384,o),
(599,397,o),
(626,397,cs),
(673,397,o),
(697,360,o),
(686,307,cs),
(622,0,l),
(781,0,l),
(851,332,ls),
(874,442,o),
(824,522,o),
(731,522,cs),
(662,522,o),
(598,484,o),
(546,413,c),
(535,479,o),
(488,522,o),
(420,522,cs),
(361,522,o),
(306,488,o),
(256,421,c),
(277,516,l),
(118,516,l),
(6,0,l)
);
}
);
userData = {
com.typemytype.robofont.guideline.magnetic.2p700Jnc6A = 5;
com.typemytype.robofont.guideline.magnetic.A1LnxY8ZDp = 5;
com.typemytype.robofont.guideline.magnetic.HwhaXdJhkL = 5;
};
width = 895;
},
{
layerId = "92FFDF9D-0EFB-4B63-BEE2-6F342003A4EE";
shapes = (
{
closed = 1;
nodes = (
(93,0,l),
(172,363,l),
(210,411,o),
(253,435,o),
(301,435,cs),
(372,435,o),
(409,376,o),
(390,291,cs),
(327,0,l),
(399,0,l),
(465,306,ls),
(469,323,o),
(470,339,o),
(470,354,c),
(514,410,o),
(558,435,o),
(606,435,cs),
(676,435,o),
(714,378,o),
(696,298,cs),
(632,0,l),
(703,0,l),
(769,306,ls),
(793,414,o),
(738,495,o),
(639,495,cs),
(576,495,o),
(519,463,o),
(465,396,c),
(449,456,o),
(401,495,o),
(332,495,cs),
(277,495,o),
(228,468,o),
(183,413,c),
(199,488,l),
(128,488,l),
(21,0,l)
);
}
);
userData = {
com.typemytype.robofont.guideline.magnetic.2p700Jnc6A = 5;
com.typemytype.robofont.guideline.magnetic.A1LnxY8ZDp = 5;
com.typemytype.robofont.guideline.magnetic.HwhaXdJhkL = 5;
};
width = 828;
},
{
layerId = "97A2421D-FE16-4A26-AFBB-B9A317B3A2E5";
shapes = (
{
closed = 1;
nodes = (
(76,0,l),
(154,362,l),
(192,416,o),
(243,445,o),
(298,445,cs),
(373,445,o),
(415,382,o),
(394,286,cs),
(332,0,l),
(381,0,l),
(446,299,ls),
(450,318,o),
(452,337,o),
(451,354,c),
(497,412,o),
(546,445,o),
(604,445,cs),
(680,445,o),
(720,382,o),
(701,295,cs),
(637,0,l),
(686,0,l),
(751,299,ls),
(775,411,o),
(715,489,o),
(618,489,cs),
(557,489,o),
(501,458,o),
(445,392,c),
(428,452,o),
(379,489,o),
(311,489,cs),
(255,489,o),
(207,461,o),
(164,410,c),
(179,481,l),
(130,481,l),
(27,0,l)
);
}
);
userData = {
com.typemytype.robofont.guideline.magnetic.2p700Jnc6A = 5;
com.typemytype.robofont.guideline.magnetic.A1LnxY8ZDp = 5;
com.typemytype.robofont.guideline.magnetic.HwhaXdJhkL = 5;
};
width = 811;
}
);
unicode = 109;
},
{
glyphname = n;
kernLeft = n;
kernRight = n;
lastChange = "2024-11-12 17:33:39 +0000";
layers = (
{
anchors = (
{
name = bottom;
pos = (244,0);
},
{
name = top;
pos = (356,516);
}
);
layerId = m001;
shapes = (
{
closed = 1;
nodes = (
(165,0,l),
(243,358,l),
(270,385,o),
(297,397,o),
(328,397,cs),
(382,397,o),
(410,356,o),
(397,297,cs),
(333,0,l),
(492,0,l),
(564,337,ls),
(588,447,o),
(533,522,o),
(429,522,cs),
(366,522,o),
(308,492,o),
(260,436,c),
(277,516,l),
(118,516,l),
(6,0,l)
);
}
);
userData = {
com.typemytype.robofont.guideline.magnetic.g3Kj9ur6zR = 5;
com.typemytype.robofont.guideline.magnetic.sNoCRITGuy = 5;
com.typemytype.robofont.guideline.magnetic.z3TATrT8em = 5;
};
width = 606;
},
{
anchors = (
{
name = bottom;
pos = (216,0);
},
{
name = top;
pos = (320,488);
}
);
layerId = "92FFDF9D-0EFB-4B63-BEE2-6F342003A4EE";
shapes = (
{
closed = 1;
nodes = (
(93,0,l),
(173,367,l),
(210,411,o),
(256,435,o),
(306,435,cs),
(387,435,o),
(428,375,o),
(408,285,cs),
(346,0,l),
(418,0,l),
(482,300,ls),
(507,413,o),
(447,495,o),
(337,495,cs),
(279,495,o),
(227,469,o),
(184,417,c),
(199,488,l),
(128,488,l),
(21,0,l)
);
}
);
userData = {
com.typemytype.robofont.guideline.magnetic.g3Kj9ur6zR = 5;
com.typemytype.robofont.guideline.magnetic.sNoCRITGuy = 5;
com.typemytype.robofont.guideline.magnetic.z3TATrT8em = 5;
};
width = 542;
},
{
anchors = (
{
name = bottom;
pos = (213,0);
},
{
name = top;
pos = (315,481);
}
);
guides = (
{
angle = 78;
pos = (361,0);
userData = {
UFO.identifier = yPPhgl9m63;
};
}
);
layerId = "97A2421D-FE16-4A26-AFBB-B9A317B3A2E5";
shapes = (
{
closed = 1;
nodes = (
(76,0,l),
(154,366,l),
(191,416,o),
(245,445,o),
(302,445,cs),
(389,445,o),
(433,381,o),
(412,282,cs),
(351,0,l),
(400,0,l),
(462,290,ls),
(487,409,o),
(422,489,o),
(315,489,cs),
(256,489,o),
(207,462,o),
(164,412,c),
(179,481,l),
(130,481,l),
(27,0,l)
);
}
);
userData = {
com.typemytype.robofont.guideline.magnetic.g3Kj9ur6zR = 5;
com.typemytype.robofont.guideline.magnetic.sNoCRITGuy = 5;
com.typemytype.robofont.guideline.magnetic.z3TATrT8em = 5;
};
width = 525;
}
);
unicode = 110;
},
{
glyphname = eng;
kernLeft = n;
kernRight = n;
lastChange = "2024-11-12 17:33:39 +0000";
layers = (
{
layerId = m001;
shapes = (
{
closed = 1;
nodes = (
(389,-219,o),
(458,-163,o),
(480,-61,cs),
(564,337,ls),
(587,445,o),
(530,522,o),
(429,522,cs),
(366,522,o),
(308,492,o),
(260,436,c),
(277,516,l),
(118,516,l),
(6,0,l),
(165,0,l),
(243,358,l),
(270,385,o),
(297,397,o),
(328,397,cs),
(382,397,o),
(410,356,o),
(397,297,cs),
(324,-44,ls),
(318,-71,o),
(302,-84,o),
(275,-84,cs),
(252,-84,o),
(238,-82,o),
(223,-78,c),
(197,-204,l),
(216,-212,o),
(258,-219,o),
(288,-219,cs)
);
}
);
width = 607;
},
{
layerId = "92FFDF9D-0EFB-4B63-BEE2-6F342003A4EE";
shapes = (
{
closed = 1;
nodes = (
(333,-212,o),
(383,-168,o),
(399,-92,cs),
(483,303,ls),
(508,414,o),
(447,495,o),
(337,495,cs),
(279,495,o),
(227,469,o),
(184,417,c),
(199,488,l),
(128,488,l),
(21,0,l),
(93,0,l),
(173,367,l),
(210,411,o),
(256,435,o),
(306,435,cs),
(386,435,o),
(427,375,o),
(408,286,cs),
(329,-85,ls),
(320,-128,o),
(301,-146,o),
(264,-146,cs),
(247,-146,o),
(235,-144,o),
(224,-140,c),
(211,-204,l),
(224,-209,o),
(244,-212,o),
(262,-212,cs)
);
}
);
width = 542;
},
{
layerId = "97A2421D-FE16-4A26-AFBB-B9A317B3A2E5";
shapes = (
{
closed = 1;
nodes = (
(326,-219,o),
(359,-187,o),
(376,-110,cs),
(462,290,ls),
(488,409,o),
(422,489,o),
(315,489,cs),
(257,489,o),
(209,463,o),
(166,414,c),
(181,481,l),
(132,481,l),
(27,0,l),
(76,0,l),
(157,369,l),
(195,418,o),
(247,445,o),
(302,445,cs),
(389,445,o),
(433,381,o),
(412,282,cs),
(329,-105,ls),
(319,-153,o),
(299,-173,o),
(260,-173,cs),
(248,-173,o),
(235,-171,o),
(223,-166,c),
(213,-213,l),
(225,-217,o),
(241,-219,o),
(254,-219,cs)
);
}
);
width = 525;
}
);
unicode = 331;
},
{
glyphname = o;
kernLeft = o;
kernRight = o;
lastChange = "2024-11-12 17:33:39 +0000";
layers = (
{
anchors = (
{
name = top;
pos = (331,516);
}
);
layerId = m001;
shapes = (
{
closed = 1;
nodes = (
(440,-10,o),
(570,123,o),
(570,284,cs),
(570,424,o),
(468,525,o),
(328,525,cs),
(168,525,o),
(40,394,o),
(40,231,cs),
(40,92,o),
(143,-10,o),
(282,-10,cs)
);
},
{
closed = 1;
nodes = (
(233,127,o),
(196,170,o),
(196,239,cs),
(196,324,o),
(250,390,o),
(318,390,cs),
(377,390,o),
(414,348,o),
(414,280,cs),
(414,192,o),
(362,127,o),
(291,127,cs)
);
}
);
userData = {
com.typemytype.robofont.guideline.magnetic.GFdcbLeA44 = 5;
com.typemytype.robofont.guideline.magnetic.L2oGOM2VOm = 5;
com.typemytype.robofont.guideline.magnetic.bfCfVZKlFe = 5;
};
width = 610;
},
{
anchors = (
{
name = top;
pos = (309,488);
}
);
layerId = "92FFDF9D-0EFB-4B63-BEE2-6F342003A4EE";
shapes = (
{
closed = 1;
nodes = (
(402,-10,o),
(518,116,o),
(518,269,cs),
(518,403,o),
(432,497,o),
(307,497,cs),
(166,497,o),
(51,372,o),
(51,218,cs),
(51,85,o),
(139,-10,o),
(261,-10,cs)
);
},
{
closed = 1;
nodes = (
(180,55,o),
(122,122,o),
(122,219,cs),
(122,337,o),
(203,433,o),
(304,433,cs),
(389,433,o),
(446,366,o),
(446,269,cs),
(446,150,o),
(366,55,o),
(265,55,cs)
);
}
);
userData = {
com.typemytype.robofont.guideline.magnetic.GFdcbLeA44 = 5;
com.typemytype.robofont.guideline.magnetic.L2oGOM2VOm = 5;
com.typemytype.robofont.guideline.magnetic.bfCfVZKlFe = 5;
};
width = 570;
},
{
anchors = (
{
name = top;
pos = (313,481);
}
);
guides = (
{
pos = (544,264);
userData = {
UFO.identifier = IEdGOdfLl3;
};
}
);
layerId = "97A2421D-FE16-4A26-AFBB-B9A317B3A2E5";
shapes = (
{
closed = 1;
nodes = (
(400,-11,o),
(506,136,o),
(506,278,cs),
(506,403,o),
(425,489,o),
(314,489,cs),
(160,489,o),
(54,342,o),
(54,200,cs),
(54,75,o),
(135,-11,o),
(246,-11,cs)
);
},
{
closed = 1;
nodes = (
(161,35,o),
(103,101,o),
(103,199,cs),
(103,336,o),
(203,443,o),
(312,443,cs),
(399,443,o),
(457,377,o),
(457,279,cs),
(457,142,o),
(357,35,o),
(248,35,cs)
);
}
);
userData = {
com.typemytype.robofont.guideline.magnetic.GFdcbLeA44 = 5;
com.typemytype.robofont.guideline.magnetic.L2oGOM2VOm = 5;
com.typemytype.robofont.guideline.magnetic.bfCfVZKlFe = 5;
};
width = 560;
}
);
unicode = 111;
},
{
glyphname = oslash;
kernLeft = o;
kernRight = o;
lastChange = "2024-11-12 17:33:39 +0000";
layers = (
{
layerId = m001;
shapes = (
{
closed = 1;
nodes = (
(440,-10,o),
(570,123,o),
(570,284,cs),
(570,337,o),
(556,384,o),
(530,422,c),
(628,516,l),
(517,516,l),
(477,478,l),
(437,508,o),
(386,525,o),
(328,525,cs),
(168,525,o),
(40,394,o),
(40,231,cs),
(40,179,o),
(54,132,o),
(80,94,c),
(-17,0,l),
(92,0,l),
(132,38,l),
(172,8,o),
(224,-10,o),
(282,-10,cs)
);
},
{
closed = 1;
nodes = (
(197,218,o),
(196,228,o),
(196,239,cs),
(196,324,o),
(250,390,o),
(318,390,cs),
(339,390,o),
(357,385,o),
(371,375,c),
(199,208,l)
);
},
{
closed = 1;
nodes = (
(271,127,o),
(254,132,o),
(239,142,c),
(412,308,l),
(413,299,o),
(414,290,o),
(414,280,cs),
(414,192,o),
(362,127,o),
(291,127,cs)
);
}
);
width = 611;
},
{
layerId = "92FFDF9D-0EFB-4B63-BEE2-6F342003A4EE";
shapes = (
{
closed = 1;
nodes = (
(402,-10,o),
(518,116,o),
(518,269,cs),
(518,322,o),
(505,369,o),
(481,406,c),
(568,493,l),
(502,493,l),
(451,442,l),
(414,477,o),
(365,497,o),
(307,497,cs),
(166,497,o),
(51,372,o),
(51,218,cs),
(51,165,o),
(65,118,o),
(89,81,c),
(3,-5,l),
(68,-5,l),
(119,46,l),
(155,10,o),
(204,-10,o),
(261,-10,cs)
);
},
{
closed = 1;
nodes = (
(129,157,o),
(122,186,o),
(122,219,cs),
(122,337,o),
(203,433,o),
(304,433,cs),
(344,433,o),
(377,418,o),
(402,393,c),
(141,132,l)
);
},
{
closed = 1;
nodes = (
(226,55,o),
(192,69,o),
(168,94,c),
(428,354,l),
(440,330,o),
(446,301,o),
(446,269,cs),
(446,150,o),
(366,55,o),
(265,55,cs)
);
}
);
width = 570;
},
{
layerId = "97A2421D-FE16-4A26-AFBB-B9A317B3A2E5";
shapes = (
{
closed = 1;
nodes = (
(400,-11,o),
(506,136,o),
(506,278,cs),
(506,326,o),
(494,368,o),
(474,401,c),
(555,481,l),
(496,481,l),
(448,434,l),
(414,469,o),
(368,489,o),
(314,489,cs),
(160,489,o),
(54,342,o),
(54,200,cs),
(54,154,o),
(65,112,o),
(85,79,c),
(4,0,l),
(63,0,l),
(110,46,l),
(144,10,o),
(191,-11,o),
(246,-11,cs)
);
},
{
closed = 1;
nodes = (
(109,138,o),
(103,167,o),
(103,199,cs),
(103,336,o),
(203,443,o),
(312,443,cs),
(354,443,o),
(389,428,o),
(414,401,c),
(121,114,l)
);
},
{
closed = 1;
nodes = (
(205,35,o),
(169,51,o),
(144,79,c),
(438,367,l),
(450,342,o),
(457,312,o),
(457,279,cs),
(457,142,o),
(357,35,o),
(248,35,cs)
);
}
);
width = 559;
}
);
unicode = 248;
},
{
glyphname = oe;
kernLeft = o;
kernRight = e;
lastChange = "2024-11-12 17:33:39 +0000";
layers = (
{
layerId = m001;
shapes = (
{
closed = 1;
nodes = (
(357,-10,o),
(425,21,o),
(476,72,c),
(520,21,o),
(588,-10,o),
(668,-10,cs),
(743,-10,o),
(803,10,o),
(869,58,c),
(782,155,l),
(758,130,o),
(724,117,o),
(685,117,cs),
(623,117,o),
(578,157,o),
(569,217,c),
(915,217,l),
(919,238,o),
(921,262,o),
(921,293,cs),
(921,430,o),
(830,525,o),
(696,525,cs),
(624,525,o),
(557,494,o),
(507,445,c),
(465,495,o),
(402,525,o),
(328,525,cs),
(168,525,o),
(40,393,o),
(40,231,cs),
(40,92,o),
(143,-10,o),
(282,-10,cs)
);
},
{
closed = 1;
nodes = (
(233,127,o),
(196,170,o),
(196,239,cs),
(196,323,o),
(250,390,o),
(318,390,cs),
(377,390,o),
(414,347,o),
(414,280,cs),
(414,192,o),
(362,127,o),
(291,127,cs)
);
},
{
closed = 1;
nodes = (
(738,398,o),
(773,363,o),
(781,308,c),
(579,308,l),
(598,362,o),
(638,398,o),
(687,398,cs)
);
}
);
width = 961;
},
{
layerId = "92FFDF9D-0EFB-4B63-BEE2-6F342003A4EE";
shapes = (
{
closed = 1;
nodes = (
(348,-10,o),
(425,38,o),
(471,111,c),
(505,37,o),
(578,-9,o),
(670,-9,cs),
(730,-9,o),
(783,7,o),
(840,45,c),
(802,97,l),
(768,70,o),
(720,54,o),
(673,54,cs),
(581,54,o),
(514,130,o),
(518,228,c),
(892,228,l),
(894,247,o),
(895,263,o),
(895,281,cs),
(895,406,o),
(813,496,o),
(699,496,cs),
(615,496,o),
(540,449,o),
(495,377,c),
(462,451,o),
(394,497,o),
(307,497,cs),
(166,497,o),
(51,372,o),
(51,218,cs),
(51,85,o),
(139,-10,o),
(261,-10,cs)
);
},
{
closed = 1;
nodes = (
(180,55,o),
(122,122,o),
(122,219,cs),
(122,337,o),
(203,433,o),
(304,433,cs),
(389,433,o),
(446,366,o),
(446,269,cs),
(446,150,o),
(366,55,o),
(265,55,cs)
);
},
{
closed = 1;
nodes = (
(771,432,o),
(829,365,o),
(827,280,c),
(525,280,l),
(547,369,o),
(613,432,o),
(694,432,cs)
);
}
);
width = 941;
},
{
layerId = "97A2421D-FE16-4A26-AFBB-B9A317B3A2E5";
shapes = (
{
closed = 1;
nodes = (
(344,-11,o),
(422,50,o),
(465,131,c),
(492,47,o),
(565,-10,o),
(657,-10,cs),
(712,-10,o),
(768,8,o),
(821,43,c),
(795,81,l),
(749,51,o),
(701,36,o),
(658,36,cs),
(556,36,o),
(490,119,o),
(503,231,c),
(884,231,l),
(887,253,o),
(888,274,o),
(888,295,cs),
(888,408,o),
(814,489,o),
(709,489,cs),
(619,489,o),
(538,433,o),
(493,351,c),
(468,435,o),
(400,489,o),
(314,489,cs),
(160,489,o),
(54,342,o),
(54,200,cs),
(54,75,o),
(135,-11,o),
(246,-11,cs)
);
},
{
closed = 1;
nodes = (
(161,35,o),
(103,101,o),
(103,199,cs),
(103,336,o),
(203,443,o),
(312,443,cs),
(399,443,o),
(457,377,o),
(457,279,cs),
(457,142,o),
(357,35,o),
(248,35,cs)
);
},
{
closed = 1;
nodes = (
(795,443,o),
(848,368,o),
(839,272,c),
(511,272,l),
(538,371,o),
(618,443,o),
(706,443,cs)
);
}
);
width = 933;
}
);
unicode = 339;
},
{
glyphname = p;
kernLeft = n;
kernRight = o;
lastChange = "2024-11-12 17:33:39 +0000";
layers = (
{
layerId = m001;
shapes = (
{
closed = 1;
nodes = (
(119,-209,l),
(183,78,l),
(214,25,o),
(265,-3,o),
(330,-3,cs),
(474,-3,o),
(591,125,o),
(591,283,cs),
(591,415,o),
(506,519,o),
(397,519,cs),
(347,519,o),
(300,499,o),
(265,464,c),
(275,516,l),
(118,516,l),
(-40,-209,l)
);
},
{
closed = 1;
nodes = (
(390,386,o),
(436,338,o),
(436,270,cs),
(436,191,o),
(380,131,o),
(305,131,cs),
(264,131,o),
(227,150,o),
(205,180,c),
(242,352,l),
(268,375,o),
(295,386,o),
(327,386,cs)
);
}
);
userData = {
com.typemytype.robofont.guideline.magnetic.1d19P4aoXY = 5;
com.typemytype.robofont.guideline.magnetic.nnMhkbhLuZ = 5;
com.typemytype.robofont.guideline.magnetic.t45J0IqYLj = 5;
};
width = 631;
},
{
layerId = "92FFDF9D-0EFB-4B63-BEE2-6F342003A4EE";
shapes = (
{
closed = 1;
nodes = (
(50,-209,l),
(111,74,l),
(144,21,o),
(200,-8,o),
(267,-8,cs),
(406,-8,o),
(520,118,o),
(520,271,cs),
(520,398,o),
(437,492,o),
(325,492,cs),
(272,492,o),
(225,472,o),
(187,436,c),
(198,488,l),
(128,488,l),
(-22,-209,l)
);
},
{
closed = 1;
nodes = (
(388,430,o),
(449,363,o),
(449,265,cs),
(449,148,o),
(365,56,o),
(258,56,cs),
(201,56,o),
(148,87,o),
(123,133,c),
(176,380,l),
(211,412,o),
(254,430,o),
(299,430,cs)
);
}
);
userData = {
com.typemytype.robofont.guideline.magnetic.1d19P4aoXY = 5;
com.typemytype.robofont.guideline.magnetic.nnMhkbhLuZ = 5;
com.typemytype.robofont.guideline.magnetic.t45J0IqYLj = 5;
};
width = 571;
},
{
layerId = "97A2421D-FE16-4A26-AFBB-B9A317B3A2E5";
shapes = (
{
closed = 1;
nodes = (
(33,-209,l),
(94,74,l),
(128,21,o),
(184,-8,o),
(253,-8,cs),
(390,-8,o),
(503,117,o),
(503,269,cs),
(503,395,o),
(421,487,o),
(308,487,cs),
(256,487,o),
(209,468,o),
(169,432,c),
(180,481,l),
(132,481,l),
(-16,-209,l)
);
},
{
closed = 1;
nodes = (
(389,441,o),
(454,369,o),
(454,265,cs),
(454,139,o),
(363,38,o),
(248,38,cs),
(186,38,o),
(129,72,o),
(104,122,c),
(161,388,l),
(197,422,o),
(244,441,o),
(294,441,cs)
);
}
);
userData = {
com.typemytype.robofont.guideline.magnetic.1d19P4aoXY = 5;
com.typemytype.robofont.guideline.magnetic.nnMhkbhLuZ = 5;
com.typemytype.robofont.guideline.magnetic.t45J0IqYLj = 5;
};
width = 555;
}
);
unicode = 112;
},
{
glyphname = thorn;
kernLeft = b;
kernRight = o;
lastChange = "2024-11-12 17:33:39 +0000";
layers = (
{
layerId = m001;
shapes = (
{
closed = 1;
nodes = (
(119,-209,l),
(181,81,l),
(211,27,o),
(264,-3,o),
(330,-3,cs),
(474,-3,o),
(591,125,o),
(591,283,cs),
(591,415,o),
(506,519,o),
(397,519,cs),
(345,519,o),
(297,498,o),
(262,461,c),
(321,737,l),
(158,712,l),
(-40,-209,l)
);
},
{
closed = 1;
nodes = (
(390,386,o),
(436,338,o),
(436,270,cs),
(436,191,o),
(380,131,o),
(305,131,cs),
(263,131,o),
(225,151,o),
(203,183,c),
(238,348,l),
(265,374,o),
(293,386,o),
(327,386,cs)
);
}
);
width = 632;
},
{
layerId = "92FFDF9D-0EFB-4B63-BEE2-6F342003A4EE";
shapes = (
{
closed = 1;
nodes = (
(49,-209,l),
(109,77,l),
(142,22,o),
(198,-8,o),
(267,-8,cs),
(406,-8,o),
(520,118,o),
(520,271,cs),
(520,398,o),
(437,492,o),
(325,492,cs),
(270,492,o),
(221,471,o),
(182,432,c),
(246,737,l),
(172,722,l),
(-23,-209,l)
);
},
{
closed = 1;
nodes = (
(388,430,o),
(449,363,o),
(449,265,cs),
(449,148,o),
(365,56,o),
(258,56,cs),
(200,56,o),
(145,89,o),
(121,137,c),
(171,375,l),
(206,410,o),
(251,430,o),
(299,430,cs)
);
}
);
width = 571;
},
{
layerId = "97A2421D-FE16-4A26-AFBB-B9A317B3A2E5";
shapes = (
{
closed = 1;
nodes = (
(33,-209,l),
(94,74,l),
(128,21,o),
(184,-8,o),
(253,-8,cs),
(390,-8,o),
(503,117,o),
(503,269,cs),
(503,395,o),
(421,487,o),
(308,487,cs),
(256,487,o),
(209,468,o),
(169,432,c),
(234,737,l),
(183,725,l),
(-16,-209,l)
);
},
{
closed = 1;
nodes = (
(389,441,o),
(454,369,o),
(454,265,cs),
(454,139,o),
(363,38,o),
(248,38,cs),
(186,38,o),
(129,72,o),
(104,122,c),
(161,388,l),
(197,422,o),
(244,441,o),
(294,441,cs)
);
}
);
width = 555;
}
);
unicode = 254;
},
{
glyphname = q;
kernLeft = o;
kernRight = q;
lastChange = "2024-11-12 17:33:39 +0000";
layers = (
{
layerId = m001;
shapes = (
{
closed = 1;
nodes = (
(467,-209,l),
(624,516,l),
(467,516,l),
(451,438,l),
(419,491,o),
(367,519,o),
(302,519,cs),
(158,519,o),
(41,391,o),
(41,233,cs),
(41,101,o),
(126,-3,o),
(235,-3,cs),
(284,-3,o),
(330,16,o),
(364,47,c),
(308,-209,l)
);
},
{
closed = 1;
nodes = (
(242,130,o),
(197,179,o),
(197,246,cs),
(197,325,o),
(253,385,o),
(327,385,cs),
(368,385,o),
(404,368,o),
(428,340,c),
(390,164,l),
(364,141,o),
(337,130,o),
(305,130,cs)
);
}
);
userData = {
com.typemytype.robofont.guideline.magnetic.GUrsLFYDTC = 5;
com.typemytype.robofont.guideline.magnetic.W9zBSxFKZ7 = 5;
com.typemytype.robofont.guideline.magnetic.nsRZ48vRkR = 5;
};
width = 630;
},
{
layerId = "92FFDF9D-0EFB-4B63-BEE2-6F342003A4EE";
shapes = (
{
closed = 1;
nodes = (
(399,-209,l),
(549,488,l),
(477,488,l),
(460,410,l),
(425,464,o),
(370,493,o),
(303,493,cs),
(164,493,o),
(51,367,o),
(51,214,cs),
(51,88,o),
(133,-7,o),
(245,-7,cs),
(298,-7,o),
(344,12,o),
(382,47,c),
(327,-209,l)
);
},
{
closed = 1;
nodes = (
(183,56,o),
(122,123,o),
(122,220,cs),
(122,337,o),
(206,429,o),
(312,429,cs),
(370,429,o),
(422,398,o),
(448,353,c),
(395,106,l),
(360,73,o),
(317,56,o),
(271,56,cs)
);
}
);
userData = {
com.typemytype.robofont.guideline.magnetic.GUrsLFYDTC = 5;
com.typemytype.robofont.guideline.magnetic.W9zBSxFKZ7 = 5;
com.typemytype.robofont.guideline.magnetic.nsRZ48vRkR = 5;
};
width = 571;
},
{
layerId = "97A2421D-FE16-4A26-AFBB-B9A317B3A2E5";
shapes = (
{
closed = 1;
nodes = (
(383,-209,l),
(531,481,l),
(482,481,l),
(465,404,l),
(428,461,o),
(369,487,o),
(305,487,cs),
(167,487,o),
(55,361,o),
(55,209,cs),
(55,83,o),
(138,-8,o),
(250,-8,cs),
(302,-8,o),
(348,9,o),
(388,46,c),
(334,-209,l)
);
},
{
closed = 1;
nodes = (
(170,36,o),
(104,107,o),
(104,213,cs),
(104,341,o),
(196,441,o),
(310,441,cs),
(373,441,o),
(429,406,o),
(454,355,c),
(398,90,l),
(361,56,o),
(313,36,o),
(264,36,cs)
);
}
);
userData = {
com.typemytype.robofont.guideline.magnetic.GUrsLFYDTC = 5;
com.typemytype.robofont.guideline.magnetic.W9zBSxFKZ7 = 5;
com.typemytype.robofont.guideline.magnetic.nsRZ48vRkR = 5;
};
width = 555;
}
);
unicode = 113;
},
{
glyphname = r;
kernLeft = n;
kernRight = r;
lastChange = "2024-11-12 17:33:39 +0000";
layers = (
{
anchors = (
{
name = bottom;
pos = (88,0);
},
{
name = top;
pos = (311,516);
}
);
layerId = m001;
shapes = (
{
closed = 1;
nodes = (
(165,0,l),
(237,333,l),
(267,368,o),
(313,389,o),
(357,389,cs),
(386,389,o),
(424,380,o),
(437,369,c),
(466,507,l),
(449,518,o),
(428,524,o),
(404,524,cs),
(349,524,o),
(301,486,o),
(253,405,c),
(277,516,l),
(118,516,l),
(6,0,l)
);
}
);
userData = {
com.typemytype.robofont.guideline.magnetic.Y5AHFPVjqV = 5;
com.typemytype.robofont.guideline.magnetic.dt4hZ5MNML = 5;
com.typemytype.robofont.guideline.magnetic.qrBjNQKFbs = 5;
};
width = 433;
},
{
anchors = (
{
name = bottom;
pos = (56,0);
},
{
name = top;
pos = (245,488);
}
);
guides = (
{
pos = (55,0);
userData = {
UFO.identifier = UENvCM4o4i;
};
}
);
layerId = "92FFDF9D-0EFB-4B63-BEE2-6F342003A4EE";
shapes = (
{
closed = 1;
nodes = (
(91,0,l),
(166,342,l),
(203,401,o),
(252,433,o),
(306,433,cs),
(326,433,o),
(349,429,o),
(361,422,c),
(376,488,l),
(364,493,o),
(343,497,o),
(325,497,cs),
(267,497,o),
(215,462,o),
(178,399,c),
(198,488,l),
(126,488,l),
(19,0,l)
);
}
);
userData = {
com.typemytype.robofont.guideline.magnetic.Y5AHFPVjqV = 5;
com.typemytype.robofont.guideline.magnetic.dt4hZ5MNML = 5;
com.typemytype.robofont.guideline.magnetic.qrBjNQKFbs = 5;
};
width = 344;
},
{
anchors = (
{
name = bottom;
pos = (49,0);
},
{
name = top;
pos = (230,481);
}
);
guides = (
{
angle = 78;
pos = (197,0);
userData = {
UFO.identifier = UENvCM4o4i;
};
}
);
layerId = "97A2421D-FE16-4A26-AFBB-B9A317B3A2E5";
shapes = (
{
closed = 1;
nodes = (
(74,0,l),
(149,345,l),
(187,409,o),
(238,445,o),
(293,445,cs),
(309,445,o),
(326,442,o),
(344,436,c),
(354,482,l),
(343,486,o),
(322,489,o),
(305,489,cs),
(248,489,o),
(197,456,o),
(161,398,c),
(179,481,l),
(130,481,l),
(25,0,l)
);
}
);
userData = {
com.typemytype.robofont.guideline.magnetic.Y5AHFPVjqV = 5;
com.typemytype.robofont.guideline.magnetic.dt4hZ5MNML = 5;
com.typemytype.robofont.guideline.magnetic.qrBjNQKFbs = 5;
};
width = 320;
}
);
unicode = 114;
},
{
glyphname = s;
kernLeft = s;
kernRight = s;
lastChange = "2024-11-12 17:33:39 +0000";
layers = (
{
anchors = (
{
name = bottom;
pos = (220,0);
},
{
name = top;
pos = (262,516);
}
);
layerId = m001;
shapes = (
{
closed = 1;
nodes = (
(360,-11,o),
(453,69,o),
(453,176,cs),
(453,241,o),
(407,289,o),
(325,310,cs),
(232,334,ls),
(199,343,o),
(188,352,o),
(188,371,cs),
(188,395,o),
(208,408,o),
(246,408,cs),
(290,408,o),
(341,389,o),
(391,353,c),
(476,450,l),
(413,499,o),
(337,525,o),
(255,525,cs),
(125,525,o),
(48,459,o),
(48,348,cs),
(48,281,o),
(91,233,o),
(170,211,cs),
(265,187,ls),
(293,180,o),
(305,169,o),
(305,151,cs),
(305,126,o),
(278,108,o),
(240,108,cs),
(191,108,o),
(145,126,o),
(75,173,c),
(-9,70,l),
(48,20,o),
(140,-11,o),
(236,-11,cs)
);
}
);
userData = {
SBAlt = right;
};
width = 505;
},
{
anchors = (
{
name = bottom;
pos = (195,0);
},
{
name = top;
pos = (233,488);
}
);
layerId = "92FFDF9D-0EFB-4B63-BEE2-6F342003A4EE";
shapes = (
{
closed = 1;
nodes = (
(310,-10,o),
(389,58,o),
(389,148,cs),
(389,209,o),
(354,244,o),
(270,268,cs),
(192,290,ls),
(141,304,o),
(122,324,o),
(122,360,cs),
(122,406,o),
(163,437,o),
(225,437,cs),
(273,437,o),
(328,414,o),
(376,374,c),
(420,423,l),
(362,472,o),
(299,497,o),
(229,497,cs),
(127,497,o),
(57,438,o),
(57,353,cs),
(57,290,o),
(93,250,o),
(170,228,cs),
(247,208,ls),
(301,192,o),
(321,173,o),
(321,139,cs),
(321,89,o),
(270,49,o),
(205,49,cs),
(146,49,o),
(105,67,o),
(47,122,c),
(3,76,l),
(55,20,o),
(125,-10,o),
(204,-10,cs)
);
}
);
userData = {
SBAlt = right;
};
width = 443;
},
{
anchors = (
{
name = bottom;
pos = (190,0);
},
{
name = top;
pos = (227,481);
}
);
layerId = "97A2421D-FE16-4A26-AFBB-B9A317B3A2E5";
shapes = (
{
closed = 1;
nodes = (
(299,-10,o),
(374,54,o),
(374,140,cs),
(374,199,o),
(339,232,o),
(257,257,cs),
(186,278,ls),
(134,293,o),
(113,316,o),
(113,357,cs),
(113,408,o),
(159,445,o),
(227,445,cs),
(275,445,o),
(322,426,o),
(380,380,c),
(410,416,l),
(354,463,o),
(291,489,o),
(228,489,cs),
(133,489,o),
(66,433,o),
(66,355,cs),
(66,292,o),
(101,254,o),
(174,233,cs),
(244,213,ls),
(304,196,o),
(327,175,o),
(327,136,cs),
(327,79,o),
(270,34,o),
(195,34,cs),
(142,34,o),
(96,53,o),
(42,102,c),
(9,70,l),
(59,17,o),
(124,-10,o),
(194,-10,cs)
);
}
);
userData = {
SBAlt = right;
};
width = 427;
}
);
note = "Version created Fri Aug  3 17:49:29 2018";
unicode = 115;
},
{
glyphname = scedilla;
kernLeft = s;
kernRight = s;
lastChange = "2024-11-12 17:33:39 +0000";
layers = (
{
layerId = m001;
shapes = (
{
closed = 1;
nodes = (
(253,-253,o),
(314,-201,o),
(314,-136,cs),
(314,-94,o),
(283,-66,o),
(229,-59,c),
(250,-11,l),
(367,-5,o),
(453,73,o),
(453,176,cs),
(453,241,o),
(407,289,o),
(325,310,cs),
(232,334,ls),
(199,343,o),
(188,352,o),
(188,371,cs),
(188,395,o),
(208,408,o),
(246,408,cs),
(290,408,o),
(341,389,o),
(391,353,c),
(476,450,l),
(413,499,o),
(337,525,o),
(255,525,cs),
(125,525,o),
(48,459,o),
(48,348,cs),
(48,281,o),
(91,233,o),
(170,211,cs),
(265,187,ls),
(293,180,o),
(305,169,o),
(305,151,cs),
(305,126,o),
(278,108,o),
(240,108,cs),
(191,108,o),
(145,126,o),
(75,173,c),
(-9,70,l),
(37,30,o),
(104,2,o),
(179,-7,c),
(135,-109,l),
(176,-109,ls),
(207,-109,o),
(227,-123,o),
(227,-144,cs),
(227,-167,o),
(206,-182,o),
(174,-182,cs),
(144,-182,o),
(116,-170,o),
(97,-150,c),
(42,-205,l),
(72,-238,o),
(116,-253,o),
(176,-253,cs)
);
}
);
width = 505;
},
{
layerId = "92FFDF9D-0EFB-4B63-BEE2-6F342003A4EE";
shapes = (
{
closed = 1;
nodes = (
(219,-239,o),
(269,-195,o),
(269,-138,cs),
(269,-97,o),
(239,-71,o),
(188,-66,c),
(213,-10,l),
(314,-6,o),
(389,60,o),
(389,148,cs),
(389,209,o),
(354,244,o),
(270,268,cs),
(192,290,ls),
(141,304,o),
(122,324,o),
(122,360,cs),
(122,406,o),
(163,437,o),
(225,437,cs),
(273,437,o),
(328,414,o),
(376,374,c),
(420,423,l),
(362,472,o),
(299,497,o),
(229,497,cs),
(127,497,o),
(57,438,o),
(57,353,cs),
(57,290,o),
(93,250,o),
(170,228,cs),
(247,208,ls),
(301,192,o),
(321,173,o),
(321,139,cs),
(321,89,o),
(270,49,o),
(205,49,cs),
(146,49,o),
(105,67,o),
(47,122,c),
(3,76,l),
(48,28,o),
(106,-1,o),
(171,-8,c),
(131,-99,l),
(159,-99,ls),
(199,-99,o),
(223,-116,o),
(223,-144,cs),
(223,-177,o),
(195,-199,o),
(151,-199,cs),
(122,-199,o),
(98,-189,o),
(78,-167,c),
(47,-197,l),
(69,-224,o),
(108,-239,o),
(153,-239,cs)
);
}
);
width = 443;
},
{
layerId = "97A2421D-FE16-4A26-AFBB-B9A317B3A2E5";
shapes = (
{
closed = 1;
nodes = (
(208,-235,o),
(256,-195,o),
(256,-138,cs),
(256,-99,o),
(228,-72,o),
(175,-68,c),
(201,-10,l),
(302,-7,o),
(374,54,o),
(374,138,cs),
(374,197,o),
(339,232,o),
(257,257,cs),
(186,278,ls),
(134,293,o),
(113,316,o),
(113,357,cs),
(113,408,o),
(159,443,o),
(227,443,cs),
(275,443,o),
(321,424,o),
(380,380,c),
(410,416,l),
(356,463,o),
(291,489,o),
(228,489,cs),
(133,489,o),
(66,435,o),
(66,357,cs),
(66,294,o),
(101,254,o),
(174,233,cs),
(244,213,ls),
(304,196,o),
(327,175,o),
(327,136,cs),
(327,79,o),
(269,36,o),
(194,36,cs),
(141,36,o),
(101,53,o),
(42,102,c),
(9,70,l),
(55,23,o),
(107,-3,o),
(168,-9,c),
(129,-96,l),
(153,-96,ls),
(194,-96,o),
(221,-113,o),
(221,-144,cs),
(221,-178,o),
(194,-204,o),
(144,-204,cs),
(115,-204,o),
(92,-194,o),
(71,-171,c),
(47,-195,l),
(65,-217,o),
(100,-235,o),
(146,-235,cs)
);
}
);
width = 427;
}
);
unicode = 351;
},
{
glyphname = germandbls;
kernLeft = b;
kernRight = s;
lastChange = "2024-11-12 17:33:39 +0000";
layers = (
{
layerId = m001;
shapes = (
{
closed = 1;
nodes = (
(548,-13,o),
(629,59,o),
(629,163,cs),
(629,216,o),
(599,262,o),
(537,293,cs),
(478,323,ls),
(462,331,o),
(454,340,o),
(454,352,cs),
(454,405,o),
(619,403,o),
(619,554,cs),
(619,659,o),
(517,737,o),
(383,737,cs),
(233,737,o),
(139,655,o),
(113,533,cs),
(0,0,l),
(161,0,l),
(267,503,ls),
(280,567,o),
(328,603,o),
(382,603,cs),
(441,603,o),
(470,576,o),
(470,537,cs),
(470,457,o),
(301,450,o),
(301,330,cs),
(301,285,o),
(325,251,o),
(376,224,cs),
(440,190,ls),
(475,171,o),
(486,160,o),
(486,143,cs),
(486,118,o),
(464,103,o),
(428,103,cs),
(386,103,o),
(340,128,o),
(305,168,c),
(222,76,l),
(270,19,o),
(347,-13,o),
(432,-13,cs)
);
}
);
width = 669;
},
{
layerId = "92FFDF9D-0EFB-4B63-BEE2-6F342003A4EE";
shapes = (
{
closed = 1;
nodes = (
(495,-12,o),
(570,55,o),
(570,146,cs),
(570,203,o),
(539,243,o),
(466,276,cs),
(402,307,ls),
(372,320,o),
(359,338,o),
(359,361,cs),
(359,451,o),
(582,432,o),
(582,603,cs),
(582,698,o),
(500,765,o),
(386,765,cs),
(251,765,o),
(157,681,o),
(128,533,cs),
(20,0,l),
(90,0,l),
(198,527,ls),
(222,642,o),
(285,701,o),
(384,701,cs),
(454,701,o),
(511,656,o),
(511,601,cs),
(511,465,o),
(289,498,o),
(289,351,cs),
(289,309,o),
(312,276,o),
(360,254,cs),
(426,225,ls),
(482,200,o),
(503,177,o),
(503,141,cs),
(503,84,o),
(460,46,o),
(395,46,cs),
(338,46,o),
(289,71,o),
(257,118,c),
(209,75,l),
(255,17,o),
(316,-12,o),
(394,-12,cs)
);
}
);
width = 620;
},
{
layerId = "97A2421D-FE16-4A26-AFBB-B9A317B3A2E5";
shapes = (
{
closed = 1;
nodes = (
(466,-10,o),
(541,50,o),
(541,132,cs),
(541,195,o),
(512,233,o),
(441,264,cs),
(378,291,ls),
(346,304,o),
(334,321,o),
(334,352,cs),
(334,441,o),
(553,431,o),
(553,582,cs),
(553,669,o),
(477,737,o),
(368,737,cs),
(252,737,o),
(171,663,o),
(140,521,cs),
(28,0,l),
(77,0,l),
(188,516,ls),
(214,635,o),
(276,691,o),
(371,691,cs),
(449,691,o),
(506,643,o),
(506,586,cs),
(506,455,o),
(287,482,o),
(287,346,cs),
(287,302,o),
(311,269,o),
(354,250,cs),
(418,223,ls),
(471,201,o),
(494,175,o),
(494,137,cs),
(494,77,o),
(442,36,o),
(365,36,cs),
(304,36,o),
(255,56,o),
(230,92,c),
(192,66,l),
(226,18,o),
(290,-10,o),
(365,-10,cs)
);
}
);
width = 595;
}
);
unicode = 223;
},
{
glyphname = t;
kernLeft = t;
kernRight = t_1;
lastChange = "2024-11-12 17:33:39 +0000";
layers = (
{
anchors = (
{
name = bottom;
pos = (245,0);
}
);
layerId = m001;
shapes = (
{
closed = 1;
nodes = (
(298,-6,o),
(338,-2,o),
(363,5,c),
(391,135,l),
(357,128,o),
(348,127,o),
(332,127,cs),
(280,127,o),
(262,146,o),
(273,193,cs),
(315,391,l),
(450,391,l),
(478,516,l),
(342,516,l),
(380,692,l),
(214,659,l),
(183,516,l),
(87,516,l),
(59,391,l),
(157,391,l),
(109,168,ls),
(85,55,o),
(139,-6,o),
(262,-6,cs)
);
}
);
userData = {
com.typemytype.robofont.guideline.magnetic.PzgL32NM0K = 5;
com.typemytype.robofont.guideline.magnetic.WcutVHa1Iu = 5;
com.typemytype.robofont.guideline.magnetic.tQ97Ub0ZXW = 5;
};
width = 449;
},
{
anchors = (
{
name = bottom;
pos = (201,0);
}
);
layerId = "92FFDF9D-0EFB-4B63-BEE2-6F342003A4EE";
shapes = (
{
closed = 1;
nodes = (
(239,-9,o),
(263,-6,o),
(286,0,c),
(300,65,l),
(272,57,o),
(260,55,o),
(244,55,cs),
(183,55,o),
(165,77,o),
(177,133,cs),
(241,428,l),
(378,428,l),
(392,488,l),
(254,488,l),
(287,639,l),
(210,622,l),
(182,488,l),
(85,488,l),
(71,428,l),
(169,428,l),
(103,117,ls),
(86,36,o),
(126,-9,o),
(215,-9,cs)
);
}
);
userData = {
com.typemytype.robofont.guideline.magnetic.PzgL32NM0K = 5;
com.typemytype.robofont.guideline.magnetic.WcutVHa1Iu = 5;
com.typemytype.robofont.guideline.magnetic.tQ97Ub0ZXW = 5;
};
width = 371;
},
{
anchors = (
{
name = bottom;
pos = (186,0);
}
);
layerId = "97A2421D-FE16-4A26-AFBB-B9A317B3A2E5";
shapes = (
{
closed = 1;
nodes = (
(221,-10,o),
(241,-7,o),
(263,0,c),
(273,46,l),
(249,39,o),
(235,36,o),
(218,36,cs),
(155,36,o),
(138,59,o),
(150,117,cs),
(218,438,l),
(357,438,l),
(366,481,l),
(227,481,l),
(258,625,l),
(206,612,l),
(178,481,l),
(80,481,l),
(71,438,l),
(169,438,l),
(100,114,ls),
(85,42,o),
(118,-10,o),
(200,-10,cs)
);
}
);
userData = {
com.typemytype.robofont.guideline.magnetic.PzgL32NM0K = 5;
com.typemytype.robofont.guideline.magnetic.WcutVHa1Iu = 5;
com.typemytype.robofont.guideline.magnetic.tQ97Ub0ZXW = 5;
};
width = 345;
}
);
unicode = 116;
},
{
glyphname = tbar;
kernLeft = t;
kernRight = t_1;
lastChange = "2024-11-12 17:33:39 +0000";
layers = (
{
layerId = m001;
shapes = (
{
closed = 1;
nodes = (
(298,-6,o),
(338,-2,o),
(363,5,c),
(391,135,l),
(357,128,o),
(348,127,o),
(332,127,cs),
(280,127,o),
(262,146,o),
(273,193,cs),
(280,226,l),
(416,226,l),
(435,314,l),
(299,314,l),
(315,391,l),
(450,391,l),
(478,516,l),
(342,516,l),
(380,692,l),
(214,659,l),
(183,516,l),
(87,516,l),
(59,391,l),
(157,391,l),
(140,314,l),
(44,314,l),
(25,226,l),
(121,226,l),
(109,168,ls),
(85,55,o),
(139,-6,o),
(262,-6,cs)
);
}
);
width = 449;
},
{
layerId = "92FFDF9D-0EFB-4B63-BEE2-6F342003A4EE";
shapes = (
{
closed = 1;
nodes = (
(239,-9,o),
(263,-6,o),
(286,0,c),
(300,65,l),
(272,57,o),
(260,55,o),
(244,55,cs),
(183,55,o),
(165,77,o),
(177,133,cs),
(204,257,l),
(339,257,l),
(351,310,l),
(215,310,l),
(241,428,l),
(378,428,l),
(392,488,l),
(254,488,l),
(287,639,l),
(210,622,l),
(182,488,l),
(85,488,l),
(71,428,l),
(169,428,l),
(144,310,l),
(47,310,l),
(34,257,l),
(133,257,l),
(103,117,ls),
(85,36,o),
(126,-9,o),
(215,-9,cs)
);
}
);
width = 371;
},
{
layerId = "97A2421D-FE16-4A26-AFBB-B9A317B3A2E5";
shapes = (
{
closed = 1;
nodes = (
(221,-10,o),
(241,-7,o),
(263,0,c),
(273,46,l),
(249,39,o),
(235,36,o),
(218,36,cs),
(155,36,o),
(138,59,o),
(150,117,cs),
(180,258,l),
(324,258,l),
(332,298,l),
(188,298,l),
(218,438,l),
(357,438,l),
(366,481,l),
(227,481,l),
(258,625,l),
(206,612,l),
(178,481,l),
(80,481,l),
(71,438,l),
(169,438,l),
(139,298,l),
(46,298,l),
(38,258,l),
(131,258,l),
(100,114,ls),
(85,42,o),
(118,-10,o),
(200,-10,cs)
);
}
);
width = 350;
}
);
unicode = 359;
},
{
glyphname = tcaron;
kernLeft = t;
kernRight = t_1;
lastChange = "2024-11-12 17:33:39 +0000";
layers = (
{
layerId = m001;
shapes = (
{
closed = 1;
nodes = (
(509,602,l),
(605,807,l),
(470,782,l),
(420,602,l)
);
},
{
ref = t;
}
);
width = 449;
},
{
layerId = "92FFDF9D-0EFB-4B63-BEE2-6F342003A4EE";
shapes = (
{
closed = 1;
nodes = (
(415,587,l),
(482,783,l),
(402,768,l),
(358,587,l)
);
},
{
ref = t;
}
);
width = 371;
},
{
layerId = "97A2421D-FE16-4A26-AFBB-B9A317B3A2E5";
shapes = (
{
closed = 1;
nodes = (
(338,552,l),
(397,737,l),
(342,725,l),
(302,552,l)
);
},
{
ref = t;
}
);
width = 345;
}
);
unicode = 357;
},
{
glyphname = tcedilla;
kernLeft = t;
kernRight = t_1;
lastChange = "2024-11-12 17:33:39 +0000";
layers = (
{
layerId = m001;
shapes = (
{
closed = 1;
nodes = (
(278,-253,o),
(339,-201,o),
(339,-136,cs),
(339,-94,o),
(308,-66,o),
(254,-59,c),
(277,-6,l),
(309,-5,o),
(342,-1,o),
(363,5,c),
(391,135,l),
(357,128,o),
(348,127,o),
(332,127,cs),
(280,127,o),
(262,146,o),
(273,193,cs),
(315,391,l),
(450,391,l),
(478,516,l),
(342,516,l),
(380,692,l),
(214,659,l),
(183,516,l),
(87,516,l),
(59,391,l),
(157,391,l),
(109,168,ls),
(89,74,o),
(123,16,o),
(207,-1,c),
(160,-109,l),
(201,-109,ls),
(232,-109,o),
(252,-123,o),
(252,-144,cs),
(252,-167,o),
(231,-182,o),
(199,-182,cs),
(169,-182,o),
(141,-170,o),
(122,-150,c),
(67,-205,l),
(97,-238,o),
(141,-253,o),
(201,-253,cs)
);
}
);
width = 449;
},
{
layerId = "92FFDF9D-0EFB-4B63-BEE2-6F342003A4EE";
shapes = (
{
closed = 1;
nodes = (
(225,-239,o),
(275,-195,o),
(275,-138,cs),
(275,-97,o),
(245,-71,o),
(194,-66,c),
(219,-9,l),
(239,-9,o),
(263,-6,o),
(286,0,c),
(300,65,l),
(272,57,o),
(260,55,o),
(244,55,cs),
(183,55,o),
(165,77,o),
(177,133,cs),
(241,428,l),
(378,428,l),
(392,488,l),
(254,488,l),
(287,639,l),
(210,622,l),
(182,488,l),
(85,488,l),
(71,428,l),
(169,428,l),
(103,117,ls),
(88,48,o),
(115,5,o),
(178,-6,c),
(137,-99,l),
(165,-99,ls),
(205,-99,o),
(229,-116,o),
(229,-144,cs),
(229,-177,o),
(201,-199,o),
(157,-199,cs),
(128,-199,o),
(104,-189,o),
(84,-167,c),
(53,-197,l),
(75,-224,o),
(114,-239,o),
(159,-239,cs)
);
}
);
width = 371;
},
{
layerId = "97A2421D-FE16-4A26-AFBB-B9A317B3A2E5";
shapes = (
{
closed = 1;
nodes = (
(209,-235,o),
(257,-195,o),
(257,-138,cs),
(257,-99,o),
(229,-72,o),
(176,-68,c),
(202,-10,l),
(221,-10,o),
(241,-7,o),
(263,0,c),
(273,46,l),
(249,39,o),
(235,36,o),
(218,36,cs),
(155,36,o),
(138,59,o),
(150,117,cs),
(218,438,l),
(357,438,l),
(366,481,l),
(227,481,l),
(258,625,l),
(206,612,l),
(178,481,l),
(80,481,l),
(71,438,l),
(169,438,l),
(100,114,ls),
(87,52,o),
(110,4,o),
(170,-7,c),
(130,-96,l),
(154,-96,ls),
(195,-96,o),
(222,-113,o),
(222,-144,cs),
(222,-178,o),
(195,-204,o),
(145,-204,cs),
(116,-204,o),
(93,-194,o),
(72,-171,c),
(48,-195,l),
(66,-217,o),
(101,-235,o),
(147,-235,cs)
);
}
);
width = 345;
}
);
unicode = 355;
},
{
glyphname = u;
kernLeft = u;
kernRight = q;
lastChange = "2024-11-12 17:33:39 +0000";
layers = (
{
anchors = (
{
name = bottom;
pos = (488,0);
},
{
name = top;
pos = (340,516);
}
);
layerId = m001;
shapes = (
{
closed = 1;
nodes = (
(240,-6,o),
(298,24,o),
(346,80,c),
(329,0,l),
(488,0,l),
(600,516,l),
(441,516,l),
(363,158,l),
(336,131,o),
(309,119,o),
(278,119,cs),
(224,119,o),
(196,160,o),
(209,219,cs),
(273,516,l),
(114,516,l),
(42,179,ls),
(19,72,o),
(75,-6,o),
(177,-6,cs)
);
}
);
userData = {
com.typemytype.robofont.guideline.magnetic.0m6we0t65U = 5;
com.typemytype.robofont.guideline.magnetic.OWRxSD6wga = 5;
com.typemytype.robofont.guideline.magnetic.t1jRErCmBp = 5;
};
width = 606;
},
{
anchors = (
{
name = bottom;
pos = (413,0);
},
{
name = top;
pos = (311,488);
}
);
layerId = "92FFDF9D-0EFB-4B63-BEE2-6F342003A4EE";
shapes = (
{
closed = 1;
nodes = (
(261,-7,o),
(312,19,o),
(356,70,c),
(341,0,l),
(413,0,l),
(519,488,l),
(447,488,l),
(367,121,l),
(330,76,o),
(284,53,o),
(234,53,cs),
(154,53,o),
(112,113,o),
(132,203,cs),
(195,488,l),
(123,488,l),
(58,189,ls),
(33,76,o),
(95,-7,o),
(203,-7,cs)
);
}
);
userData = {
com.typemytype.robofont.guideline.magnetic.0m6we0t65U = 5;
com.typemytype.robofont.guideline.magnetic.OWRxSD6wga = 5;
com.typemytype.robofont.guideline.magnetic.t1jRErCmBp = 5;
};
width = 541;
},
{
anchors = (
{
name = bottom;
pos = (394,0);
},
{
name = top;
pos = (305,481);
}
);
layerId = "97A2421D-FE16-4A26-AFBB-B9A317B3A2E5";
shapes = (
{
closed = 1;
nodes = (
(269,-8,o),
(317,18,o),
(359,66,c),
(345,0,l),
(394,0,l),
(497,481,l),
(448,481,l),
(369,111,l),
(330,63,o),
(279,36,o),
(224,36,cs),
(137,36,o),
(91,100,o),
(113,199,cs),
(175,481,l),
(126,481,l),
(63,191,ls),
(37,72,o),
(104,-8,o),
(211,-8,cs)
);
}
);
userData = {
com.typemytype.robofont.guideline.magnetic.0m6we0t65U = 5;
com.typemytype.robofont.guideline.magnetic.OWRxSD6wga = 5;
com.typemytype.robofont.guideline.magnetic.t1jRErCmBp = 5;
};
width = 524;
}
);
unicode = 117;
},
{
glyphname = uogonek;
kernLeft = u;
kernRight = q;
lastChange = "2024-11-12 17:33:39 +0000";
layers = (
{
layerId = m001;
shapes = (
{
closed = 1;
nodes = (
(414,-231,o),
(450,-222,o),
(475,-208,c),
(470,-138,l),
(459,-145,o),
(441,-149,o),
(423,-149,cs),
(398,-149,o),
(383,-136,o),
(383,-113,cs),
(383,-76,o),
(418,-38,o),
(488,0,c),
(600,516,l),
(441,516,l),
(363,158,l),
(336,131,o),
(309,119,o),
(278,119,cs),
(224,119,o),
(196,160,o),
(209,219,cs),
(273,516,l),
(114,516,l),
(42,179,ls),
(19,72,o),
(75,-6,o),
(177,-6,cs),
(240,-6,o),
(298,24,o),
(346,80,c),
(329,0,l),
(407,0,l),
(329,-47,o),
(291,-97,o),
(291,-153,cs),
(291,-201,o),
(325,-231,o),
(379,-231,cs)
);
}
);
width = 606;
},
{
layerId = "92FFDF9D-0EFB-4B63-BEE2-6F342003A4EE";
shapes = (
{
closed = 1;
nodes = (
(350,-232,o),
(374,-227,o),
(392,-218,c),
(388,-178,l),
(375,-183,o),
(356,-187,o),
(342,-187,cs),
(307,-187,o),
(282,-168,o),
(282,-139,cs),
(282,-92,o),
(324,-48,o),
(413,0,c),
(519,488,l),
(447,488,l),
(367,121,l),
(330,76,o),
(284,53,o),
(234,53,cs),
(154,53,o),
(112,113,o),
(132,203,cs),
(195,488,l),
(123,488,l),
(58,189,ls),
(33,76,o),
(95,-7,o),
(203,-7,cs),
(261,-7,o),
(312,19,o),
(356,70,c),
(341,0,l),
(353,0,l),
(271,-48,o),
(231,-99,o),
(231,-154,cs),
(231,-201,o),
(269,-232,o),
(326,-232,cs)
);
}
);
width = 541;
},
{
layerId = "97A2421D-FE16-4A26-AFBB-B9A317B3A2E5";
shapes = (
{
closed = 1;
nodes = (
(335,-232,o),
(356,-227,o),
(371,-220,c),
(368,-188,l),
(355,-193,o),
(336,-197,o),
(322,-197,cs),
(284,-197,o),
(257,-176,o),
(257,-146,cs),
(257,-102,o),
(288,-56,o),
(394,0,c),
(497,481,l),
(448,481,l),
(369,111,l),
(330,63,o),
(279,36,o),
(224,36,cs),
(137,36,o),
(91,100,o),
(113,199,cs),
(175,481,l),
(126,481,l),
(63,191,ls),
(37,72,o),
(104,-8,o),
(211,-8,cs),
(269,-8,o),
(317,18,o),
(359,66,c),
(345,0,l),
(346,0,l),
(259,-47,o),
(217,-97,o),
(217,-154,cs),
(217,-195,o),
(249,-232,o),
(314,-232,cs)
);
}
);
width = 524;
}
);
unicode = 371;
},
{
glyphname = v;
kernRight = v;
lastChange = "2024-11-12 17:33:39 +0000";
layers = (
{
layerId = m001;
shapes = (
{
closed = 1;
nodes = (
(310,0,l),
(629,516,l),
(460,516,l),
(275,189,l),
(230,516,l),
(63,516,l),
(156,0,l)
);
}
);
userData = {
SBAlt = right;
};
width = 580;
},
{
layerId = "92FFDF9D-0EFB-4B63-BEE2-6F342003A4EE";
shapes = (
{
closed = 1;
nodes = (
(224,0,l),
(528,488,l),
(448,488,l),
(210,91,l),
(143,488,l),
(68,488,l),
(156,0,l)
);
}
);
userData = {
SBAlt = right;
};
width = 491;
},
{
layerId = "97A2421D-FE16-4A26-AFBB-B9A317B3A2E5";
shapes = (
{
closed = 1;
nodes = (
(200,0,l),
(501,481,l),
(444,481,l),
(192,67,l),
(118,481,l),
(68,481,l),
(154,0,l)
);
}
);
userData = {
SBAlt = right;
};
width = 467;
}
);
unicode = 118;
},
{
glyphname = w;
kernLeft = w;
kernRight = w;
lastChange = "2024-11-12 17:33:39 +0000";
layers = (
{
anchors = (
{
name = top;
pos = (440,516);
}
);
layerId = m001;
shapes = (
{
closed = 1;
nodes = (
(248,0,l),
(393,305,l),
(410,0,l),
(562,0,l),
(807,516,l),
(659,516,l),
(526,211,l),
(505,516,l),
(374,516,l),
(226,208,l),
(220,516,l),
(72,516,l),
(96,0,l)
);
}
);
width = 767;
},
{
anchors = (
{
name = top;
pos = (394,488);
}
);
layerId = "92FFDF9D-0EFB-4B63-BEE2-6F342003A4EE";
shapes = (
{
closed = 1;
nodes = (
(176,0,l),
(374,393,l),
(403,0,l),
(473,0,l),
(710,488,l),
(639,488,l),
(457,98,l),
(426,488,l),
(362,488,l),
(165,98,l),
(149,488,l),
(81,488,l),
(106,0,l)
);
}
);
width = 684;
},
{
anchors = (
{
name = top;
pos = (377,481);
}
);
layerId = "97A2421D-FE16-4A26-AFBB-B9A317B3A2E5";
shapes = (
{
closed = 1;
nodes = (
(156,0,l),
(368,414,l),
(400,0,l),
(448,0,l),
(682,481,l),
(632,481,l),
(436,70,l),
(403,481,l),
(357,481,l),
(147,72,l),
(128,481,l),
(81,481,l),
(107,0,l)
);
}
);
width = 662;
}
);
unicode = 119;
},
{
glyphname = x;
kernRight = k;
lastChange = "2024-11-12 17:33:39 +0000";
layers = (
{
layerId = m001;
shapes = (
{
closed = 1;
nodes = (
(136,0,l),
(266,144,l),
(336,0,l),
(513,0,l),
(377,259,l),
(621,516,l),
(438,516,l),
(317,380,l),
(251,516,l),
(74,516,l),
(205,266,l),
(-46,0,l)
);
}
);
userData = {
SBAlt = right;
};
width = 578;
},
{
layerId = "92FFDF9D-0EFB-4B63-BEE2-6F342003A4EE";
shapes = (
{
closed = 1;
nodes = (
(45,0,l),
(229,199,l),
(330,0,l),
(409,0,l),
(279,249,l),
(507,488,l),
(421,488,l),
(251,304,l),
(159,488,l),
(79,488,l),
(200,257,l),
(-43,0,l)
);
}
);
userData = {
SBAlt = right;
};
width = 477;
},
{
layerId = "97A2421D-FE16-4A26-AFBB-B9A317B3A2E5";
shapes = (
{
closed = 1;
nodes = (
(24,0,l),
(224,213,l),
(331,0,l),
(386,0,l),
(259,246,l),
(482,481,l),
(421,481,l),
(238,287,l),
(140,481,l),
(85,481,l),
(204,254,l),
(-37,0,l)
);
}
);
userData = {
SBAlt = right;
};
width = 451;
}
);
unicode = 120;
},
{
glyphname = y;
kernLeft = y;
kernRight = v;
lastChange = "2024-11-12 17:33:39 +0000";
layers = (
{
anchors = (
{
name = top;
pos = (337,516);
}
);
layerId = m001;
shapes = (
{
closed = 1;
nodes = (
(137,-219,o),
(211,-172,o),
(271,-72,cs),
(624,516,l),
(451,516,l),
(255,169,l),
(222,516,l),
(58,516,l),
(132,-9,l),
(120,-31,ls),
(102,-64,o),
(74,-77,o),
(28,-77,cs),
(15,-77,o),
(-4,-75,o),
(-21,-71,c),
(-50,-206,l),
(-16,-215,o),
(12,-219,o),
(39,-219,cs)
);
}
);
width = 572;
},
{
anchors = (
{
name = top;
pos = (286,488);
}
);
layerId = "92FFDF9D-0EFB-4B63-BEE2-6F342003A4EE";
shapes = (
{
closed = 1;
nodes = (
(76,-219,o),
(122,-191,o),
(166,-117,cs),
(526,488,l),
(445,488,l),
(207,84,l),
(144,488,l),
(68,488,l),
(152,-5,l),
(100,-93,ls),
(76,-134,o),
(49,-150,o),
(10,-150,cs),
(0,-150,o),
(-12,-148,o),
(-31,-144,c),
(-44,-209,l),
(-20,-216,o),
(-4,-219,o),
(11,-219,cs)
);
}
);
width = 489;
},
{
anchors = (
{
name = top;
pos = (275,481);
}
);
layerId = "97A2421D-FE16-4A26-AFBB-B9A317B3A2E5";
shapes = (
{
closed = 1;
nodes = (
(65,-219,o),
(103,-194,o),
(141,-129,cs),
(502,481,l),
(445,481,l),
(197,62,l),
(124,481,l),
(72,481,l),
(159,-4,l),
(97,-110,ls),
(72,-153,o),
(43,-173,o),
(8,-173,cs),
(-2,-173,o),
(-15,-170,o),
(-31,-165,c),
(-40,-210,l),
(-18,-217,o),
(-5,-219,o),
(6,-219,cs)
);
}
);
width = 467;
}
);
unicode = 121;
},
{
glyphname = z;
kernLeft = z;
kernRight = z;
lastChange = "2024-11-12 17:33:39 +0000";
layers = (
{
anchors = (
{
name = top;
pos = (294,516);
}
);
layerId = m001;
shapes = (
{
closed = 1;
nodes = (
(408,0,l),
(437,135,l),
(210,133,l),
(488,403,l),
(512,516,l),
(93,516,l),
(65,380,l),
(281,382,l),
(4,113,l),
(-20,0,l)
);
}
);
width = 500;
},
{
anchors = (
{
name = top;
pos = (264,488);
}
);
layerId = "92FFDF9D-0EFB-4B63-BEE2-6F342003A4EE";
shapes = (
{
closed = 1;
nodes = (
(353,0,l),
(367,66,l),
(94,65,l),
(444,431,l),
(456,488,l),
(95,488,l),
(82,421,l),
(347,422,l),
(-2,58,l),
(-14,0,l)
);
}
);
width = 449;
},
{
anchors = (
{
name = top;
pos = (258,481);
}
);
layerId = "97A2421D-FE16-4A26-AFBB-B9A317B3A2E5";
shapes = (
{
closed = 1;
nodes = (
(340,0,l),
(350,46,l),
(65,46,l),
(434,438,l),
(443,481,l),
(98,481,l),
(88,435,l),
(368,435,l),
(-1,43,l),
(-10,0,l)
);
}
);
width = 436;
}
);
unicode = 122;
},
{
glyphname = a.ss01;
kernLeft = o;
kernRight = q;
lastChange = "2024-11-13 18:54:09 +0000";
layers = (
{
anchors = (
{
name = bottom;
pos = (512,0);
},
{
name = top;
pos = (339,516);
}
);
layerId = m001;
shapes = (
{
closed = 1;
nodes = (
(285,-3,o),
(331,16,o),
(365,48,c),
(355,0,l),
(512,0,l),
(624,516,l),
(466,516,l),
(450,441,l),
(418,491,o),
(366,519,o),
(302,519,cs),
(158,519,o),
(41,391,o),
(41,233,cs),
(41,101,o),
(126,-3,o),
(235,-3,cs)
);
},
{
closed = 1;
nodes = (
(242,130,o),
(197,179,o),
(197,246,cs),
(197,325,o),
(253,385,o),
(327,385,cs),
(368,385,o),
(404,368,o),
(428,341,c),
(389,163,l),
(364,140,o),
(337,130,o),
(305,130,cs)
);
}
);
width = 628;
},
{
anchors = (
{
name = bottom;
pos = (442,0);
},
{
name = top;
pos = (327,488);
}
);
layerId = "92FFDF9D-0EFB-4B63-BEE2-6F342003A4EE";
shapes = (
{
closed = 1;
nodes = (
(297,-7,o),
(344,12,o),
(381,46,c),
(371,0,l),
(442,0,l),
(549,488,l),
(477,488,l),
(460,411,l),
(426,464,o),
(371,493,o),
(303,493,cs),
(164,493,o),
(51,367,o),
(51,214,cs),
(51,88,o),
(133,-7,o),
(245,-7,cs)
);
},
{
closed = 1;
nodes = (
(183,56,o),
(122,123,o),
(122,220,cs),
(122,337,o),
(206,429,o),
(312,429,cs),
(369,429,o),
(422,398,o),
(448,353,c),
(394,105,l),
(359,73,o),
(316,56,o),
(271,56,cs)
);
}
);
width = 570;
},
{
anchors = (
{
name = bottom;
pos = (426,0);
},
{
name = top;
pos = (326,481);
}
);
layerId = "97A2421D-FE16-4A26-AFBB-B9A317B3A2E5";
shapes = (
{
closed = 1;
nodes = (
(301,-8,o),
(347,9,o),
(387,44,c),
(377,0,l),
(426,0,l),
(529,481,l),
(480,481,l),
(464,406,l),
(427,462,o),
(369,487,o),
(305,487,cs),
(167,487,o),
(55,361,o),
(55,209,cs),
(55,83,o),
(138,-8,o),
(250,-8,cs)
);
},
{
closed = 1;
nodes = (
(170,36,o),
(104,107,o),
(104,213,cs),
(104,341,o),
(196,441,o),
(310,441,cs),
(372,441,o),
(428,407,o),
(453,357,c),
(396,88,l),
(360,55,o),
(312,36,o),
(264,36,cs)
);
}
);
width = 555;
}
);
},
{
glyphname = aogonek.ss01;
kernLeft = o;
kernRight = q;
lastChange = "2024-11-13 18:54:09 +0000";
layers = (
{
layerId = m001;
shapes = (
{
closed = 1;
nodes = (
(438,-231,o),
(474,-222,o),
(499,-208,c),
(494,-138,l),
(483,-145,o),
(465,-149,o),
(447,-149,cs),
(422,-149,o),
(407,-136,o),
(407,-113,cs),
(407,-76,o),
(442,-38,o),
(512,0,c),
(624,516,l),
(466,516,l),
(450,441,l),
(418,491,o),
(366,519,o),
(302,519,cs),
(158,519,o),
(41,391,o),
(41,233,cs),
(41,101,o),
(126,-3,o),
(235,-3,cs),
(285,-3,o),
(331,16,o),
(365,48,c),
(355,0,l),
(431,0,l),
(353,-47,o),
(315,-97,o),
(315,-153,cs),
(315,-201,o),
(349,-231,o),
(403,-231,cs)
);
},
{
closed = 1;
nodes = (
(197,325,o),
(253,385,o),
(327,385,cs),
(368,385,o),
(404,368,o),
(428,341,c),
(389,163,l),
(364,140,o),
(337,130,o),
(305,130,cs),
(242,130,o),
(197,179,o),
(197,246,cs)
);
}
);
width = 628;
},
{
layerId = "92FFDF9D-0EFB-4B63-BEE2-6F342003A4EE";
shapes = (
{
closed = 1;
nodes = (
(380,-232,o),
(404,-227,o),
(422,-218,c),
(418,-178,l),
(405,-183,o),
(386,-187,o),
(372,-187,cs),
(337,-187,o),
(312,-168,o),
(312,-139,cs),
(312,-92,o),
(353,-48,o),
(442,0,c),
(549,488,l),
(477,488,l),
(460,411,l),
(426,464,o),
(371,493,o),
(303,493,cs),
(164,493,o),
(51,367,o),
(51,214,cs),
(51,88,o),
(133,-7,o),
(245,-7,cs),
(297,-7,o),
(344,12,o),
(381,46,c),
(371,0,l),
(383,0,l),
(301,-48,o),
(261,-99,o),
(261,-154,cs),
(261,-201,o),
(299,-232,o),
(356,-232,cs)
);
},
{
closed = 1;
nodes = (
(122,337,o),
(206,429,o),
(312,429,cs),
(369,429,o),
(422,398,o),
(448,353,c),
(394,105,l),
(359,73,o),
(316,56,o),
(271,56,cs),
(183,56,o),
(122,123,o),
(122,220,cs)
);
}
);
width = 570;
},
{
layerId = "97A2421D-FE16-4A26-AFBB-B9A317B3A2E5";
shapes = (
{
closed = 1;
nodes = (
(367,-232,o),
(388,-227,o),
(403,-220,c),
(400,-188,l),
(387,-193,o),
(368,-197,o),
(354,-197,cs),
(316,-197,o),
(289,-176,o),
(289,-146,cs),
(289,-102,o),
(320,-56,o),
(426,0,c),
(529,481,l),
(480,481,l),
(464,406,l),
(427,462,o),
(369,487,o),
(305,487,cs),
(167,487,o),
(55,361,o),
(55,209,cs),
(55,83,o),
(138,-8,o),
(250,-8,cs),
(301,-8,o),
(347,9,o),
(387,44,c),
(377,0,l),
(378,0,l),
(291,-47,o),
(249,-97,o),
(249,-154,cs),
(249,-195,o),
(281,-232,o),
(346,-232,cs)
);
},
{
closed = 1;
nodes = (
(104,341,o),
(196,441,o),
(310,441,cs),
(372,441,o),
(428,407,o),
(453,357,c),
(396,88,l),
(360,55,o),
(312,36,o),
(264,36,cs),
(170,36,o),
(104,107,o),
(104,213,cs)
);
}
);
width = 555;
}
);
},
{
glyphname = g.ss02;
kernLeft = g.alt;
kernRight = g.alt;
lastChange = "2024-11-13 18:54:33 +0000";
layers = (
{
anchors = (
{
name = top;
pos = (334,516);
}
);
layerId = m001;
shapes = (
{
closed = 1;
nodes = (
(426,-219,o),
(546,-147,o),
(546,-38,cs),
(546,25,o),
(493,66,o),
(397,77,cs),
(216,94,ls),
(186,97,o),
(171,106,o),
(171,121,cs),
(171,138,o),
(183,150,o),
(204,156,c),
(232,147,o),
(264,142,o),
(298,142,cs),
(442,142,o),
(554,232,o),
(554,347,cs),
(554,371,o),
(549,393,o),
(539,414,c),
(553,420,o),
(569,424,o),
(586,424,cs),
(608,424,o),
(634,419,o),
(650,412,c),
(676,538,l),
(661,544,o),
(653,545,o),
(639,545,cs),
(591,545,o),
(552,515,o),
(516,448,c),
(476,495,o),
(407,524,o),
(325,524,cs),
(185,524,o),
(71,431,o),
(71,316,cs),
(71,253,o),
(109,200,o),
(170,170,c),
(89,160,o),
(35,115,o),
(35,53,cs),
(35,24,o),
(50,1,o),
(79,-15,c),
(-2,-25,o),
(-50,-57,o),
(-50,-104,cs),
(-50,-174,o),
(66,-219,o),
(244,-219,cs)
);
},
{
closed = 1;
nodes = (
(253,248,o),
(219,279,o),
(219,323,cs),
(219,374,o),
(263,414,o),
(320,414,cs),
(369,414,o),
(404,383,o),
(404,340,cs),
(404,289,o),
(359,248,o),
(303,248,cs)
);
},
{
closed = 1;
nodes = (
(154,-122,o),
(95,-102,o),
(95,-69,cs),
(95,-53,o),
(105,-40,o),
(122,-32,c),
(141,-38,o),
(163,-42,o),
(188,-44,cs),
(345,-58,ls),
(368,-61,o),
(380,-68,o),
(380,-79,cs),
(380,-105,o),
(330,-122,o),
(254,-122,cs)
);
}
);
userData = {
SBAlt = right;
};
width = 626;
},
{
anchors = (
{
name = top;
pos = (294,488);
}
);
layerId = "92FFDF9D-0EFB-4B63-BEE2-6F342003A4EE";
shapes = (
{
closed = 1;
nodes = (
(355,-219,o),
(449,-158,o),
(449,-65,cs),
(449,-14,o),
(413,18,o),
(342,27,cs),
(161,51,ls),
(127,56,o),
(110,69,o),
(110,92,cs),
(110,119,o),
(136,141,o),
(175,149,c),
(199,139,o),
(227,133,o),
(256,133,cs),
(372,133,o),
(473,226,o),
(473,331,cs),
(473,361,o),
(465,389,o),
(451,412,c),
(462,440,o),
(489,458,o),
(521,458,cs),
(538,458,o),
(554,455,o),
(567,451,c),
(581,520,l),
(570,523,o),
(556,525,o),
(545,525,cs),
(491,525,o),
(451,492,o),
(435,434,c),
(402,472,o),
(351,495,o),
(292,495,cs),
(176,495,o),
(75,402,o),
(75,297,cs),
(75,242,o),
(102,195,o),
(145,166,c),
(86,153,o),
(43,113,o),
(43,67,cs),
(43,38,o),
(59,15,o),
(88,0,c),
(11,-19,o),
(-30,-54,o),
(-30,-101,cs),
(-30,-173,o),
(64,-219,o),
(210,-219,cs)
);
},
{
closed = 1;
nodes = (
(194,189,o),
(145,236,o),
(145,300,cs),
(145,375,o),
(211,439,o),
(288,439,cs),
(354,439,o),
(403,392,o),
(403,328,cs),
(403,253,o),
(337,189,o),
(261,189,cs)
);
},
{
closed = 1;
nodes = (
(107,-166,o),
(40,-135,o),
(40,-87,cs),
(40,-52,o),
(72,-25,o),
(124,-12,c),
(131,-14,o),
(138,-15,o),
(145,-16,cs),
(322,-37,ls),
(356,-41,o),
(374,-59,o),
(374,-84,cs),
(374,-132,o),
(309,-166,o),
(214,-166,cs)
);
}
);
userData = {
SBAlt = right;
};
width = 526;
},
{
anchors = (
{
name = top;
pos = (286,480);
}
);
layerId = "97A2421D-FE16-4A26-AFBB-B9A317B3A2E5";
shapes = (
{
closed = 1;
nodes = (
(329,-219,o),
(426,-162,o),
(426,-83,cs),
(426,-23,o),
(386,16,o),
(318,23,cs),
(149,41,ls),
(114,45,o),
(97,61,o),
(97,83,cs),
(97,113,o),
(132,139,o),
(180,144,c),
(202,136,o),
(225,131,o),
(250,131,cs),
(360,131,o),
(453,225,o),
(453,326,cs),
(453,352,o),
(447,375,o),
(437,397,c),
(442,439,o),
(471,466,o),
(509,466,cs),
(525,466,o),
(538,463,o),
(551,460,c),
(561,514,l),
(551,516,o),
(536,518,o),
(526,518,cs),
(470,518,o),
(430,485,o),
(419,425,c),
(388,464,o),
(339,489,o),
(282,489,cs),
(172,489,o),
(79,395,o),
(79,294,cs),
(79,238,o),
(106,190,o),
(149,161,c),
(91,150,o),
(48,111,o),
(48,69,cs),
(48,42,o),
(63,20,o),
(90,7,c),
(10,-15,o),
(-22,-43,o),
(-22,-93,cs),
(-22,-164,o),
(56,-219,o),
(194,-219,cs)
);
},
{
closed = 1;
nodes = (
(180,175,o),
(128,224,o),
(128,295,cs),
(128,376,o),
(198,445,o),
(280,445,cs),
(352,445,o),
(404,396,o),
(404,325,cs),
(404,244,o),
(334,175,o),
(252,175,cs)
);
},
{
closed = 1;
nodes = (
(87,-178,o),
(28,-145,o),
(28,-92,cs),
(28,-48,o),
(65,-19,o),
(127,-5,c),
(130,-5,o),
(134,-6,o),
(137,-6,cs),
(303,-23,ls),
(351,-28,o),
(376,-45,o),
(376,-82,cs),
(376,-136,o),
(299,-178,o),
(196,-178,cs)
);
}
);
userData = {
SBAlt = right;
};
width = 500;
}
);
note = "Version created Sun Jan 13 16:53:00 2019";
},
{
glyphname = gcommaaccent.ss02;
kernLeft = g.alt;
kernRight = g.alt;
lastChange = "2024-11-13 18:54:33 +0000";
layers = (
{
layerId = m001;
shapes = (
{
closed = 1;
nodes = (
(451,842,l),
(311,627,l),
(452,627,l),
(560,842,l)
);
},
{
ref = g.ss02;
}
);
width = 626;
},
{
layerId = "92FFDF9D-0EFB-4B63-BEE2-6F342003A4EE";
shapes = (
{
closed = 1;
nodes = (
(405,797,l),
(294,610,l),
(371,610,l),
(458,797,l)
);
},
{
ref = g.ss02;
}
);
width = 526;
},
{
layerId = "97A2421D-FE16-4A26-AFBB-B9A317B3A2E5";
shapes = (
{
closed = 1;
nodes = (
(414,786,l),
(316,606,l),
(372,606,l),
(453,786,l)
);
},
{
ref = g.ss02;
}
);
width = 500;
}
);
},
{
glyphname = ordfeminine;
kernLeft = _reg;
kernRight = _reg;
lastChange = "2024-11-12 17:33:39 +0000";
layers = (
{
layerId = m001;
shapes = (
{
closed = 1;
nodes = (
(227,302,o),
(256,310,o),
(290,330,c),
(285,306,l),
(408,306,l),
(458,539,ls),
(480,646,o),
(417,711,o),
(289,711,cs),
(238,711,o),
(182,700,o),
(121,677,c),
(151,583,l),
(202,600,o),
(234,607,o),
(260,607,cs),
(319,607,o),
(344,585,o),
(335,539,cs),
(333,528,l),
(300,539,o),
(265,545,o),
(233,545,cs),
(127,545,o),
(63,496,o),
(63,413,cs),
(63,345,o),
(113,302,o),
(193,302,cs)
);
},
{
closed = 1;
nodes = (
(203,389,o),
(181,401,o),
(181,423,cs),
(181,450,o),
(204,464,o),
(246,464,cs),
(267,464,o),
(293,460,o),
(317,453,c),
(306,403,l),
(286,394,o),
(265,389,o),
(243,389,cs)
);
}
);
width = 441;
},
{
layerId = "92FFDF9D-0EFB-4B63-BEE2-6F342003A4EE";
shapes = (
{
closed = 1;
nodes = (
(243,319,o),
(279,330,o),
(313,355,c),
(307,325,l),
(366,325,l),
(417,562,ls),
(436,653,o),
(385,709,o),
(280,709,cs),
(238,709,o),
(193,699,o),
(141,677,c),
(157,629,l),
(206,649,o),
(239,657,o),
(269,657,cs),
(342,657,o),
(372,624,o),
(357,559,cs),
(348,517,l),
(315,537,o),
(272,549,o),
(230,549,cs),
(137,549,o),
(75,500,o),
(75,425,cs),
(75,361,o),
(126,319,o),
(203,319,cs)
);
},
{
closed = 1;
nodes = (
(166,366,o),
(134,390,o),
(134,431,cs),
(134,474,o),
(174,504,o),
(231,504,cs),
(274,504,o),
(309,493,o),
(338,471,c),
(324,403,l),
(293,378,o),
(259,366,o),
(221,366,cs)
);
}
);
width = 400;
},
{
layerId = "97A2421D-FE16-4A26-AFBB-B9A317B3A2E5";
shapes = (
{
closed = 1;
nodes = (
(252,327,o),
(290,340,o),
(326,366,c),
(318,331,l),
(361,331,l),
(413,576,ls),
(430,659,o),
(377,711,o),
(277,711,cs),
(238,711,o),
(205,704,o),
(150,682,c),
(163,645,l),
(211,665,o),
(240,672,o),
(275,672,cs),
(350,672,o),
(384,636,o),
(370,571,cs),
(356,507,l),
(322,536,o),
(282,550,o),
(234,550,cs),
(141,550,o),
(78,502,o),
(78,430,cs),
(78,369,o),
(132,327,o),
(210,327,cs)
);
},
{
closed = 1;
nodes = (
(158,363,o),
(121,389,o),
(121,432,cs),
(121,483,o),
(164,516,o),
(232,516,cs),
(279,516,o),
(320,501,o),
(349,473,c),
(333,401,l),
(300,375,o),
(264,363,o),
(219,363,cs)
);
}
);
width = 389;
}
);
unicode = 170;
},
{
glyphname = ordmasculine;
kernLeft = _reg;
kernRight = _reg;
lastChange = "2024-11-12 17:33:39 +0000";
layers = (
{
layerId = m001;
shapes = (
{
closed = 1;
nodes = (
(403,297,o),
(506,398,o),
(506,518,cs),
(506,628,o),
(420,710,o),
(306,710,cs),
(181,710,o),
(79,610,o),
(79,489,cs),
(79,380,o),
(165,297,o),
(280,297,cs)
);
},
{
closed = 1;
nodes = (
(236,406,o),
(201,443,o),
(201,495,cs),
(201,553,o),
(245,601,o),
(299,601,cs),
(349,601,o),
(384,564,o),
(384,513,cs),
(384,454,o),
(340,406,o),
(286,406,cs)
);
}
);
userData = {
com.typemytype.robofont.guideline.magnetic.GFdcbLeA44 = 5;
com.typemytype.robofont.guideline.magnetic.L2oGOM2VOm = 5;
com.typemytype.robofont.guideline.magnetic.bfCfVZKlFe = 5;
};
width = 483;
},
{
layerId = "92FFDF9D-0EFB-4B63-BEE2-6F342003A4EE";
shapes = (
{
closed = 1;
nodes = (
(380,317,o),
(474,414,o),
(474,529,cs),
(474,633,o),
(398,710,o),
(297,710,cs),
(186,710,o),
(92,613,o),
(92,498,cs),
(92,394,o),
(168,317,o),
(270,317,cs)
);
},
{
closed = 1;
nodes = (
(204,372,o),
(152,427,o),
(152,501,cs),
(152,585,o),
(217,655,o),
(293,655,cs),
(362,655,o),
(414,600,o),
(414,526,cs),
(414,443,o),
(350,372,o),
(273,372,cs)
);
}
);
userData = {
com.typemytype.robofont.guideline.magnetic.GFdcbLeA44 = 5;
com.typemytype.robofont.guideline.magnetic.L2oGOM2VOm = 5;
com.typemytype.robofont.guideline.magnetic.bfCfVZKlFe = 5;
};
width = 455;
},
{
layerId = "97A2421D-FE16-4A26-AFBB-B9A317B3A2E5";
shapes = (
{
closed = 1;
nodes = (
(376,323,o),
(472,423,o),
(472,540,cs),
(472,638,o),
(397,711,o),
(299,711,cs),
(189,711,o),
(94,611,o),
(94,494,cs),
(94,396,o),
(168,323,o),
(266,323,cs)
);
},
{
closed = 1;
nodes = (
(193,364,o),
(140,422,o),
(140,499,cs),
(140,583,o),
(205,670,o),
(300,670,cs),
(373,670,o),
(426,612,o),
(426,535,cs),
(426,451,o),
(361,364,o),
(266,364,cs)
);
}
);
userData = {
com.typemytype.robofont.guideline.magnetic.GFdcbLeA44 = 5;
com.typemytype.robofont.guideline.magnetic.L2oGOM2VOm = 5;
com.typemytype.robofont.guideline.magnetic.bfCfVZKlFe = 5;
};
width = 448;
}
);
unicode = 186;
},
{
glyphname = .notdef;
lastChange = "2024-11-12 17:33:39 +0000";
layers = (
{
layerId = m001;
shapes = (
{
closed = 1;
nodes = (
(454,-100,l),
(454,750,l),
(60,750,l),
(60,-100,l)
);
}
);
width = 514;
},
{
layerId = "92FFDF9D-0EFB-4B63-BEE2-6F342003A4EE";
shapes = (
{
closed = 1;
nodes = (
(454,-100,l),
(454,750,l),
(60,750,l),
(60,-100,l)
);
}
);
width = 514;
},
{
layerId = "97A2421D-FE16-4A26-AFBB-B9A317B3A2E5";
shapes = (
{
closed = 1;
nodes = (
(456,-100,l),
(456,750,l),
(62,750,l),
(62,-100,l)
);
}
);
width = 514;
}
);
},
{
glyphname = period;
kernLeft = _period;
kernRight = _period;
lastChange = "2024-11-12 17:33:39 +0000";
layers = (
{
layerId = m001;
shapes = (
{
closed = 1;
nodes = (
(129,-11,o),
(176,39,o),
(176,95,cs),
(176,142,o),
(143,178,o),
(99,178,cs),
(44,178,o),
(-3,130,o),
(-3,72,cs),
(-3,25,o),
(31,-11,o),
(77,-11,cs)
);
}
);
userData = {
com.typemytype.robofont.guideline.magnetic.LhAYt9ftpN = 5;
com.typemytype.robofont.guideline.magnetic.jX7KS9eapY = 5;
com.typemytype.robofont.guideline.magnetic.qXZfXXFPOe = 5;
com.typemytype.robofont.guideline.magnetic.tfAL4EPAUj = 5;
com.typemytype.robofont.guideline.magnetic.yUvOvTYZZn = 5;
};
width = 250;
},
{
layerId = "92FFDF9D-0EFB-4B63-BEE2-6F342003A4EE";
shapes = (
{
closed = 1;
nodes = (
(106,-8,o),
(133,21,o),
(133,52,cs),
(133,80,o),
(113,101,o),
(87,101,cs),
(56,101,o),
(29,73,o),
(29,41,cs),
(29,13,o),
(49,-8,o),
(76,-8,cs)
);
}
);
userData = {
com.typemytype.robofont.guideline.magnetic.LhAYt9ftpN = 5;
com.typemytype.robofont.guideline.magnetic.jX7KS9eapY = 5;
com.typemytype.robofont.guideline.magnetic.qXZfXXFPOe = 5;
com.typemytype.robofont.guideline.magnetic.tfAL4EPAUj = 5;
com.typemytype.robofont.guideline.magnetic.yUvOvTYZZn = 5;
};
width = 250;
},
{
layerId = "97A2421D-FE16-4A26-AFBB-B9A317B3A2E5";
shapes = (
{
closed = 1;
nodes = (
(104,-8,o),
(129,15,o),
(129,44,cs),
(129,67,o),
(112,85,o),
(90,85,cs),
(60,85,o),
(35,62,o),
(35,33,cs),
(35,10,o),
(52,-8,o),
(74,-8,cs)
);
}
);
userData = {
com.typemytype.robofont.guideline.magnetic.LhAYt9ftpN = 5;
com.typemytype.robofont.guideline.magnetic.jX7KS9eapY = 5;
com.typemytype.robofont.guideline.magnetic.qXZfXXFPOe = 5;
com.typemytype.robofont.guideline.magnetic.tfAL4EPAUj = 5;
com.typemytype.robofont.guideline.magnetic.yUvOvTYZZn = 5;
};
width = 250;
}
);
unicode = 46;
},
{
glyphname = comma;
kernLeft = _period;
kernRight = _period;
lastChange = "2024-11-12 17:33:39 +0000";
layers = (
{
layerId = m001;
shapes = (
{
closed = 1;
nodes = (
(16,-177,l),
(191,127,l),
(36,127,l),
(-98,-177,l)
);
}
);
userData = {
com.typemytype.robofont.guideline.magnetic.8gCMu6nEr4 = 5;
com.typemytype.robofont.guideline.magnetic.ApGoBVD3Hn = 5;
com.typemytype.robofont.guideline.magnetic.NkBVBTLhwG = 5;
com.typemytype.robofont.guideline.magnetic.bjJOsaWldu = 5;
com.typemytype.robofont.guideline.magnetic.u0CTdG3DKm = 5;
};
width = 250;
},
{
layerId = "92FFDF9D-0EFB-4B63-BEE2-6F342003A4EE";
shapes = (
{
closed = 1;
nodes = (
(18,-157,l),
(143,74,l),
(65,74,l),
(-39,-157,l)
);
}
);
userData = {
com.typemytype.robofont.guideline.magnetic.8gCMu6nEr4 = 5;
com.typemytype.robofont.guideline.magnetic.ApGoBVD3Hn = 5;
com.typemytype.robofont.guideline.magnetic.NkBVBTLhwG = 5;
com.typemytype.robofont.guideline.magnetic.bjJOsaWldu = 5;
com.typemytype.robofont.guideline.magnetic.u0CTdG3DKm = 5;
};
width = 250;
},
{
layerId = "97A2421D-FE16-4A26-AFBB-B9A317B3A2E5";
shapes = (
{
closed = 1;
nodes = (
(20,-152,l),
(132,60,l),
(74,60,l),
(-21,-152,l)
);
}
);
userData = {
com.typemytype.robofont.guideline.magnetic.8gCMu6nEr4 = 5;
com.typemytype.robofont.guideline.magnetic.ApGoBVD3Hn = 5;
com.typemytype.robofont.guideline.magnetic.NkBVBTLhwG = 5;
com.typemytype.robofont.guideline.magnetic.bjJOsaWldu = 5;
com.typemytype.robofont.guideline.magnetic.u0CTdG3DKm = 5;
};
width = 250;
}
);
unicode = 44;
},
{
glyphname = exclam;
lastChange = "2024-11-12 17:33:39 +0000";
layers = (
{
layerId = m001;
shapes = (
{
closed = 1;
nodes = (
(183,227,l),
(310,727,l),
(157,727,l),
(68,227,l)
);
},
{
closed = 1;
nodes = (
(137,-11,o),
(183,37,o),
(183,91,cs),
(183,136,o),
(151,170,o),
(108,170,cs),
(54,170,o),
(8,124,o),
(8,68,cs),
(8,23,o),
(41,-11,o),
(86,-11,cs)
);
}
);
userData = {
com.typemytype.robofont.guideline.magnetic.De3PwU0MJ1 = 5;
com.typemytype.robofont.guideline.magnetic.Y22Lwnt7WF = 5;
com.typemytype.robofont.guideline.magnetic.iIMdgDG6jT = 5;
com.typemytype.robofont.guideline.magnetic.u3NSSs4T0V = 5;
com.typemytype.robofont.guideline.magnetic.yTMNEpVVDd = 5;
};
width = 269;
},
{
layerId = "92FFDF9D-0EFB-4B63-BEE2-6F342003A4EE";
shapes = (
{
closed = 1;
nodes = (
(124,205,l),
(246,727,l),
(172,727,l),
(67,205,l)
);
},
{
closed = 1;
nodes = (
(88,-8,o),
(115,20,o),
(115,51,cs),
(115,77,o),
(96,98,o),
(69,98,cs),
(38,98,o),
(11,71,o),
(11,40,cs),
(11,13,o),
(31,-8,o),
(58,-8,cs)
);
}
);
userData = {
com.typemytype.robofont.guideline.magnetic.De3PwU0MJ1 = 5;
com.typemytype.robofont.guideline.magnetic.Y22Lwnt7WF = 5;
com.typemytype.robofont.guideline.magnetic.iIMdgDG6jT = 5;
com.typemytype.robofont.guideline.magnetic.u3NSSs4T0V = 5;
com.typemytype.robofont.guideline.magnetic.yTMNEpVVDd = 5;
};
width = 215;
},
{
layerId = "97A2421D-FE16-4A26-AFBB-B9A317B3A2E5";
shapes = (
{
closed = 1;
nodes = (
(110,199,l),
(227,710,l),
(174,710,l),
(69,199,l)
);
},
{
closed = 1;
nodes = (
(79,-8,o),
(104,15,o),
(104,44,cs),
(104,67,o),
(87,85,o),
(65,85,cs),
(35,85,o),
(10,62,o),
(10,33,cs),
(10,10,o),
(27,-8,o),
(49,-8,cs)
);
}
);
userData = {
com.typemytype.robofont.guideline.magnetic.De3PwU0MJ1 = 5;
com.typemytype.robofont.guideline.magnetic.Y22Lwnt7WF = 5;
com.typemytype.robofont.guideline.magnetic.iIMdgDG6jT = 5;
com.typemytype.robofont.guideline.magnetic.u3NSSs4T0V = 5;
com.typemytype.robofont.guideline.magnetic.yTMNEpVVDd = 5;
};
width = 201;
}
);
unicode = 33;
},
{
glyphname = exclamdown;
lastChange = "2024-11-12 17:33:39 +0000";
layers = (
{
layerId = m001;
shapes = (
{
closed = 1;
nodes = (
(78,264,l),
(-49,-236,l),
(104,-236,l),
(193,264,l)
);
},
{
closed = 1;
nodes = (
(124,502,o),
(78,454,o),
(78,400,cs),
(78,355,o),
(110,321,o),
(153,321,cs),
(207,321,o),
(253,367,o),
(253,423,cs),
(253,468,o),
(220,502,o),
(175,502,cs)
);
}
);
userData = {
com.typemytype.robofont.guideline.magnetic.2V62fttru6 = 5;
com.typemytype.robofont.guideline.magnetic.2gIryhMM6S = 5;
com.typemytype.robofont.guideline.magnetic.NoAEDe3b1e = 5;
com.typemytype.robofont.guideline.magnetic.NxApnrOgNh = 5;
com.typemytype.robofont.guideline.magnetic.SjoCyDFycZ = 5;
};
width = 268;
},
{
layerId = "92FFDF9D-0EFB-4B63-BEE2-6F342003A4EE";
shapes = (
{
closed = 1;
nodes = (
(88,283,l),
(-34,-239,l),
(40,-239,l),
(145,283,l)
);
},
{
closed = 1;
nodes = (
(124,496,o),
(97,468,o),
(97,437,cs),
(97,411,o),
(116,390,o),
(143,390,cs),
(174,390,o),
(201,417,o),
(201,448,cs),
(201,475,o),
(181,496,o),
(154,496,cs)
);
}
);
userData = {
com.typemytype.robofont.guideline.magnetic.2V62fttru6 = 5;
com.typemytype.robofont.guideline.magnetic.2gIryhMM6S = 5;
com.typemytype.robofont.guideline.magnetic.NoAEDe3b1e = 5;
com.typemytype.robofont.guideline.magnetic.NxApnrOgNh = 5;
com.typemytype.robofont.guideline.magnetic.SjoCyDFycZ = 5;
};
width = 214;
},
{
layerId = "97A2421D-FE16-4A26-AFBB-B9A317B3A2E5";
shapes = (
{
closed = 1;
nodes = (
(92,293,l),
(-25,-218,l),
(28,-218,l),
(133,293,l)
);
},
{
closed = 1;
nodes = (
(123,500,o),
(98,477,o),
(98,448,cs),
(98,425,o),
(115,407,o),
(137,407,cs),
(167,407,o),
(192,430,o),
(192,459,cs),
(192,482,o),
(175,500,o),
(153,500,cs)
);
}
);
userData = {
com.typemytype.robofont.guideline.magnetic.2V62fttru6 = 5;
com.typemytype.robofont.guideline.magnetic.2gIryhMM6S = 5;
com.typemytype.robofont.guideline.magnetic.NoAEDe3b1e = 5;
com.typemytype.robofont.guideline.magnetic.NxApnrOgNh = 5;
com.typemytype.robofont.guideline.magnetic.SjoCyDFycZ = 5;
};
width = 201;
}
);
unicode = 161;
},
{
glyphname = question;
lastChange = "2024-11-12 17:33:39 +0000";
layers = (
{
layerId = m001;
shapes = (
{
closed = 1;
nodes = (
(246,-11,o),
(292,37,o),
(292,91,cs),
(292,136,o),
(260,170,o),
(216,170,cs),
(162,170,o),
(116,124,o),
(116,68,cs),
(116,23,o),
(149,-11,o),
(194,-11,cs)
);
},
{
closed = 1;
nodes = (
(295,230,l),
(303,270,o),
(318,289,o),
(362,313,cs),
(389,329,ls),
(502,396,o),
(548,457,o),
(548,539,cs),
(548,640,o),
(461,710,o),
(336,710,cs),
(231,710,o),
(132,651,o),
(78,554,c),
(189,499,l),
(215,545,o),
(264,575,o),
(315,575,cs),
(365,575,o),
(396,552,o),
(396,515,c),
(396,489,o),
(375,462,o),
(335,437,cs),
(276,399,ls),
(209,358,o),
(183,316,o),
(168,230,c)
);
}
);
userData = {
com.typemytype.robofont.guideline.magnetic.6VL9rfKkUL = 5;
com.typemytype.robofont.guideline.magnetic.6wYYkvCEK0 = 5;
com.typemytype.robofont.guideline.magnetic.Aouqovru8u = 5;
com.typemytype.robofont.guideline.magnetic.VSxP7xUR8E = 5;
com.typemytype.robofont.guideline.magnetic.zSOH3qpZ29 = 5;
};
width = 526;
},
{
layerId = "92FFDF9D-0EFB-4B63-BEE2-6F342003A4EE";
shapes = (
{
closed = 1;
nodes = (
(202,-8,o),
(229,20,o),
(229,51,cs),
(229,77,o),
(210,98,o),
(184,98,cs),
(153,98,o),
(126,71,o),
(126,40,cs),
(126,13,o),
(145,-8,o),
(172,-8,cs)
);
},
{
closed = 1;
nodes = (
(238,207,l),
(248,268,o),
(272,305,o),
(326,336,cs),
(385,371,ls),
(473,424,o),
(511,480,o),
(511,554,cs),
(511,645,o),
(436,707,o),
(327,707,cs),
(249,707,o),
(171,670,o),
(107,603,c),
(152,562,l),
(201,612,o),
(259,641,o),
(317,641,cs),
(390,641,o),
(440,601,o),
(440,545,c),
(440,499,o),
(409,454,o),
(355,421,cs),
(293,385,ls),
(224,345,o),
(191,295,o),
(177,207,c)
);
}
);
userData = {
com.typemytype.robofont.guideline.magnetic.6VL9rfKkUL = 5;
com.typemytype.robofont.guideline.magnetic.6wYYkvCEK0 = 5;
com.typemytype.robofont.guideline.magnetic.Aouqovru8u = 5;
com.typemytype.robofont.guideline.magnetic.VSxP7xUR8E = 5;
com.typemytype.robofont.guideline.magnetic.zSOH3qpZ29 = 5;
};
width = 501;
},
{
guides = (
{
angle = 78;
pos = (351,201);
userData = {
UFO.identifier = WMI4ZTKeZ3;
};
}
);
layerId = "97A2421D-FE16-4A26-AFBB-B9A317B3A2E5";
shapes = (
{
closed = 1;
nodes = (
(194,-8,o),
(219,15,o),
(219,44,cs),
(219,67,o),
(202,85,o),
(180,85,cs),
(150,85,o),
(125,62,o),
(125,33,cs),
(125,10,o),
(142,-8,o),
(164,-8,cs)
);
},
{
closed = 1;
nodes = (
(225,201,l),
(225,260,o),
(254,304,o),
(318,342,cs),
(386,382,ls),
(467,431,o),
(503,482,o),
(503,554,cs),
(503,644,o),
(428,711,o),
(322,711,cs),
(252,711,o),
(179,678,o),
(113,619,c),
(144,579,l),
(200,631,o),
(260,663,o),
(320,663,cs),
(399,663,o),
(454,616,o),
(454,553,c),
(454,502,o),
(421,452,o),
(362,417,cs),
(300,381,ls),
(218,336,o),
(181,279,o),
(181,201,c)
);
}
);
userData = {
com.typemytype.robofont.guideline.magnetic.6VL9rfKkUL = 5;
com.typemytype.robofont.guideline.magnetic.6wYYkvCEK0 = 5;
com.typemytype.robofont.guideline.magnetic.Aouqovru8u = 5;
com.typemytype.robofont.guideline.magnetic.VSxP7xUR8E = 5;
com.typemytype.robofont.guideline.magnetic.zSOH3qpZ29 = 5;
};
width = 495;
}
);
unicode = 63;
},
{
glyphname = questiondown;
lastChange = "2024-11-12 17:33:39 +0000";
layers = (
{
layerId = m001;
shapes = (
{
closed = 1;
nodes = (
(286,502,o),
(240,454,o),
(240,400,cs),
(240,355,o),
(272,321,o),
(316,321,cs),
(370,321,o),
(416,367,o),
(416,423,cs),
(416,468,o),
(383,502,o),
(338,502,cs)
);
},
{
closed = 1;
nodes = (
(237,261,l),
(229,221,o),
(214,202,o),
(170,178,cs),
(143,162,ls),
(30,95,o),
(-16,34,o),
(-16,-48,cs),
(-16,-149,o),
(71,-219,o),
(196,-219,cs),
(301,-219,o),
(400,-160,o),
(454,-63,c),
(343,-8,l),
(317,-54,o),
(268,-84,o),
(217,-84,cs),
(167,-84,o),
(136,-61,o),
(136,-24,c),
(136,2,o),
(157,29,o),
(197,54,cs),
(256,92,ls),
(323,133,o),
(349,175,o),
(364,261,c)
);
}
);
userData = {
com.typemytype.robofont.guideline.magnetic.KHMLoJl0Y2 = 5;
com.typemytype.robofont.guideline.magnetic.NVuLzBB4vL = 5;
com.typemytype.robofont.guideline.magnetic.NfVRjmb1DX = 5;
com.typemytype.robofont.guideline.magnetic.QPPeQvs3JH = 5;
com.typemytype.robofont.guideline.magnetic.iHdMHo2nFi = 5;
};
width = 526;
},
{
layerId = "92FFDF9D-0EFB-4B63-BEE2-6F342003A4EE";
shapes = (
{
closed = 1;
nodes = (
(304,496,o),
(277,468,o),
(277,437,cs),
(277,411,o),
(296,390,o),
(322,390,cs),
(353,390,o),
(380,417,o),
(380,448,cs),
(380,475,o),
(361,496,o),
(334,496,cs)
);
},
{
closed = 1;
nodes = (
(268,281,l),
(258,220,o),
(234,183,o),
(180,152,cs),
(121,117,ls),
(33,64,o),
(-5,8,o),
(-5,-66,cs),
(-5,-157,o),
(70,-219,o),
(179,-219,cs),
(257,-219,o),
(335,-182,o),
(399,-115,c),
(354,-74,l),
(305,-124,o),
(247,-153,o),
(189,-153,cs),
(116,-153,o),
(66,-113,o),
(66,-57,c),
(66,-11,o),
(97,34,o),
(151,67,cs),
(213,103,ls),
(282,143,o),
(315,193,o),
(329,281,c)
);
}
);
userData = {
com.typemytype.robofont.guideline.magnetic.KHMLoJl0Y2 = 5;
com.typemytype.robofont.guideline.magnetic.NVuLzBB4vL = 5;
com.typemytype.robofont.guideline.magnetic.NfVRjmb1DX = 5;
com.typemytype.robofont.guideline.magnetic.QPPeQvs3JH = 5;
com.typemytype.robofont.guideline.magnetic.iHdMHo2nFi = 5;
};
width = 501;
},
{
layerId = "97A2421D-FE16-4A26-AFBB-B9A317B3A2E5";
shapes = (
{
closed = 1;
nodes = (
(281,500,o),
(256,477,o),
(256,448,cs),
(256,425,o),
(273,407,o),
(295,407,cs),
(325,407,o),
(350,430,o),
(350,459,cs),
(350,482,o),
(333,500,o),
(311,500,cs)
);
},
{
closed = 1;
nodes = (
(250,291,l),
(250,232,o),
(221,188,o),
(157,150,cs),
(89,110,ls),
(8,61,o),
(-28,10,o),
(-28,-62,cs),
(-28,-152,o),
(47,-219,o),
(153,-219,cs),
(223,-219,o),
(296,-186,o),
(362,-127,c),
(331,-87,l),
(275,-139,o),
(215,-171,o),
(155,-171,cs),
(76,-171,o),
(21,-124,o),
(21,-61,c),
(21,-10,o),
(54,40,o),
(113,75,cs),
(175,111,ls),
(257,156,o),
(294,213,o),
(294,291,c)
);
}
);
userData = {
com.typemytype.robofont.guideline.magnetic.KHMLoJl0Y2 = 5;
com.typemytype.robofont.guideline.magnetic.NVuLzBB4vL = 5;
com.typemytype.robofont.guideline.magnetic.NfVRjmb1DX = 5;
com.typemytype.robofont.guideline.magnetic.QPPeQvs3JH = 5;
com.typemytype.robofont.guideline.magnetic.iHdMHo2nFi = 5;
};
width = 494;
}
);
unicode = 191;
},
{
color = (0,0,255,255);
glyphname = periodcentered;
lastChange = "2024-11-12 17:33:39 +0000";
layers = (
{
layerId = m001;
shapes = (
{
closed = 1;
nodes = (
(173,194,o),
(220,244,o),
(220,300,cs),
(220,347,o),
(187,383,o),
(143,383,cs),
(88,383,o),
(41,335,o),
(41,277,cs),
(41,230,o),
(75,194,o),
(121,194,cs)
);
}
);
width = 250;
},
{
layerId = "92FFDF9D-0EFB-4B63-BEE2-6F342003A4EE";
shapes = (
{
closed = 1;
nodes = (
(155,229,o),
(182,258,o),
(182,289,cs),
(182,317,o),
(162,338,o),
(136,338,cs),
(105,338,o),
(78,310,o),
(78,278,cs),
(78,250,o),
(98,229,o),
(125,229,cs)
);
}
);
width = 250;
},
{
layerId = "97A2421D-FE16-4A26-AFBB-B9A317B3A2E5";
shapes = (
{
closed = 1;
nodes = (
(158,237,o),
(183,260,o),
(183,289,cs),
(183,312,o),
(166,330,o),
(144,330,cs),
(114,330,o),
(89,307,o),
(89,278,cs),
(89,255,o),
(106,237,o),
(128,237,cs)
);
}
);
width = 250;
}
);
unicode = 183;
},
{
glyphname = bullet;
lastChange = "2024-11-12 17:33:39 +0000";
layers = (
{
layerId = m001;
shapes = (
{
closed = 1;
nodes = (
(253,202,o),
(314,266,o),
(314,338,cs),
(314,400,o),
(272,445,o),
(214,445,cs),
(141,445,o),
(82,383,o),
(82,308,cs),
(82,247,o),
(126,202,o),
(184,202,cs)
);
}
);
width = 370;
},
{
layerId = "92FFDF9D-0EFB-4B63-BEE2-6F342003A4EE";
shapes = (
{
closed = 1;
nodes = (
(235,254,o),
(286,306,o),
(286,367,cs),
(286,416,o),
(249,454,o),
(200,454,cs),
(141,454,o),
(91,402,o),
(91,342,cs),
(91,292,o),
(129,254,o),
(178,254,cs)
);
}
);
width = 336;
},
{
layerId = "97A2421D-FE16-4A26-AFBB-B9A317B3A2E5";
shapes = (
{
closed = 1;
nodes = (
(234,268,o),
(282,317,o),
(282,374,cs),
(282,421,o),
(246,456,o),
(200,456,cs),
(145,456,o),
(96,408,o),
(96,351,cs),
(96,304,o),
(133,268,o),
(180,268,cs)
);
}
);
width = 327;
}
);
unicode = 8226;
},
{
glyphname = asterisk;
kernLeft = _reg;
kernRight = _reg;
lastChange = "2024-11-12 17:33:39 +0000";
layers = (
{
layerId = m001;
shapes = (
{
closed = 1;
nodes = (
(300,307,l),
(320,411,l),
(397,344,l),
(467,425,l),
(382,494,l),
(500,554,l),
(463,644,l),
(357,587,l),
(382,700,l),
(287,700,l),
(265,592,l),
(185,661,l),
(117,582,l),
(206,509,l),
(92,453,l),
(126,361,l),
(228,415,l),
(204,307,l)
);
}
);
width = 483;
},
{
layerId = "92FFDF9D-0EFB-4B63-BEE2-6F342003A4EE";
shapes = (
{
closed = 1;
nodes = (
(267,341,l),
(295,478,l),
(388,398,l),
(425,440,l),
(325,520,l),
(455,584,l),
(434,631,l),
(314,569,l),
(342,700,l),
(292,700,l),
(266,568,l),
(173,648,l),
(138,607,l),
(235,528,l),
(104,463,l),
(124,414,l),
(248,480,l),
(216,341,l)
);
}
);
width = 446;
},
{
layerId = "97A2421D-FE16-4A26-AFBB-B9A317B3A2E5";
shapes = (
{
closed = 1;
nodes = (
(262,350,l),
(290,496,l),
(388,412,l),
(417,444,l),
(313,526,l),
(446,592,l),
(429,628,l),
(305,564,l),
(334,700,l),
(295,700,l),
(269,563,l),
(173,645,l),
(146,614,l),
(245,533,l),
(109,464,l),
(126,428,l),
(256,497,l),
(223,350,l)
);
}
);
width = 436;
}
);
unicode = 42;
},
{
glyphname = numbersign;
lastChange = "2024-11-12 17:33:39 +0000";
layers = (
{
layerId = m001;
shapes = (
{
closed = 1;
nodes = (
(132,0,l),
(233,184,l),
(356,184,l),
(255,0,l),
(389,0,l),
(490,184,l),
(628,184,l),
(652,298,l),
(553,298,l),
(610,402,l),
(721,402,l),
(746,516,l),
(673,516,l),
(774,700,l),
(640,700,l),
(539,516,l),
(416,516,l),
(517,700,l),
(382,700,l),
(281,516,l),
(142,516,l),
(117,402,l),
(218,402,l),
(161,298,l),
(49,298,l),
(25,184,l),
(98,184,l),
(-3,0,l)
);
},
{
closed = 1;
nodes = (
(353,402,l),
(476,402,l),
(419,298,l),
(296,298,l)
);
}
);
userData = {
com.typemytype.robofont.guideline.showMeasurements.HQiIgbmBQ5 = 1;
};
width = 734;
},
{
layerId = "92FFDF9D-0EFB-4B63-BEE2-6F342003A4EE";
shapes = (
{
closed = 1;
nodes = (
(58,0,l),
(178,219,l),
(360,219,l),
(240,0,l),
(306,0,l),
(426,219,l),
(561,219,l),
(573,277,l),
(458,277,l),
(538,423,l),
(651,423,l),
(664,481,l),
(570,481,l),
(690,700,l),
(624,700,l),
(504,481,l),
(323,481,l),
(443,700,l),
(376,700,l),
(256,481,l),
(121,481,l),
(108,423,l),
(224,423,l),
(144,277,l),
(30,277,l),
(18,219,l),
(112,219,l),
(-8,0,l)
);
},
{
closed = 1;
nodes = (
(291,423,l),
(472,423,l),
(392,277,l),
(210,277,l)
);
}
);
userData = {
com.typemytype.robofont.guideline.showMeasurements.HQiIgbmBQ5 = 1;
};
width = 675;
},
{
guides = (
{
pos = (721,451);
userData = {
UFO.identifier = HQiIgbmBQ5;
};
}
);
layerId = "97A2421D-FE16-4A26-AFBB-B9A317B3A2E5";
shapes = (
{
closed = 1;
nodes = (
(46,0,l),
(171,228,l),
(359,228,l),
(234,0,l),
(284,0,l),
(409,228,l),
(545,228,l),
(554,271,l),
(432,271,l),
(519,429,l),
(636,429,l),
(645,472,l),
(542,472,l),
(667,700,l),
(617,700,l),
(492,472,l),
(304,472,l),
(429,700,l),
(379,700,l),
(254,472,l),
(118,472,l),
(109,429,l),
(231,429,l),
(144,271,l),
(27,271,l),
(18,228,l),
(121,228,l),
(-4,0,l)
);
},
{
closed = 1;
nodes = (
(281,429,l),
(469,429,l),
(382,271,l),
(194,271,l)
);
}
);
userData = {
com.typemytype.robofont.guideline.showMeasurements.HQiIgbmBQ5 = 1;
};
width = 659;
}
);
unicode = 35;
},
{
glyphname = slash;
lastChange = "2024-11-12 17:33:39 +0000";
layers = (
{
layerId = m001;
shapes = (
{
closed = 1;
nodes = (
(9,-209,l),
(596,700,l),
(435,700,l),
(-153,-209,l)
);
}
);
width = 534;
},
{
layerId = "92FFDF9D-0EFB-4B63-BEE2-6F342003A4EE";
shapes = (
{
closed = 1;
nodes = (
(-70,-209,l),
(514,700,l),
(438,700,l),
(-145,-209,l)
);
}
);
width = 460;
},
{
layerId = "97A2421D-FE16-4A26-AFBB-B9A317B3A2E5";
shapes = (
{
closed = 1;
nodes = (
(-85,-209,l),
(494,700,l),
(438,700,l),
(-141,-209,l)
);
}
);
width = 440;
}
);
unicode = 47;
},
{
glyphname = backslash;
lastChange = "2024-11-12 17:33:39 +0000";
layers = (
{
layerId = m001;
shapes = (
{
closed = 1;
nodes = (
(473,-209,l),
(273,700,l),
(124,700,l),
(324,-209,l)
);
}
);
width = 523;
},
{
layerId = "92FFDF9D-0EFB-4B63-BEE2-6F342003A4EE";
shapes = (
{
closed = 1;
nodes = (
(384,-209,l),
(184,700,l),
(115,700,l),
(315,-209,l)
);
}
);
width = 413;
},
{
layerId = "97A2421D-FE16-4A26-AFBB-B9A317B3A2E5";
shapes = (
{
closed = 1;
nodes = (
(363,-209,l),
(163,700,l),
(115,700,l),
(315,-209,l)
);
}
);
width = 384;
}
);
unicode = 92;
},
{
glyphname = exclamdown.cap;
lastChange = "2024-11-12 17:33:39 +0000";
layers = (
{
layerId = m001;
shapes = (
{
closed = 1;
nodes = (
(117,473,l),
(-10,-27,l),
(143,-27,l),
(232,473,l)
);
},
{
closed = 1;
nodes = (
(163,711,o),
(117,663,o),
(117,609,cs),
(117,564,o),
(149,530,o),
(192,530,cs),
(246,530,o),
(292,576,o),
(292,632,cs),
(292,677,o),
(259,711,o),
(214,711,cs)
);
}
);
userData = {
com.typemytype.robofont.guideline.magnetic.0C2kWGiRmU = 5;
com.typemytype.robofont.guideline.magnetic.CBajzZtwAP = 5;
com.typemytype.robofont.guideline.magnetic.GCmpGkTSpb = 5;
com.typemytype.robofont.guideline.magnetic.SYuR4psgeS = 5;
com.typemytype.robofont.guideline.magnetic.nHXIicSWkU = 5;
};
width = 261;
},
{
layerId = "92FFDF9D-0EFB-4B63-BEE2-6F342003A4EE";
shapes = (
{
closed = 1;
nodes = (
(132,500,l),
(10,-22,l),
(84,-22,l),
(189,500,l)
);
},
{
closed = 1;
nodes = (
(168,713,o),
(141,685,o),
(141,654,cs),
(141,628,o),
(160,607,o),
(187,607,cs),
(218,607,o),
(245,634,o),
(245,665,cs),
(245,692,o),
(225,713,o),
(198,713,cs)
);
}
);
userData = {
com.typemytype.robofont.guideline.magnetic.0C2kWGiRmU = 5;
com.typemytype.robofont.guideline.magnetic.CBajzZtwAP = 5;
com.typemytype.robofont.guideline.magnetic.GCmpGkTSpb = 5;
com.typemytype.robofont.guideline.magnetic.SYuR4psgeS = 5;
com.typemytype.robofont.guideline.magnetic.nHXIicSWkU = 5;
};
width = 215;
},
{
layerId = "97A2421D-FE16-4A26-AFBB-B9A317B3A2E5";
shapes = (
{
closed = 1;
nodes = (
(138,506,l),
(21,-5,l),
(74,-5,l),
(179,506,l)
);
},
{
closed = 1;
nodes = (
(169,713,o),
(144,690,o),
(144,661,cs),
(144,638,o),
(161,620,o),
(183,620,cs),
(213,620,o),
(238,643,o),
(238,672,cs),
(238,695,o),
(221,713,o),
(199,713,cs)
);
}
);
userData = {
com.typemytype.robofont.guideline.magnetic.0C2kWGiRmU = 5;
com.typemytype.robofont.guideline.magnetic.CBajzZtwAP = 5;
com.typemytype.robofont.guideline.magnetic.GCmpGkTSpb = 5;
com.typemytype.robofont.guideline.magnetic.SYuR4psgeS = 5;
com.typemytype.robofont.guideline.magnetic.nHXIicSWkU = 5;
};
width = 201;
}
);
},
{
glyphname = questiondown.cap;
lastChange = "2024-11-12 17:33:39 +0000";
layers = (
{
layerId = m001;
shapes = (
{
closed = 1;
nodes = (
(291,711,o),
(245,663,o),
(245,609,cs),
(245,564,o),
(277,530,o),
(321,530,cs),
(375,530,o),
(421,576,o),
(421,632,cs),
(421,677,o),
(388,711,o),
(343,711,cs)
);
},
{
closed = 1;
nodes = (
(242,470,l),
(234,430,o),
(219,411,o),
(175,387,cs),
(148,371,ls),
(35,304,o),
(-11,243,o),
(-11,161,cs),
(-11,60,o),
(76,-10,o),
(201,-10,cs),
(306,-10,o),
(405,49,o),
(459,146,c),
(348,201,l),
(322,155,o),
(273,125,o),
(222,125,cs),
(172,125,o),
(141,148,o),
(141,185,c),
(141,211,o),
(162,238,o),
(202,263,cs),
(261,301,ls),
(328,342,o),
(354,384,o),
(369,470,c)
);
}
);
userData = {
com.typemytype.robofont.guideline.magnetic.IMaz5fMtzt = 5;
com.typemytype.robofont.guideline.magnetic.cziLJTzKvC = 5;
com.typemytype.robofont.guideline.magnetic.dciOJGCLsF = 5;
com.typemytype.robofont.guideline.magnetic.gtoWSp4rHE = 5;
com.typemytype.robofont.guideline.magnetic.j2JtakW70K = 5;
};
width = 469;
},
{
layerId = "92FFDF9D-0EFB-4B63-BEE2-6F342003A4EE";
shapes = (
{
closed = 1;
nodes = (
(323,704,o),
(296,676,o),
(296,645,cs),
(296,619,o),
(315,598,o),
(341,598,cs),
(372,598,o),
(399,625,o),
(399,656,cs),
(399,683,o),
(380,704,o),
(353,704,cs)
);
},
{
closed = 1;
nodes = (
(287,489,l),
(277,428,o),
(253,391,o),
(199,360,cs),
(140,325,ls),
(52,272,o),
(14,216,o),
(14,142,cs),
(14,51,o),
(89,-11,o),
(198,-11,cs),
(276,-11,o),
(354,26,o),
(418,93,c),
(373,134,l),
(324,84,o),
(266,55,o),
(208,55,cs),
(135,55,o),
(85,95,o),
(85,151,c),
(85,197,o),
(116,242,o),
(170,275,cs),
(232,311,ls),
(301,351,o),
(334,401,o),
(348,489,c)
);
}
);
userData = {
com.typemytype.robofont.guideline.magnetic.IMaz5fMtzt = 5;
com.typemytype.robofont.guideline.magnetic.cziLJTzKvC = 5;
com.typemytype.robofont.guideline.magnetic.dciOJGCLsF = 5;
com.typemytype.robofont.guideline.magnetic.gtoWSp4rHE = 5;
com.typemytype.robofont.guideline.magnetic.j2JtakW70K = 5;
};
width = 501;
},
{
layerId = "97A2421D-FE16-4A26-AFBB-B9A317B3A2E5";
shapes = (
{
closed = 1;
nodes = (
(325,705,o),
(300,682,o),
(300,653,cs),
(300,630,o),
(317,612,o),
(339,612,cs),
(369,612,o),
(394,635,o),
(394,664,cs),
(394,687,o),
(377,705,o),
(355,705,cs)
);
},
{
closed = 1;
nodes = (
(294,496,l),
(294,437,o),
(265,393,o),
(201,355,cs),
(133,315,ls),
(52,266,o),
(16,215,o),
(16,143,cs),
(16,53,o),
(91,-14,o),
(197,-14,cs),
(267,-14,o),
(340,19,o),
(406,78,c),
(375,118,l),
(319,66,o),
(259,34,o),
(199,34,cs),
(120,34,o),
(65,81,o),
(65,144,c),
(65,195,o),
(98,245,o),
(157,280,cs),
(219,316,ls),
(301,361,o),
(338,418,o),
(338,496,c)
);
}
);
userData = {
com.typemytype.robofont.guideline.magnetic.IMaz5fMtzt = 5;
com.typemytype.robofont.guideline.magnetic.cziLJTzKvC = 5;
com.typemytype.robofont.guideline.magnetic.dciOJGCLsF = 5;
com.typemytype.robofont.guideline.magnetic.gtoWSp4rHE = 5;
com.typemytype.robofont.guideline.magnetic.j2JtakW70K = 5;
};
width = 494;
}
);
},
